{"glyphs":{"0":{"ha":838,"x_min":55,"x_max":783,"o":"m 55 521 q 86 770 55 668 q 169 936 117 873 q 286 1027 222 999 q 419 1056 351 1056 q 557 1027 492 1056 q 674 936 623 999 q 753 770 724 873 q 783 521 783 668 q 750 271 783 374 q 663 106 717 169 q 545 15 610 43 q 419 -14 481 -14 q 286 15 351 -14 q 169 106 222 43 q 86 271 117 169 q 55 521 55 374 m 227 521 q 251 255 227 355 q 319 110 276 155 q 419 66 363 66 q 524 110 481 66 q 589 255 567 155 q 610 521 610 355 q 589 787 610 687 q 524 931 567 887 q 419 976 481 976 q 319 931 363 976 q 251 787 276 887 q 227 521 227 687 "},"1":{"ha":744,"x_min":67,"x_max":681,"o":"m 67 29 l 67 64 q 73 83 67 80 q 96 86 79 86 l 275 86 q 300 92 295 86 q 306 117 306 98 l 306 805 q 301 831 306 824 q 278 838 297 838 l 121 838 q 98 841 106 838 q 90 862 90 844 l 90 891 q 97 917 90 911 q 123 924 103 924 q 234 933 190 924 q 310 972 278 941 q 372 1068 342 1002 q 382 1089 378 1080 q 404 1097 385 1097 l 429 1097 q 450 1094 444 1097 q 457 1077 457 1092 l 457 123 q 464 92 457 98 q 496 86 470 86 l 650 86 q 673 83 664 86 q 681 65 681 80 l 681 30 q 677 6 681 12 q 656 0 673 0 l 93 0 q 71 6 76 0 q 67 29 67 11 "},"2":{"ha":819,"x_min":53,"x_max":775,"o":"m 771 244 q 749 91 775 147 q 675 10 723 35 q 562 -14 626 -14 q 459 -1 506 -14 q 372 28 413 11 q 295 57 332 44 q 219 69 258 69 q 171 56 189 69 q 142 22 153 43 q 134 6 138 12 q 114 0 129 0 l 72 0 q 56 5 59 0 q 53 22 53 10 q 133 278 58 167 q 353 492 208 390 q 432 550 392 519 q 506 620 472 582 q 561 706 540 658 q 583 810 583 753 q 534 944 583 901 q 390 988 485 988 q 293 973 337 988 q 224 935 249 957 q 198 894 198 913 q 209 875 198 883 q 234 856 219 866 q 259 830 249 846 q 270 787 270 815 q 240 721 270 744 q 178 698 210 698 q 131 708 154 698 q 91 741 107 718 q 75 799 75 763 q 117 926 75 867 q 235 1020 159 985 q 417 1056 312 1056 q 663 991 570 1056 q 756 792 756 927 q 730 675 756 728 q 656 578 703 623 q 544 492 608 533 q 406 410 480 451 q 248 294 308 357 q 160 165 189 231 q 148 138 154 151 q 138 117 141 125 q 142 109 135 109 q 156 123 151 109 q 176 154 160 138 q 234 192 200 178 q 308 206 267 206 q 401 191 361 206 q 482 160 442 176 q 575 145 522 145 q 663 172 635 145 q 695 245 691 198 q 699 262 697 258 q 717 265 701 265 l 751 265 q 767 261 765 265 q 771 244 770 258 "},"3":{"ha":753,"x_min":33,"x_max":701,"o":"m 33 212 q 64 289 33 265 q 133 314 96 314 q 193 292 167 314 q 220 228 220 269 q 213 195 220 208 q 195 173 206 182 q 177 155 185 164 q 170 135 170 147 q 190 97 170 116 q 247 66 209 78 q 339 54 285 54 q 456 85 411 54 q 520 164 500 115 q 541 268 541 213 q 525 363 541 315 q 464 447 509 411 q 333 493 419 483 q 304 494 317 495 q 283 499 291 494 q 274 524 274 504 l 274 547 q 283 572 274 567 q 304 577 291 577 q 333 578 317 576 q 432 613 395 587 q 486 675 468 640 q 508 748 503 710 q 513 817 513 786 q 470 941 513 894 q 339 988 428 988 q 244 964 277 988 q 210 912 210 939 q 218 892 210 900 q 236 874 226 883 q 254 852 247 865 q 262 818 262 840 q 235 756 262 779 q 174 733 208 733 q 128 743 151 733 q 90 775 105 753 q 74 833 74 797 q 107 942 74 892 q 205 1024 139 993 q 370 1056 270 1056 q 516 1031 447 1056 q 629 953 585 1006 q 673 817 673 900 q 660 722 673 769 q 615 633 648 674 q 519 564 582 592 q 472 547 483 547 q 460 535 460 547 q 477 526 460 527 q 516 517 493 524 q 661 414 622 481 q 701 266 701 347 q 677 155 701 206 q 608 66 653 103 q 499 7 563 28 q 356 -14 435 -14 q 176 18 249 -14 q 68 102 104 51 q 33 212 33 153 "},"4":{"ha":772,"x_min":40,"x_max":758,"o":"m 738 66 l 738 19 q 733 3 738 6 q 715 0 728 0 l 365 0 q 345 4 350 0 q 340 24 340 8 l 340 62 q 344 81 340 76 q 363 86 349 86 l 456 86 q 473 90 469 86 q 477 106 477 94 l 477 287 q 474 309 477 304 q 452 315 470 315 l 103 315 q 81 317 88 315 q 67 328 75 320 l 49 349 q 41 365 40 359 q 48 385 42 372 q 125 511 77 453 q 230 623 174 569 q 341 733 287 676 q 439 856 396 790 q 503 1005 482 922 q 510 1032 508 1022 q 535 1042 512 1042 l 626 1042 q 655 1037 649 1042 q 658 1012 660 1032 q 605 860 647 927 q 504 737 563 792 q 382 633 445 682 q 264 536 319 584 q 175 436 208 489 q 167 418 168 426 q 175 405 167 410 q 205 401 184 401 l 463 401 q 476 405 475 401 q 477 420 477 408 l 477 499 q 482 521 477 517 q 497 532 486 524 q 542 578 522 551 q 578 651 562 606 q 584 667 582 661 q 599 674 585 674 l 609 674 q 626 669 624 674 q 628 652 628 665 l 628 433 q 634 407 628 413 q 658 401 639 401 l 737 401 q 755 396 751 401 q 758 376 758 391 l 758 338 q 753 319 758 323 q 733 315 749 315 l 655 315 q 633 309 638 315 q 628 287 628 303 l 628 113 q 634 91 628 96 q 656 86 639 86 l 713 86 q 732 83 726 86 q 738 66 738 81 "},"5":{"ha":742,"x_min":42,"x_max":701,"o":"m 42 197 q 74 275 42 251 q 141 299 106 299 q 201 276 174 299 q 228 213 228 253 q 217 172 228 187 q 195 147 206 158 q 183 119 183 135 q 221 72 183 92 q 313 52 258 52 q 431 90 379 52 q 512 190 483 128 q 541 324 541 252 q 515 481 541 415 q 445 582 490 547 q 341 617 400 617 q 246 601 285 617 q 173 543 207 585 q 157 528 165 533 q 130 523 150 523 l 99 523 q 76 531 78 523 q 76 556 74 539 l 135 1015 q 143 1037 137 1032 q 167 1042 149 1042 l 349 1042 q 466 1038 425 1042 q 531 1039 508 1035 q 574 1067 553 1044 q 585 1080 581 1073 q 603 1086 590 1086 l 647 1086 q 659 1075 662 1086 l 651 1042 q 627 971 642 999 q 575 927 612 943 q 467 904 539 910 q 272 897 395 897 l 224 897 q 201 893 208 897 q 192 874 194 889 l 165 667 q 159 630 163 643 q 159 614 155 616 q 172 620 166 610 q 197 645 178 631 q 267 681 226 667 q 367 694 308 694 q 553 648 479 694 q 664 523 627 602 q 701 347 701 444 q 650 160 701 241 q 515 32 600 78 q 328 -14 431 -14 q 176 14 240 -14 q 77 90 112 42 q 42 197 42 138 "},"6":{"ha":786,"x_min":67,"x_max":744,"o":"m 526 953 q 509 978 526 967 q 453 990 493 990 q 330 942 378 990 q 258 805 283 893 q 228 598 234 717 q 226 572 227 580 q 228 563 225 565 q 236 567 233 560 q 249 583 240 573 q 337 644 284 622 q 458 667 390 667 q 601 630 535 667 q 705 518 666 592 q 744 329 744 443 q 720 180 744 244 q 652 73 696 116 q 547 8 608 29 q 411 -14 485 -14 q 263 13 327 -14 q 156 101 199 40 q 90 264 112 163 q 67 514 67 365 q 115 802 67 681 q 247 990 162 924 q 446 1056 332 1056 q 563 1036 510 1056 q 648 980 616 1017 q 680 885 680 942 q 649 807 680 831 q 583 783 619 783 q 520 806 549 783 q 492 870 492 829 q 501 910 492 895 q 517 934 509 925 q 526 953 526 944 m 586 326 q 541 514 586 442 q 417 585 496 585 q 319 557 363 585 q 251 482 276 528 q 226 379 226 435 q 275 149 226 235 q 423 63 325 63 q 518 98 482 63 q 570 193 553 133 q 586 326 586 253 "},"7":{"ha":743,"x_min":54,"x_max":730,"o":"m 54 790 q 81 948 56 890 q 151 1031 106 1006 q 258 1056 196 1056 q 345 1043 308 1056 q 414 1014 383 1031 q 480 985 446 997 q 556 972 513 972 q 614 988 594 972 q 643 1028 633 1003 q 649 1039 646 1036 q 662 1042 651 1042 l 715 1042 q 729 1038 728 1042 q 728 1022 730 1033 q 697 924 722 983 q 636 795 672 865 q 561 653 601 726 q 485 513 521 581 q 434 407 452 449 q 410 335 417 365 q 403 274 403 304 q 412 215 403 238 q 432 173 421 191 q 452 135 443 154 q 460 90 460 117 q 450 39 460 63 q 418 1 440 15 q 362 -14 396 -14 q 286 25 316 -14 q 257 139 257 65 q 272 264 257 201 q 317 392 287 326 q 395 529 347 458 q 493 689 442 603 q 583 856 544 776 q 595 877 590 869 q 597 890 601 886 q 587 885 594 893 q 568 873 580 878 q 535 863 553 867 q 497 860 517 860 q 417 867 449 860 q 360 883 385 874 q 310 900 336 892 q 246 907 284 907 q 158 879 185 907 q 127 792 130 851 q 126 780 127 783 q 115 776 124 776 l 71 776 q 58 778 62 776 q 54 790 54 781 "},"8":{"ha":758,"x_min":49,"x_max":709,"o":"m 208 294 q 226 180 208 234 q 283 92 245 126 q 378 58 321 58 q 474 92 436 58 q 530 180 512 126 q 549 294 549 234 q 530 406 549 352 q 474 495 512 460 q 378 530 436 530 q 283 495 321 530 q 226 406 245 460 q 208 294 208 352 m 84 792 q 121 928 84 868 q 225 1022 158 988 q 378 1056 291 1056 q 534 1022 467 1056 q 637 928 600 988 q 674 792 674 868 q 635 658 674 713 q 528 576 595 603 q 510 569 517 572 q 503 563 503 567 q 508 557 503 560 q 526 550 514 554 q 660 451 610 519 q 709 292 709 384 q 669 138 709 208 q 555 27 629 69 q 378 -14 481 -14 q 203 27 277 -14 q 89 138 129 69 q 49 292 49 208 q 98 448 49 383 q 229 545 146 513 q 249 553 239 549 q 260 562 260 556 q 251 569 260 567 q 228 578 242 572 q 123 660 162 607 q 84 792 84 713 m 242 788 q 258 693 242 737 q 305 622 274 649 q 378 595 335 595 q 454 622 424 595 q 499 693 484 649 q 515 788 515 737 q 499 884 515 840 q 454 956 484 928 q 380 983 424 983 q 305 956 335 983 q 258 884 274 928 q 242 788 242 840 "},"9":{"ha":786,"x_min":42,"x_max":719,"o":"m 260 89 q 277 64 260 76 q 333 51 293 51 q 456 100 408 51 q 528 237 503 149 q 558 444 553 326 q 560 469 559 462 q 558 479 561 477 q 550 475 553 481 q 537 459 547 469 q 449 398 502 421 q 328 375 397 375 q 185 412 251 375 q 81 524 120 449 q 42 713 42 599 q 66 861 42 797 q 134 969 90 926 q 240 1034 178 1013 q 375 1056 301 1056 q 523 1028 459 1056 q 631 940 587 1001 q 697 778 674 879 q 719 528 719 676 q 672 240 719 361 q 540 52 625 118 q 340 -14 455 -14 q 223 5 276 -14 q 138 62 170 24 q 106 157 106 100 q 137 234 106 210 q 204 258 167 258 q 266 236 238 258 q 294 172 294 213 q 285 132 294 147 q 269 107 277 117 q 260 89 260 98 m 200 715 q 245 528 200 599 q 369 457 290 457 q 467 485 424 457 q 535 560 510 513 q 560 663 560 607 q 511 893 560 808 q 363 979 462 979 q 268 944 304 979 q 216 849 233 909 q 200 715 200 789 "}," ":{"ha":417,"x_min":0,"x_max":0,"o":""}," ":{"ha":417,"x_min":0,"x_max":0,"o":""}," ":{"ha":694,"x_min":0,"x_max":0,"o":""}," ":{"ha":1389,"x_min":0,"x_max":0,"o":""}," ":{"ha":694,"x_min":0,"x_max":0,"o":""}," ":{"ha":1389,"x_min":0,"x_max":0,"o":""}," ":{"ha":463,"x_min":0,"x_max":0,"o":""}," ":{"ha":347,"x_min":0,"x_max":0,"o":""}," ":{"ha":231,"x_min":0,"x_max":0,"o":""}," ":{"ha":806,"x_min":0,"x_max":0,"o":""}," ":{"ha":277,"x_min":0,"x_max":0,"o":""}," ":{"ha":231,"x_min":0,"x_max":0,"o":""}," ":{"ha":139,"x_min":0,"x_max":0,"o":""},"A":{"ha":1212,"x_min":0,"x_max":1212,"o":"m 568 853 l 382 417 q 379 399 377 403 q 401 394 381 394 l 724 394 q 756 400 755 394 q 749 427 758 406 l 592 849 q 580 871 584 871 q 568 853 576 871 m 0 31 l 0 72 q 5 88 0 83 q 22 92 9 92 l 113 92 q 140 99 134 92 q 153 119 147 106 l 556 1053 q 563 1061 559 1060 q 575 1063 566 1063 l 652 1063 q 667 1060 663 1063 q 674 1051 671 1058 l 1043 124 q 1054 99 1050 107 q 1083 92 1058 92 l 1190 92 q 1208 88 1205 92 q 1212 69 1212 85 l 1212 25 q 1208 4 1212 8 q 1188 0 1205 0 l 749 0 q 728 4 735 0 q 722 24 722 8 l 722 69 q 728 88 722 84 q 748 92 734 92 l 850 92 q 869 99 869 92 q 865 118 869 107 l 809 268 q 795 297 801 290 q 757 303 789 303 l 369 303 q 339 298 347 303 q 324 277 331 293 l 259 125 q 255 100 252 108 q 280 92 258 92 l 380 92 q 398 88 393 92 q 403 70 403 84 l 403 23 q 399 3 403 6 q 379 0 396 0 l 36 0 q 8 4 15 0 q 0 31 0 8 "},"À":{"ha":1212,"x_min":0,"x_max":1212,"o":"m 624 1154 l 450 1254 q 420 1292 428 1267 q 430 1347 411 1317 q 461 1372 442 1365 q 502 1375 481 1379 q 536 1357 523 1372 l 675 1216 q 676 1191 688 1203 l 644 1158 q 635 1151 639 1152 q 624 1154 631 1149 m 568 853 l 382 417 q 379 399 377 403 q 401 394 381 394 l 724 394 q 756 400 755 394 q 749 427 758 406 l 592 849 q 580 871 584 871 q 568 853 576 871 m 0 31 l 0 72 q 5 88 0 83 q 22 92 9 92 l 113 92 q 140 99 134 92 q 153 119 147 106 l 556 1053 q 563 1061 559 1060 q 575 1063 566 1063 l 652 1063 q 667 1060 663 1063 q 674 1051 671 1058 l 1043 124 q 1054 99 1050 107 q 1083 92 1058 92 l 1190 92 q 1208 88 1205 92 q 1212 69 1212 85 l 1212 25 q 1208 4 1212 8 q 1188 0 1205 0 l 749 0 q 728 4 735 0 q 722 24 722 8 l 722 69 q 728 88 722 84 q 748 92 734 92 l 850 92 q 869 99 869 92 q 865 118 869 107 l 809 268 q 795 297 801 290 q 757 303 789 303 l 369 303 q 339 298 347 303 q 324 277 331 293 l 259 125 q 255 100 252 108 q 280 92 258 92 l 380 92 q 398 88 393 92 q 403 70 403 84 l 403 23 q 399 3 403 6 q 379 0 396 0 l 36 0 q 8 4 15 0 q 0 31 0 8 "},"Á":{"ha":1212,"x_min":0,"x_max":1212,"o":"m 575 1160 l 544 1192 q 544 1215 533 1204 l 683 1357 q 718 1375 698 1372 q 759 1372 739 1379 q 790 1347 779 1365 q 801 1292 809 1317 q 770 1254 792 1267 l 601 1157 q 588 1151 592 1151 q 575 1160 583 1151 m 568 853 l 382 417 q 379 399 377 403 q 401 394 381 394 l 724 394 q 756 400 755 394 q 749 427 758 406 l 592 849 q 580 871 584 871 q 568 853 576 871 m 0 31 l 0 72 q 5 88 0 83 q 22 92 9 92 l 113 92 q 140 99 134 92 q 153 119 147 106 l 556 1053 q 563 1061 559 1060 q 575 1063 566 1063 l 652 1063 q 667 1060 663 1063 q 674 1051 671 1058 l 1043 124 q 1054 99 1050 107 q 1083 92 1058 92 l 1190 92 q 1208 88 1205 92 q 1212 69 1212 85 l 1212 25 q 1208 4 1212 8 q 1188 0 1205 0 l 749 0 q 728 4 735 0 q 722 24 722 8 l 722 69 q 728 88 722 84 q 748 92 734 92 l 850 92 q 869 99 869 92 q 865 118 869 107 l 809 268 q 795 297 801 290 q 757 303 789 303 l 369 303 q 339 298 347 303 q 324 277 331 293 l 259 125 q 255 100 252 108 q 280 92 258 92 l 380 92 q 398 88 393 92 q 403 70 403 84 l 403 23 q 399 3 403 6 q 379 0 396 0 l 36 0 q 8 4 15 0 q 0 31 0 8 "},"Â":{"ha":1212,"x_min":0,"x_max":1212,"o":"m 431 1169 l 411 1190 q 403 1200 403 1197 q 411 1211 403 1203 l 542 1349 q 556 1358 549 1356 q 578 1360 563 1360 l 647 1360 q 667 1358 661 1360 q 679 1349 673 1355 l 813 1208 q 818 1201 818 1203 q 813 1193 818 1199 l 785 1166 q 775 1159 778 1158 q 763 1165 772 1159 l 628 1266 q 593 1267 610 1279 l 456 1165 q 431 1169 444 1156 m 568 853 l 382 417 q 379 399 377 403 q 401 394 381 394 l 724 394 q 756 400 755 394 q 749 427 758 406 l 592 849 q 580 871 584 871 q 568 853 576 871 m 0 31 l 0 72 q 5 88 0 83 q 22 92 9 92 l 113 92 q 140 99 134 92 q 153 119 147 106 l 556 1053 q 563 1061 559 1060 q 575 1063 566 1063 l 652 1063 q 667 1060 663 1063 q 674 1051 671 1058 l 1043 124 q 1054 99 1050 107 q 1083 92 1058 92 l 1190 92 q 1208 88 1205 92 q 1212 69 1212 85 l 1212 25 q 1208 4 1212 8 q 1188 0 1205 0 l 749 0 q 728 4 735 0 q 722 24 722 8 l 722 69 q 728 88 722 84 q 748 92 734 92 l 850 92 q 869 99 869 92 q 865 118 869 107 l 809 268 q 795 297 801 290 q 757 303 789 303 l 369 303 q 339 298 347 303 q 324 277 331 293 l 259 125 q 255 100 252 108 q 280 92 258 92 l 380 92 q 398 88 393 92 q 403 70 403 84 l 403 23 q 399 3 403 6 q 379 0 396 0 l 36 0 q 8 4 15 0 q 0 31 0 8 "},"Ã":{"ha":1212,"x_min":0,"x_max":1212,"o":"m 716 1162 q 643 1178 672 1162 q 591 1216 614 1195 q 551 1250 572 1233 q 500 1267 530 1267 q 447 1247 464 1267 q 427 1190 429 1227 q 413 1181 425 1181 l 381 1181 q 368 1186 369 1181 q 367 1201 366 1191 q 391 1282 371 1246 q 445 1340 412 1319 q 522 1362 479 1362 q 594 1345 566 1362 q 644 1308 623 1329 q 680 1274 660 1291 q 726 1256 699 1256 q 798 1328 791 1256 q 802 1340 799 1336 q 814 1343 804 1343 l 846 1343 q 858 1340 856 1343 q 859 1328 860 1336 q 842 1239 858 1276 q 795 1182 826 1201 q 716 1162 764 1162 m 568 853 l 382 417 q 379 399 377 403 q 401 394 381 394 l 724 394 q 756 400 755 394 q 749 427 758 406 l 592 849 q 580 871 584 871 q 568 853 576 871 m 0 31 l 0 72 q 5 88 0 83 q 22 92 9 92 l 113 92 q 140 99 134 92 q 153 119 147 106 l 556 1053 q 563 1061 559 1060 q 575 1063 566 1063 l 652 1063 q 667 1060 663 1063 q 674 1051 671 1058 l 1043 124 q 1054 99 1050 107 q 1083 92 1058 92 l 1190 92 q 1208 88 1205 92 q 1212 69 1212 85 l 1212 25 q 1208 4 1212 8 q 1188 0 1205 0 l 749 0 q 728 4 735 0 q 722 24 722 8 l 722 69 q 728 88 722 84 q 748 92 734 92 l 850 92 q 869 99 869 92 q 865 118 869 107 l 809 268 q 795 297 801 290 q 757 303 789 303 l 369 303 q 339 298 347 303 q 324 277 331 293 l 259 125 q 255 100 252 108 q 280 92 258 92 l 380 92 q 398 88 393 92 q 403 70 403 84 l 403 23 q 399 3 403 6 q 379 0 396 0 l 36 0 q 8 4 15 0 q 0 31 0 8 "},"Ä":{"ha":1212,"x_min":0,"x_max":1212,"o":"m 732 1174 q 678 1196 700 1174 q 656 1250 656 1218 q 678 1304 656 1281 q 732 1326 700 1326 q 785 1304 763 1326 q 808 1250 808 1281 q 785 1196 808 1218 q 732 1174 763 1174 m 486 1174 q 433 1196 455 1174 q 410 1250 410 1218 q 433 1304 410 1281 q 486 1326 455 1326 q 540 1304 518 1326 q 563 1250 563 1281 q 540 1196 563 1218 q 486 1174 518 1174 m 568 853 l 382 417 q 379 399 377 403 q 401 394 381 394 l 724 394 q 756 400 755 394 q 749 427 758 406 l 592 849 q 580 871 584 871 q 568 853 576 871 m 0 31 l 0 72 q 5 88 0 83 q 22 92 9 92 l 113 92 q 140 99 134 92 q 153 119 147 106 l 556 1053 q 563 1061 559 1060 q 575 1063 566 1063 l 652 1063 q 667 1060 663 1063 q 674 1051 671 1058 l 1043 124 q 1054 99 1050 107 q 1083 92 1058 92 l 1190 92 q 1208 88 1205 92 q 1212 69 1212 85 l 1212 25 q 1208 4 1212 8 q 1188 0 1205 0 l 749 0 q 728 4 735 0 q 722 24 722 8 l 722 69 q 728 88 722 84 q 748 92 734 92 l 850 92 q 869 99 869 92 q 865 118 869 107 l 809 268 q 795 297 801 290 q 757 303 789 303 l 369 303 q 339 298 347 303 q 324 277 331 293 l 259 125 q 255 100 252 108 q 280 92 258 92 l 380 92 q 398 88 393 92 q 403 70 403 84 l 403 23 q 399 3 403 6 q 379 0 396 0 l 36 0 q 8 4 15 0 q 0 31 0 8 "},"Å":{"ha":1212,"x_min":0,"x_max":1212,"o":"m 610 1163 q 542 1180 572 1163 q 495 1228 513 1198 q 478 1294 478 1258 q 495 1361 478 1331 q 542 1409 513 1391 q 610 1426 572 1426 q 678 1409 648 1426 q 725 1361 708 1391 q 742 1294 742 1331 q 724 1228 742 1258 q 677 1180 707 1198 q 610 1163 648 1163 m 610 1223 q 659 1243 640 1223 q 678 1294 678 1263 q 659 1347 678 1326 q 610 1368 640 1368 q 560 1347 579 1368 q 542 1294 542 1326 q 560 1243 542 1263 q 610 1223 579 1223 m 568 853 l 382 417 q 379 399 377 403 q 401 394 381 394 l 724 394 q 756 400 755 394 q 749 427 758 406 l 592 849 q 580 871 584 871 q 568 853 576 871 m 0 31 l 0 72 q 5 88 0 83 q 22 92 9 92 l 113 92 q 140 99 134 92 q 153 119 147 106 l 556 1053 q 563 1061 559 1060 q 575 1063 566 1063 l 652 1063 q 667 1060 663 1063 q 674 1051 671 1058 l 1043 124 q 1054 99 1050 107 q 1083 92 1058 92 l 1190 92 q 1208 88 1205 92 q 1212 69 1212 85 l 1212 25 q 1208 4 1212 8 q 1188 0 1205 0 l 749 0 q 728 4 735 0 q 722 24 722 8 l 722 69 q 728 88 722 84 q 748 92 734 92 l 850 92 q 869 99 869 92 q 865 118 869 107 l 809 268 q 795 297 801 290 q 757 303 789 303 l 369 303 q 339 298 347 303 q 324 277 331 293 l 259 125 q 255 100 252 108 q 280 92 258 92 l 380 92 q 398 88 393 92 q 403 70 403 84 l 403 23 q 399 3 403 6 q 379 0 396 0 l 36 0 q 8 4 15 0 q 0 31 0 8 "},"Ā":{"ha":1212,"x_min":0,"x_max":1212,"o":"m 443 1184 l 443 1217 q 445 1231 443 1226 q 457 1235 448 1235 l 753 1235 q 771 1232 766 1235 q 776 1214 776 1228 l 776 1183 q 774 1167 776 1172 q 761 1162 772 1162 l 467 1162 q 449 1166 454 1162 q 443 1184 443 1169 m 568 853 l 382 417 q 379 399 377 403 q 401 394 381 394 l 724 394 q 756 400 755 394 q 749 427 758 406 l 592 849 q 580 871 584 871 q 568 853 576 871 m 0 31 l 0 72 q 5 88 0 83 q 22 92 9 92 l 113 92 q 140 99 134 92 q 153 119 147 106 l 556 1053 q 563 1061 559 1060 q 575 1063 566 1063 l 652 1063 q 667 1060 663 1063 q 674 1051 671 1058 l 1043 124 q 1054 99 1050 107 q 1083 92 1058 92 l 1190 92 q 1208 88 1205 92 q 1212 69 1212 85 l 1212 25 q 1208 4 1212 8 q 1188 0 1205 0 l 749 0 q 728 4 735 0 q 722 24 722 8 l 722 69 q 728 88 722 84 q 748 92 734 92 l 850 92 q 869 99 869 92 q 865 118 869 107 l 809 268 q 795 297 801 290 q 757 303 789 303 l 369 303 q 339 298 347 303 q 324 277 331 293 l 259 125 q 255 100 252 108 q 280 92 258 92 l 380 92 q 398 88 393 92 q 403 70 403 84 l 403 23 q 399 3 403 6 q 379 0 396 0 l 36 0 q 8 4 15 0 q 0 31 0 8 "},"Ă":{"ha":1212,"x_min":0,"x_max":1212,"o":"m 610 1161 q 483 1209 518 1161 q 447 1337 448 1256 q 463 1350 447 1350 l 485 1350 q 498 1339 497 1350 q 530 1274 501 1296 q 610 1252 559 1252 q 687 1272 658 1252 q 722 1330 716 1291 q 724 1345 724 1340 q 737 1350 724 1350 l 761 1350 q 774 1347 772 1350 q 775 1333 776 1344 q 736 1208 772 1255 q 610 1161 700 1161 m 568 853 l 382 417 q 379 399 377 403 q 401 394 381 394 l 724 394 q 756 400 755 394 q 749 427 758 406 l 592 849 q 580 871 584 871 q 568 853 576 871 m 0 31 l 0 72 q 5 88 0 83 q 22 92 9 92 l 113 92 q 140 99 134 92 q 153 119 147 106 l 556 1053 q 563 1061 559 1060 q 575 1063 566 1063 l 652 1063 q 667 1060 663 1063 q 674 1051 671 1058 l 1043 124 q 1054 99 1050 107 q 1083 92 1058 92 l 1190 92 q 1208 88 1205 92 q 1212 69 1212 85 l 1212 25 q 1208 4 1212 8 q 1188 0 1205 0 l 749 0 q 728 4 735 0 q 722 24 722 8 l 722 69 q 728 88 722 84 q 748 92 734 92 l 850 92 q 869 99 869 92 q 865 118 869 107 l 809 268 q 795 297 801 290 q 757 303 789 303 l 369 303 q 339 298 347 303 q 324 277 331 293 l 259 125 q 255 100 252 108 q 280 92 258 92 l 380 92 q 398 88 393 92 q 403 70 403 84 l 403 23 q 399 3 403 6 q 379 0 396 0 l 36 0 q 8 4 15 0 q 0 31 0 8 "},"Ą":{"ha":1212,"x_min":0,"x_max":1212,"o":"m 962 -296 q 853 -272 899 -296 q 807 -187 807 -247 q 825 -127 807 -156 q 871 -72 843 -98 q 931 -23 899 -46 q 991 19 963 0 q 1013 27 1003 26 q 1027 23 1023 28 q 1031 9 1034 16 q 1020 -8 1028 1 q 987 -49 1004 -26 q 958 -97 969 -72 q 946 -151 946 -122 q 961 -198 946 -177 q 1011 -219 976 -219 q 1055 -207 1037 -219 q 1083 -179 1072 -195 q 1103 -174 1093 -166 l 1118 -185 q 1125 -194 1125 -190 q 1121 -205 1125 -197 q 1063 -269 1100 -243 q 962 -296 1026 -296 m 568 853 l 382 417 q 379 399 377 403 q 401 394 381 394 l 724 394 q 756 400 755 394 q 749 427 758 406 l 592 849 q 580 871 584 871 q 568 853 576 871 m 0 31 l 0 72 q 5 88 0 83 q 22 92 9 92 l 113 92 q 140 99 134 92 q 153 119 147 106 l 556 1053 q 563 1061 559 1060 q 575 1063 566 1063 l 652 1063 q 667 1060 663 1063 q 674 1051 671 1058 l 1043 124 q 1054 99 1050 107 q 1083 92 1058 92 l 1190 92 q 1208 88 1205 92 q 1212 69 1212 85 l 1212 25 q 1208 4 1212 8 q 1188 0 1205 0 l 749 0 q 728 4 735 0 q 722 24 722 8 l 722 69 q 728 88 722 84 q 748 92 734 92 l 850 92 q 869 99 869 92 q 865 118 869 107 l 809 268 q 795 297 801 290 q 757 303 789 303 l 369 303 q 339 298 347 303 q 324 277 331 293 l 259 125 q 255 100 252 108 q 280 92 258 92 l 380 92 q 398 88 393 92 q 403 70 403 84 l 403 23 q 399 3 403 6 q 379 0 396 0 l 36 0 q 8 4 15 0 q 0 31 0 8 "},"B":{"ha":1058,"x_min":49,"x_max":1006,"o":"m 613 92 q 721 116 673 92 q 798 186 769 140 q 826 297 826 232 q 797 405 826 361 q 719 470 767 448 q 613 492 671 492 l 395 492 q 368 485 374 492 q 362 456 362 478 l 362 120 q 368 97 362 102 q 394 92 375 92 l 613 92 m 397 584 l 597 584 q 694 603 649 584 q 767 663 739 622 q 796 768 796 703 q 768 873 796 833 q 694 932 740 913 q 597 950 649 950 l 388 950 q 366 943 371 950 q 362 919 362 937 l 362 614 q 368 589 362 593 q 397 584 375 584 m 629 0 l 78 0 q 56 4 62 0 q 49 26 49 8 l 49 69 q 55 88 49 85 q 75 92 61 92 l 174 92 q 196 96 190 92 q 202 116 202 101 l 202 922 q 197 945 202 941 q 172 950 191 950 l 78 950 q 55 954 60 950 q 49 975 49 958 l 49 1017 q 55 1037 49 1033 q 74 1042 60 1042 l 599 1042 q 793 1013 712 1042 q 918 924 874 983 q 962 773 962 864 q 920 629 962 683 q 799 552 879 575 q 784 541 784 547 q 799 531 785 535 q 951 448 897 506 q 1006 292 1006 390 q 961 123 1006 187 q 833 29 917 58 q 629 0 749 0 "},"C":{"ha":1133,"x_min":72,"x_max":1063,"o":"m 72 521 q 115 735 72 637 q 232 906 158 833 q 403 1018 306 978 q 608 1058 499 1058 q 780 1023 705 1058 q 906 935 854 988 q 924 925 918 924 q 938 946 930 926 l 965 1035 q 970 1046 968 1044 q 984 1049 973 1049 l 1030 1049 q 1044 1045 1041 1049 q 1047 1032 1047 1042 l 1047 701 q 1042 685 1047 689 q 1025 682 1038 682 l 967 682 q 951 687 953 682 q 947 703 949 692 q 892 830 935 770 q 779 926 849 889 q 617 963 709 963 q 423 905 503 963 q 302 747 344 847 q 260 521 260 647 q 299 295 260 395 q 415 138 338 196 q 607 81 492 81 q 789 125 712 81 q 910 242 865 170 q 964 394 954 313 q 969 406 966 403 q 983 410 973 410 l 1044 410 q 1058 408 1054 410 q 1061 397 1063 406 q 994 185 1052 278 q 834 38 936 92 q 591 -16 733 -16 q 382 24 477 -16 q 218 135 288 63 q 110 305 148 206 q 72 521 72 403 "},"Ç":{"ha":1133,"x_min":72,"x_max":1063,"o":"m 463 -350 l 463 -330 q 469 -315 463 -318 q 485 -311 474 -312 q 563 -293 527 -308 q 599 -246 599 -278 q 581 -204 599 -219 q 533 -183 562 -190 q 472 -174 503 -177 q 449 -168 452 -172 q 453 -154 447 -163 l 559 -11 q 565 -5 563 -6 q 576 -4 567 -4 l 615 -4 q 630 -7 631 -4 q 623 -18 628 -10 l 565 -96 q 558 -110 556 -108 q 578 -114 560 -112 q 672 -144 637 -119 q 708 -228 708 -169 q 688 -295 708 -268 q 635 -338 668 -322 q 561 -361 601 -354 q 481 -370 522 -369 q 463 -350 463 -371 m 72 521 q 115 735 72 637 q 232 906 158 833 q 403 1018 306 978 q 608 1058 499 1058 q 780 1023 705 1058 q 906 935 854 988 q 924 925 918 924 q 938 946 930 926 l 965 1035 q 970 1046 968 1044 q 984 1049 973 1049 l 1030 1049 q 1044 1045 1041 1049 q 1047 1032 1047 1042 l 1047 701 q 1042 685 1047 689 q 1025 682 1038 682 l 967 682 q 951 687 953 682 q 947 703 949 692 q 892 830 935 770 q 779 926 849 889 q 617 963 709 963 q 423 905 503 963 q 302 747 344 847 q 260 521 260 647 q 299 295 260 395 q 415 138 338 196 q 607 81 492 81 q 789 125 712 81 q 910 242 865 170 q 964 394 954 313 q 969 406 966 403 q 983 410 973 410 l 1044 410 q 1058 408 1054 410 q 1061 397 1063 406 q 994 185 1052 278 q 834 38 936 92 q 591 -16 733 -16 q 382 24 477 -16 q 218 135 288 63 q 110 305 148 206 q 72 521 72 403 "},"Ć":{"ha":1133,"x_min":72,"x_max":1063,"o":"m 572 1160 l 540 1192 q 540 1215 529 1204 l 680 1357 q 715 1375 694 1372 q 756 1372 735 1379 q 786 1347 776 1365 q 797 1292 806 1317 q 767 1254 789 1267 l 598 1157 q 584 1151 589 1151 q 572 1160 579 1151 m 72 521 q 115 735 72 637 q 232 906 158 833 q 403 1018 306 978 q 608 1058 499 1058 q 780 1023 705 1058 q 906 935 854 988 q 924 925 918 924 q 938 946 930 926 l 965 1035 q 970 1046 968 1044 q 984 1049 973 1049 l 1030 1049 q 1044 1045 1041 1049 q 1047 1032 1047 1042 l 1047 701 q 1042 685 1047 689 q 1025 682 1038 682 l 967 682 q 951 687 953 682 q 947 703 949 692 q 892 830 935 770 q 779 926 849 889 q 617 963 709 963 q 423 905 503 963 q 302 747 344 847 q 260 521 260 647 q 299 295 260 395 q 415 138 338 196 q 607 81 492 81 q 789 125 712 81 q 910 242 865 170 q 964 394 954 313 q 969 406 966 403 q 983 410 973 410 l 1044 410 q 1058 408 1054 410 q 1061 397 1063 406 q 994 185 1052 278 q 834 38 936 92 q 591 -16 733 -16 q 382 24 477 -16 q 218 135 288 63 q 110 305 148 206 q 72 521 72 403 "},"Ĉ":{"ha":1133,"x_min":72,"x_max":1063,"o":"m 428 1169 l 408 1190 q 400 1200 400 1197 q 408 1211 400 1203 l 538 1349 q 553 1358 546 1356 q 575 1360 560 1360 l 644 1360 q 664 1358 658 1360 q 676 1349 669 1355 l 809 1208 q 815 1201 815 1203 q 809 1193 815 1199 l 782 1166 q 772 1159 774 1158 q 760 1165 769 1159 l 624 1266 q 590 1267 606 1279 l 453 1165 q 428 1169 441 1156 m 72 521 q 115 735 72 637 q 232 906 158 833 q 403 1018 306 978 q 608 1058 499 1058 q 780 1023 705 1058 q 906 935 854 988 q 924 925 918 924 q 938 946 930 926 l 965 1035 q 970 1046 968 1044 q 984 1049 973 1049 l 1030 1049 q 1044 1045 1041 1049 q 1047 1032 1047 1042 l 1047 701 q 1042 685 1047 689 q 1025 682 1038 682 l 967 682 q 951 687 953 682 q 947 703 949 692 q 892 830 935 770 q 779 926 849 889 q 617 963 709 963 q 423 905 503 963 q 302 747 344 847 q 260 521 260 647 q 299 295 260 395 q 415 138 338 196 q 607 81 492 81 q 789 125 712 81 q 910 242 865 170 q 964 394 954 313 q 969 406 966 403 q 983 410 973 410 l 1044 410 q 1058 408 1054 410 q 1061 397 1063 406 q 994 185 1052 278 q 834 38 936 92 q 591 -16 733 -16 q 382 24 477 -16 q 218 135 288 63 q 110 305 148 206 q 72 521 72 403 "},"Ċ":{"ha":1133,"x_min":72,"x_max":1063,"o":"m 609 1201 q 545 1228 572 1201 q 519 1292 519 1255 q 545 1356 519 1329 q 609 1382 572 1382 q 673 1356 647 1382 q 699 1292 699 1329 q 673 1228 699 1255 q 609 1201 647 1201 m 72 521 q 115 735 72 637 q 232 906 158 833 q 403 1018 306 978 q 608 1058 499 1058 q 780 1023 705 1058 q 906 935 854 988 q 924 925 918 924 q 938 946 930 926 l 965 1035 q 970 1046 968 1044 q 984 1049 973 1049 l 1030 1049 q 1044 1045 1041 1049 q 1047 1032 1047 1042 l 1047 701 q 1042 685 1047 689 q 1025 682 1038 682 l 967 682 q 951 687 953 682 q 947 703 949 692 q 892 830 935 770 q 779 926 849 889 q 617 963 709 963 q 423 905 503 963 q 302 747 344 847 q 260 521 260 647 q 299 295 260 395 q 415 138 338 196 q 607 81 492 81 q 789 125 712 81 q 910 242 865 170 q 964 394 954 313 q 969 406 966 403 q 983 410 973 410 l 1044 410 q 1058 408 1054 410 q 1061 397 1063 406 q 994 185 1052 278 q 834 38 936 92 q 591 -16 733 -16 q 382 24 477 -16 q 218 135 288 63 q 110 305 148 206 q 72 521 72 403 "},"Č":{"ha":1133,"x_min":72,"x_max":1063,"o":"m 528 1189 l 411 1313 q 402 1327 403 1322 q 410 1340 401 1333 l 428 1356 q 443 1363 438 1364 q 460 1354 448 1362 l 572 1279 q 606 1266 591 1267 q 640 1279 622 1266 l 758 1363 q 774 1368 769 1370 q 788 1357 779 1366 l 801 1345 q 811 1331 810 1336 q 804 1316 813 1326 l 680 1185 q 667 1173 672 1177 q 645 1169 661 1169 l 579 1169 q 548 1174 559 1169 q 528 1189 538 1180 m 72 521 q 115 735 72 637 q 232 906 158 833 q 403 1018 306 978 q 608 1058 499 1058 q 780 1023 705 1058 q 906 935 854 988 q 924 925 918 924 q 938 946 930 926 l 965 1035 q 970 1046 968 1044 q 984 1049 973 1049 l 1030 1049 q 1044 1045 1041 1049 q 1047 1032 1047 1042 l 1047 701 q 1042 685 1047 689 q 1025 682 1038 682 l 967 682 q 951 687 953 682 q 947 703 949 692 q 892 830 935 770 q 779 926 849 889 q 617 963 709 963 q 423 905 503 963 q 302 747 344 847 q 260 521 260 647 q 299 295 260 395 q 415 138 338 196 q 607 81 492 81 q 789 125 712 81 q 910 242 865 170 q 964 394 954 313 q 969 406 966 403 q 983 410 973 410 l 1044 410 q 1058 408 1054 410 q 1061 397 1063 406 q 994 185 1052 278 q 834 38 936 92 q 591 -16 733 -16 q 382 24 477 -16 q 218 135 288 63 q 110 305 148 206 q 72 521 72 403 "},"D":{"ha":1161,"x_min":49,"x_max":1089,"o":"m 49 24 l 49 65 q 54 87 49 82 q 74 92 58 92 l 181 92 q 199 98 197 92 q 202 120 202 104 l 202 919 q 199 943 202 937 q 177 950 196 950 l 88 950 q 58 954 67 950 q 49 976 49 958 l 49 1019 q 60 1038 49 1034 q 88 1042 71 1042 l 575 1042 q 795 1002 699 1042 q 956 892 891 963 q 1055 727 1022 822 q 1089 521 1089 632 q 1053 315 1089 410 q 951 149 1018 220 q 789 39 884 78 q 575 0 694 0 l 75 0 q 55 4 60 0 q 49 24 49 8 m 392 92 l 574 92 q 766 147 694 92 q 869 300 838 203 q 901 521 901 397 q 866 742 901 645 q 760 894 832 839 q 574 950 688 950 l 393 950 q 367 944 373 950 q 362 918 362 939 l 362 117 q 368 95 362 99 q 392 92 374 92 "},"Ď":{"ha":1161,"x_min":49,"x_max":1089,"o":"m 421 1189 l 304 1313 q 295 1327 296 1322 q 303 1340 294 1333 l 321 1356 q 336 1363 331 1364 q 353 1354 341 1362 l 465 1279 q 499 1266 484 1267 q 533 1279 515 1266 l 651 1363 q 667 1368 662 1370 q 681 1357 672 1366 l 694 1345 q 705 1331 703 1336 q 697 1316 706 1326 l 573 1185 q 560 1173 565 1177 q 538 1169 554 1169 l 472 1169 q 441 1174 452 1169 q 421 1189 431 1180 m 49 24 l 49 65 q 54 87 49 82 q 74 92 58 92 l 181 92 q 199 98 197 92 q 202 120 202 104 l 202 919 q 199 943 202 937 q 177 950 196 950 l 88 950 q 58 954 67 950 q 49 976 49 958 l 49 1019 q 60 1038 49 1034 q 88 1042 71 1042 l 575 1042 q 795 1002 699 1042 q 956 892 891 963 q 1055 727 1022 822 q 1089 521 1089 632 q 1053 315 1089 410 q 951 149 1018 220 q 789 39 884 78 q 575 0 694 0 l 75 0 q 55 4 60 0 q 49 24 49 8 m 392 92 l 574 92 q 766 147 694 92 q 869 300 838 203 q 901 521 901 397 q 866 742 901 645 q 760 894 832 839 q 574 950 688 950 l 393 950 q 367 944 373 950 q 362 918 362 939 l 362 117 q 368 95 362 99 q 392 92 374 92 "},"E":{"ha":1068,"x_min":49,"x_max":983,"o":"m 169 950 l 76 950 q 53 956 58 950 q 49 979 49 963 l 49 1015 q 54 1036 49 1031 q 76 1042 59 1042 l 933 1042 q 963 1037 956 1042 q 969 1008 969 1032 l 969 731 q 968 709 969 714 q 949 703 967 703 l 906 703 q 888 710 891 703 q 884 730 885 717 q 863 861 882 813 q 799 930 843 909 q 678 950 755 950 l 394 950 q 368 945 374 950 q 362 919 362 940 l 362 603 q 365 578 362 586 q 385 571 369 571 l 467 571 q 584 609 547 571 q 628 706 622 647 q 633 726 629 721 q 647 731 636 731 l 678 731 q 696 726 691 731 q 701 708 701 721 l 701 365 q 698 342 701 348 q 678 337 694 337 l 648 337 q 634 341 640 337 q 627 362 629 346 q 606 433 624 401 q 553 484 588 465 q 468 503 519 503 l 389 503 q 367 497 372 503 q 362 471 362 490 l 362 122 q 367 97 362 102 q 393 92 372 92 l 664 92 q 805 114 755 92 q 875 191 855 137 q 898 343 896 246 q 901 363 898 358 q 917 368 905 368 l 956 368 q 977 364 971 368 q 983 345 983 360 l 983 24 q 978 4 983 8 q 959 0 974 0 l 78 0 q 56 4 63 0 q 49 25 49 8 l 49 72 q 55 89 49 87 q 74 92 60 92 l 166 92 q 197 98 191 92 q 202 129 202 104 l 202 921 q 196 946 202 942 q 169 950 190 950 "},"È":{"ha":1068,"x_min":49,"x_max":983,"o":"m 570 1154 l 397 1254 q 366 1292 375 1267 q 376 1347 358 1317 q 408 1372 388 1365 q 449 1375 428 1379 q 483 1357 469 1372 l 622 1216 q 622 1191 634 1203 l 591 1158 q 582 1151 585 1152 q 570 1154 578 1149 m 169 950 l 76 950 q 53 956 58 950 q 49 979 49 963 l 49 1015 q 54 1036 49 1031 q 76 1042 59 1042 l 933 1042 q 963 1037 956 1042 q 969 1008 969 1032 l 969 731 q 968 709 969 714 q 949 703 967 703 l 906 703 q 888 710 891 703 q 884 730 885 717 q 863 861 882 813 q 799 930 843 909 q 678 950 755 950 l 394 950 q 368 945 374 950 q 362 919 362 940 l 362 603 q 365 578 362 586 q 385 571 369 571 l 467 571 q 584 609 547 571 q 628 706 622 647 q 633 726 629 721 q 647 731 636 731 l 678 731 q 696 726 691 731 q 701 708 701 721 l 701 365 q 698 342 701 348 q 678 337 694 337 l 648 337 q 634 341 640 337 q 627 362 629 346 q 606 433 624 401 q 553 484 588 465 q 468 503 519 503 l 389 503 q 367 497 372 503 q 362 471 362 490 l 362 122 q 367 97 362 102 q 393 92 372 92 l 664 92 q 805 114 755 92 q 875 191 855 137 q 898 343 896 246 q 901 363 898 358 q 917 368 905 368 l 956 368 q 977 364 971 368 q 983 345 983 360 l 983 24 q 978 4 983 8 q 959 0 974 0 l 78 0 q 56 4 63 0 q 49 25 49 8 l 49 72 q 55 89 49 87 q 74 92 60 92 l 166 92 q 197 98 191 92 q 202 129 202 104 l 202 921 q 196 946 202 942 q 169 950 190 950 "},"É":{"ha":1068,"x_min":49,"x_max":983,"o":"m 522 1160 l 490 1192 q 490 1215 479 1204 l 630 1357 q 665 1375 644 1372 q 706 1372 685 1379 q 736 1347 726 1365 q 747 1292 756 1317 q 717 1254 739 1267 l 548 1157 q 534 1151 539 1151 q 522 1160 529 1151 m 169 950 l 76 950 q 53 956 58 950 q 49 979 49 963 l 49 1015 q 54 1036 49 1031 q 76 1042 59 1042 l 933 1042 q 963 1037 956 1042 q 969 1008 969 1032 l 969 731 q 968 709 969 714 q 949 703 967 703 l 906 703 q 888 710 891 703 q 884 730 885 717 q 863 861 882 813 q 799 930 843 909 q 678 950 755 950 l 394 950 q 368 945 374 950 q 362 919 362 940 l 362 603 q 365 578 362 586 q 385 571 369 571 l 467 571 q 584 609 547 571 q 628 706 622 647 q 633 726 629 721 q 647 731 636 731 l 678 731 q 696 726 691 731 q 701 708 701 721 l 701 365 q 698 342 701 348 q 678 337 694 337 l 648 337 q 634 341 640 337 q 627 362 629 346 q 606 433 624 401 q 553 484 588 465 q 468 503 519 503 l 389 503 q 367 497 372 503 q 362 471 362 490 l 362 122 q 367 97 362 102 q 393 92 372 92 l 664 92 q 805 114 755 92 q 875 191 855 137 q 898 343 896 246 q 901 363 898 358 q 917 368 905 368 l 956 368 q 977 364 971 368 q 983 345 983 360 l 983 24 q 978 4 983 8 q 959 0 974 0 l 78 0 q 56 4 63 0 q 49 25 49 8 l 49 72 q 55 89 49 87 q 74 92 60 92 l 166 92 q 197 98 191 92 q 202 129 202 104 l 202 921 q 196 946 202 942 q 169 950 190 950 "},"Ê":{"ha":1068,"x_min":49,"x_max":983,"o":"m 378 1169 l 358 1190 q 350 1200 350 1197 q 358 1211 350 1203 l 488 1349 q 503 1358 496 1356 q 525 1360 510 1360 l 594 1360 q 614 1358 608 1360 q 626 1349 619 1355 l 759 1208 q 765 1201 765 1203 q 759 1193 765 1199 l 732 1166 q 722 1159 724 1158 q 710 1165 719 1159 l 574 1266 q 540 1267 556 1279 l 403 1165 q 378 1169 391 1156 m 169 950 l 76 950 q 53 956 58 950 q 49 979 49 963 l 49 1015 q 54 1036 49 1031 q 76 1042 59 1042 l 933 1042 q 963 1037 956 1042 q 969 1008 969 1032 l 969 731 q 968 709 969 714 q 949 703 967 703 l 906 703 q 888 710 891 703 q 884 730 885 717 q 863 861 882 813 q 799 930 843 909 q 678 950 755 950 l 394 950 q 368 945 374 950 q 362 919 362 940 l 362 603 q 365 578 362 586 q 385 571 369 571 l 467 571 q 584 609 547 571 q 628 706 622 647 q 633 726 629 721 q 647 731 636 731 l 678 731 q 696 726 691 731 q 701 708 701 721 l 701 365 q 698 342 701 348 q 678 337 694 337 l 648 337 q 634 341 640 337 q 627 362 629 346 q 606 433 624 401 q 553 484 588 465 q 468 503 519 503 l 389 503 q 367 497 372 503 q 362 471 362 490 l 362 122 q 367 97 362 102 q 393 92 372 92 l 664 92 q 805 114 755 92 q 875 191 855 137 q 898 343 896 246 q 901 363 898 358 q 917 368 905 368 l 956 368 q 977 364 971 368 q 983 345 983 360 l 983 24 q 978 4 983 8 q 959 0 974 0 l 78 0 q 56 4 63 0 q 49 25 49 8 l 49 72 q 55 89 49 87 q 74 92 60 92 l 166 92 q 197 98 191 92 q 202 129 202 104 l 202 921 q 196 946 202 942 q 169 950 190 950 "},"Ë":{"ha":1068,"x_min":49,"x_max":983,"o":"m 678 1174 q 624 1196 647 1174 q 602 1250 602 1218 q 624 1304 602 1281 q 678 1326 647 1326 q 732 1304 710 1326 q 754 1250 754 1281 q 732 1196 754 1218 q 678 1174 710 1174 m 433 1174 q 379 1196 401 1174 q 357 1250 357 1218 q 379 1304 357 1281 q 433 1326 401 1326 q 487 1304 465 1326 q 509 1250 509 1281 q 487 1196 509 1218 q 433 1174 465 1174 m 169 950 l 76 950 q 53 956 58 950 q 49 979 49 963 l 49 1015 q 54 1036 49 1031 q 76 1042 59 1042 l 933 1042 q 963 1037 956 1042 q 969 1008 969 1032 l 969 731 q 968 709 969 714 q 949 703 967 703 l 906 703 q 888 710 891 703 q 884 730 885 717 q 863 861 882 813 q 799 930 843 909 q 678 950 755 950 l 394 950 q 368 945 374 950 q 362 919 362 940 l 362 603 q 365 578 362 586 q 385 571 369 571 l 467 571 q 584 609 547 571 q 628 706 622 647 q 633 726 629 721 q 647 731 636 731 l 678 731 q 696 726 691 731 q 701 708 701 721 l 701 365 q 698 342 701 348 q 678 337 694 337 l 648 337 q 634 341 640 337 q 627 362 629 346 q 606 433 624 401 q 553 484 588 465 q 468 503 519 503 l 389 503 q 367 497 372 503 q 362 471 362 490 l 362 122 q 367 97 362 102 q 393 92 372 92 l 664 92 q 805 114 755 92 q 875 191 855 137 q 898 343 896 246 q 901 363 898 358 q 917 368 905 368 l 956 368 q 977 364 971 368 q 983 345 983 360 l 983 24 q 978 4 983 8 q 959 0 974 0 l 78 0 q 56 4 63 0 q 49 25 49 8 l 49 72 q 55 89 49 87 q 74 92 60 92 l 166 92 q 197 98 191 92 q 202 129 202 104 l 202 921 q 196 946 202 942 q 169 950 190 950 "},"Ē":{"ha":1068,"x_min":49,"x_max":983,"o":"m 390 1184 l 390 1217 q 392 1231 390 1226 q 403 1235 394 1235 l 699 1235 q 718 1232 713 1235 q 723 1214 723 1228 l 723 1183 q 721 1167 723 1172 q 708 1162 719 1162 l 414 1162 q 395 1166 401 1162 q 390 1184 390 1169 m 169 950 l 76 950 q 53 956 58 950 q 49 979 49 963 l 49 1015 q 54 1036 49 1031 q 76 1042 59 1042 l 933 1042 q 963 1037 956 1042 q 969 1008 969 1032 l 969 731 q 968 709 969 714 q 949 703 967 703 l 906 703 q 888 710 891 703 q 884 730 885 717 q 863 861 882 813 q 799 930 843 909 q 678 950 755 950 l 394 950 q 368 945 374 950 q 362 919 362 940 l 362 603 q 365 578 362 586 q 385 571 369 571 l 467 571 q 584 609 547 571 q 628 706 622 647 q 633 726 629 721 q 647 731 636 731 l 678 731 q 696 726 691 731 q 701 708 701 721 l 701 365 q 698 342 701 348 q 678 337 694 337 l 648 337 q 634 341 640 337 q 627 362 629 346 q 606 433 624 401 q 553 484 588 465 q 468 503 519 503 l 389 503 q 367 497 372 503 q 362 471 362 490 l 362 122 q 367 97 362 102 q 393 92 372 92 l 664 92 q 805 114 755 92 q 875 191 855 137 q 898 343 896 246 q 901 363 898 358 q 917 368 905 368 l 956 368 q 977 364 971 368 q 983 345 983 360 l 983 24 q 978 4 983 8 q 959 0 974 0 l 78 0 q 56 4 63 0 q 49 25 49 8 l 49 72 q 55 89 49 87 q 74 92 60 92 l 166 92 q 197 98 191 92 q 202 129 202 104 l 202 921 q 196 946 202 942 q 169 950 190 950 "},"Ĕ":{"ha":1068,"x_min":49,"x_max":983,"o":"m 556 1161 q 430 1209 465 1161 q 393 1337 394 1256 q 409 1350 393 1350 l 432 1350 q 444 1339 444 1350 q 477 1274 448 1296 q 556 1252 506 1252 q 633 1272 604 1252 q 669 1330 663 1291 q 670 1345 670 1340 q 683 1350 671 1350 l 708 1350 q 720 1347 719 1350 q 722 1333 722 1344 q 683 1208 719 1255 q 556 1161 647 1161 m 169 950 l 76 950 q 53 956 58 950 q 49 979 49 963 l 49 1015 q 54 1036 49 1031 q 76 1042 59 1042 l 933 1042 q 963 1037 956 1042 q 969 1008 969 1032 l 969 731 q 968 709 969 714 q 949 703 967 703 l 906 703 q 888 710 891 703 q 884 730 885 717 q 863 861 882 813 q 799 930 843 909 q 678 950 755 950 l 394 950 q 368 945 374 950 q 362 919 362 940 l 362 603 q 365 578 362 586 q 385 571 369 571 l 467 571 q 584 609 547 571 q 628 706 622 647 q 633 726 629 721 q 647 731 636 731 l 678 731 q 696 726 691 731 q 701 708 701 721 l 701 365 q 698 342 701 348 q 678 337 694 337 l 648 337 q 634 341 640 337 q 627 362 629 346 q 606 433 624 401 q 553 484 588 465 q 468 503 519 503 l 389 503 q 367 497 372 503 q 362 471 362 490 l 362 122 q 367 97 362 102 q 393 92 372 92 l 664 92 q 805 114 755 92 q 875 191 855 137 q 898 343 896 246 q 901 363 898 358 q 917 368 905 368 l 956 368 q 977 364 971 368 q 983 345 983 360 l 983 24 q 978 4 983 8 q 959 0 974 0 l 78 0 q 56 4 63 0 q 49 25 49 8 l 49 72 q 55 89 49 87 q 74 92 60 92 l 166 92 q 197 98 191 92 q 202 129 202 104 l 202 921 q 196 946 202 942 q 169 950 190 950 "},"Ė":{"ha":1068,"x_min":49,"x_max":983,"o":"m 559 1201 q 495 1228 522 1201 q 469 1292 469 1255 q 495 1356 469 1329 q 559 1382 522 1382 q 623 1356 597 1382 q 649 1292 649 1329 q 623 1228 649 1255 q 559 1201 597 1201 m 169 950 l 76 950 q 53 956 58 950 q 49 979 49 963 l 49 1015 q 54 1036 49 1031 q 76 1042 59 1042 l 933 1042 q 963 1037 956 1042 q 969 1008 969 1032 l 969 731 q 968 709 969 714 q 949 703 967 703 l 906 703 q 888 710 891 703 q 884 730 885 717 q 863 861 882 813 q 799 930 843 909 q 678 950 755 950 l 394 950 q 368 945 374 950 q 362 919 362 940 l 362 603 q 365 578 362 586 q 385 571 369 571 l 467 571 q 584 609 547 571 q 628 706 622 647 q 633 726 629 721 q 647 731 636 731 l 678 731 q 696 726 691 731 q 701 708 701 721 l 701 365 q 698 342 701 348 q 678 337 694 337 l 648 337 q 634 341 640 337 q 627 362 629 346 q 606 433 624 401 q 553 484 588 465 q 468 503 519 503 l 389 503 q 367 497 372 503 q 362 471 362 490 l 362 122 q 367 97 362 102 q 393 92 372 92 l 664 92 q 805 114 755 92 q 875 191 855 137 q 898 343 896 246 q 901 363 898 358 q 917 368 905 368 l 956 368 q 977 364 971 368 q 983 345 983 360 l 983 24 q 978 4 983 8 q 959 0 974 0 l 78 0 q 56 4 63 0 q 49 25 49 8 l 49 72 q 55 89 49 87 q 74 92 60 92 l 166 92 q 197 98 191 92 q 202 129 202 104 l 202 921 q 196 946 202 942 q 169 950 190 950 "},"Ę":{"ha":1068,"x_min":49,"x_max":1006,"o":"m 842 -291 q 734 -267 780 -291 q 688 -183 688 -242 q 706 -122 688 -151 q 752 -67 724 -93 q 812 -18 780 -41 q 872 24 844 5 q 893 32 883 31 q 908 28 903 33 q 912 14 915 21 q 901 -3 909 6 q 867 -44 885 -22 q 838 -92 850 -67 q 826 -146 826 -117 q 842 -193 826 -172 q 892 -215 857 -215 q 935 -202 917 -215 q 964 -174 953 -190 q 984 -169 974 -161 l 999 -181 q 1006 -189 1006 -185 q 1001 -200 1006 -192 q 944 -265 981 -238 q 842 -291 907 -291 m 169 950 l 76 950 q 53 956 58 950 q 49 979 49 963 l 49 1015 q 54 1036 49 1031 q 76 1042 59 1042 l 933 1042 q 963 1037 956 1042 q 969 1008 969 1032 l 969 731 q 968 709 969 714 q 949 703 967 703 l 906 703 q 888 710 891 703 q 884 730 885 717 q 863 861 882 813 q 799 930 843 909 q 678 950 755 950 l 394 950 q 368 945 374 950 q 362 919 362 940 l 362 603 q 365 578 362 586 q 385 571 369 571 l 467 571 q 584 609 547 571 q 628 706 622 647 q 633 726 629 721 q 647 731 636 731 l 678 731 q 696 726 691 731 q 701 708 701 721 l 701 365 q 698 342 701 348 q 678 337 694 337 l 648 337 q 634 341 640 337 q 627 362 629 346 q 606 433 624 401 q 553 484 588 465 q 468 503 519 503 l 389 503 q 367 497 372 503 q 362 471 362 490 l 362 122 q 367 97 362 102 q 393 92 372 92 l 664 92 q 805 114 755 92 q 875 191 855 137 q 898 343 896 246 q 901 363 898 358 q 917 368 905 368 l 956 368 q 977 364 971 368 q 983 345 983 360 l 983 24 q 978 4 983 8 q 959 0 974 0 l 78 0 q 56 4 63 0 q 49 25 49 8 l 49 72 q 55 89 49 87 q 74 92 60 92 l 166 92 q 197 98 191 92 q 202 129 202 104 l 202 921 q 196 946 202 942 q 169 950 190 950 "},"Ě":{"ha":1068,"x_min":49,"x_max":983,"o":"m 478 1189 l 361 1313 q 352 1327 353 1322 q 360 1340 351 1333 l 378 1356 q 393 1363 388 1364 q 410 1354 398 1362 l 522 1279 q 556 1266 541 1267 q 590 1279 572 1266 l 708 1363 q 724 1368 719 1370 q 738 1357 729 1366 l 751 1345 q 761 1331 760 1336 q 754 1316 763 1326 l 630 1185 q 617 1173 622 1177 q 595 1169 611 1169 l 529 1169 q 498 1174 509 1169 q 478 1189 488 1180 m 169 950 l 76 950 q 53 956 58 950 q 49 979 49 963 l 49 1015 q 54 1036 49 1031 q 76 1042 59 1042 l 933 1042 q 963 1037 956 1042 q 969 1008 969 1032 l 969 731 q 968 709 969 714 q 949 703 967 703 l 906 703 q 888 710 891 703 q 884 730 885 717 q 863 861 882 813 q 799 930 843 909 q 678 950 755 950 l 394 950 q 368 945 374 950 q 362 919 362 940 l 362 603 q 365 578 362 586 q 385 571 369 571 l 467 571 q 584 609 547 571 q 628 706 622 647 q 633 726 629 721 q 647 731 636 731 l 678 731 q 696 726 691 731 q 701 708 701 721 l 701 365 q 698 342 701 348 q 678 337 694 337 l 648 337 q 634 341 640 337 q 627 362 629 346 q 606 433 624 401 q 553 484 588 465 q 468 503 519 503 l 389 503 q 367 497 372 503 q 362 471 362 490 l 362 122 q 367 97 362 102 q 393 92 372 92 l 664 92 q 805 114 755 92 q 875 191 855 137 q 898 343 896 246 q 901 363 898 358 q 917 368 905 368 l 956 368 q 977 364 971 368 q 983 345 983 360 l 983 24 q 978 4 983 8 q 959 0 974 0 l 78 0 q 56 4 63 0 q 49 25 49 8 l 49 72 q 55 89 49 87 q 74 92 60 92 l 166 92 q 197 98 191 92 q 202 129 202 104 l 202 921 q 196 946 202 942 q 169 950 190 950 "},"F":{"ha":1021,"x_min":49,"x_max":955,"o":"m 182 950 l 67 950 q 53 953 56 950 q 49 966 49 956 l 49 1028 q 52 1039 49 1036 q 62 1042 54 1042 l 937 1042 q 952 1038 949 1042 q 955 1020 955 1033 l 955 717 q 950 704 955 706 q 935 701 945 701 l 886 701 q 873 705 875 701 q 870 719 870 708 q 851 857 869 807 q 788 929 832 908 q 664 950 743 950 l 386 950 q 367 943 372 950 q 362 924 362 937 l 362 582 q 366 562 362 567 q 386 557 370 557 l 476 557 q 592 589 553 557 q 638 678 631 621 q 639 698 639 692 q 655 704 639 704 l 690 704 q 707 702 702 704 q 711 688 711 699 l 711 340 q 709 326 711 331 q 697 321 707 321 l 654 321 q 641 324 643 321 q 639 338 640 328 q 597 439 635 401 q 476 476 558 476 l 381 476 q 365 470 367 476 q 362 452 362 465 l 362 120 q 366 98 362 103 q 389 92 371 92 l 510 92 q 526 90 521 92 q 531 76 531 88 l 531 22 q 525 4 531 8 q 506 0 519 0 l 69 0 q 53 2 57 0 q 49 15 49 4 l 49 78 q 55 90 49 88 q 69 92 60 92 l 182 92 q 199 97 195 92 q 202 115 202 101 l 202 928 q 199 946 202 942 q 182 950 196 950 "},"G":{"ha":1223,"x_min":72,"x_max":1203,"o":"m 743 526 l 1169 526 q 1197 520 1190 526 q 1203 493 1203 515 l 1203 445 q 1198 426 1203 430 q 1177 422 1193 422 l 1088 422 q 1068 417 1072 422 q 1064 396 1064 412 l 1064 320 q 1063 288 1064 302 q 1058 260 1063 273 q 1009 166 1044 215 q 916 77 974 118 q 777 10 858 35 q 591 -16 697 -16 q 385 24 480 -16 q 220 135 291 63 q 111 305 150 206 q 72 521 72 403 q 115 735 72 637 q 231 906 157 833 q 401 1018 305 978 q 606 1058 498 1058 q 784 1027 708 1058 q 911 944 859 997 q 929 935 924 933 q 941 954 935 938 l 965 1019 q 973 1035 968 1028 q 987 1042 977 1042 l 1028 1042 q 1043 1038 1038 1042 q 1049 1024 1049 1034 l 1049 717 q 1045 695 1049 705 q 1029 685 1042 685 l 981 685 q 957 691 962 685 q 950 712 953 696 q 903 836 938 778 q 800 930 868 894 q 619 966 732 966 q 430 907 511 966 q 305 747 349 848 q 260 521 260 647 q 298 294 260 395 q 411 134 336 193 q 596 74 485 74 q 738 100 679 74 q 832 164 796 125 q 885 243 869 203 q 891 262 889 253 q 893 285 893 271 l 893 398 q 886 418 893 415 q 865 422 879 422 l 744 422 q 721 426 726 422 q 715 449 715 431 l 715 498 q 721 521 715 516 q 743 526 726 526 "},"Ĝ":{"ha":1223,"x_min":72,"x_max":1203,"o":"m 428 1169 l 408 1190 q 400 1200 400 1197 q 408 1211 400 1203 l 538 1349 q 553 1358 546 1356 q 575 1360 560 1360 l 644 1360 q 664 1358 658 1360 q 676 1349 669 1355 l 809 1208 q 815 1201 815 1203 q 809 1193 815 1199 l 782 1166 q 772 1159 774 1158 q 760 1165 769 1159 l 624 1266 q 590 1267 606 1279 l 453 1165 q 428 1169 441 1156 m 743 526 l 1169 526 q 1197 520 1190 526 q 1203 493 1203 515 l 1203 445 q 1198 426 1203 430 q 1177 422 1193 422 l 1088 422 q 1068 417 1072 422 q 1064 396 1064 412 l 1064 320 q 1063 288 1064 302 q 1058 260 1063 273 q 1009 166 1044 215 q 916 77 974 118 q 777 10 858 35 q 591 -16 697 -16 q 385 24 480 -16 q 220 135 291 63 q 111 305 150 206 q 72 521 72 403 q 115 735 72 637 q 231 906 157 833 q 401 1018 305 978 q 606 1058 498 1058 q 784 1027 708 1058 q 911 944 859 997 q 929 935 924 933 q 941 954 935 938 l 965 1019 q 973 1035 968 1028 q 987 1042 977 1042 l 1028 1042 q 1043 1038 1038 1042 q 1049 1024 1049 1034 l 1049 717 q 1045 695 1049 705 q 1029 685 1042 685 l 981 685 q 957 691 962 685 q 950 712 953 696 q 903 836 938 778 q 800 930 868 894 q 619 966 732 966 q 430 907 511 966 q 305 747 349 848 q 260 521 260 647 q 298 294 260 395 q 411 134 336 193 q 596 74 485 74 q 738 100 679 74 q 832 164 796 125 q 885 243 869 203 q 891 262 889 253 q 893 285 893 271 l 893 398 q 886 418 893 415 q 865 422 879 422 l 744 422 q 721 426 726 422 q 715 449 715 431 l 715 498 q 721 521 715 516 q 743 526 726 526 "},"Ğ":{"ha":1223,"x_min":72,"x_max":1203,"o":"m 606 1161 q 480 1209 515 1161 q 443 1337 444 1256 q 459 1350 443 1350 l 482 1350 q 494 1339 494 1350 q 527 1274 498 1296 q 606 1252 556 1252 q 683 1272 654 1252 q 719 1330 713 1291 q 720 1345 720 1340 q 733 1350 721 1350 l 758 1350 q 770 1347 769 1350 q 772 1333 772 1344 q 733 1208 769 1255 q 606 1161 697 1161 m 743 526 l 1169 526 q 1197 520 1190 526 q 1203 493 1203 515 l 1203 445 q 1198 426 1203 430 q 1177 422 1193 422 l 1088 422 q 1068 417 1072 422 q 1064 396 1064 412 l 1064 320 q 1063 288 1064 302 q 1058 260 1063 273 q 1009 166 1044 215 q 916 77 974 118 q 777 10 858 35 q 591 -16 697 -16 q 385 24 480 -16 q 220 135 291 63 q 111 305 150 206 q 72 521 72 403 q 115 735 72 637 q 231 906 157 833 q 401 1018 305 978 q 606 1058 498 1058 q 784 1027 708 1058 q 911 944 859 997 q 929 935 924 933 q 941 954 935 938 l 965 1019 q 973 1035 968 1028 q 987 1042 977 1042 l 1028 1042 q 1043 1038 1038 1042 q 1049 1024 1049 1034 l 1049 717 q 1045 695 1049 705 q 1029 685 1042 685 l 981 685 q 957 691 962 685 q 950 712 953 696 q 903 836 938 778 q 800 930 868 894 q 619 966 732 966 q 430 907 511 966 q 305 747 349 848 q 260 521 260 647 q 298 294 260 395 q 411 134 336 193 q 596 74 485 74 q 738 100 679 74 q 832 164 796 125 q 885 243 869 203 q 891 262 889 253 q 893 285 893 271 l 893 398 q 886 418 893 415 q 865 422 879 422 l 744 422 q 721 426 726 422 q 715 449 715 431 l 715 498 q 721 521 715 516 q 743 526 726 526 "},"Ġ":{"ha":1223,"x_min":72,"x_max":1203,"o":"m 609 1201 q 545 1228 572 1201 q 519 1292 519 1255 q 545 1356 519 1329 q 609 1382 572 1382 q 673 1356 647 1382 q 699 1292 699 1329 q 673 1228 699 1255 q 609 1201 647 1201 m 743 526 l 1169 526 q 1197 520 1190 526 q 1203 493 1203 515 l 1203 445 q 1198 426 1203 430 q 1177 422 1193 422 l 1088 422 q 1068 417 1072 422 q 1064 396 1064 412 l 1064 320 q 1063 288 1064 302 q 1058 260 1063 273 q 1009 166 1044 215 q 916 77 974 118 q 777 10 858 35 q 591 -16 697 -16 q 385 24 480 -16 q 220 135 291 63 q 111 305 150 206 q 72 521 72 403 q 115 735 72 637 q 231 906 157 833 q 401 1018 305 978 q 606 1058 498 1058 q 784 1027 708 1058 q 911 944 859 997 q 929 935 924 933 q 941 954 935 938 l 965 1019 q 973 1035 968 1028 q 987 1042 977 1042 l 1028 1042 q 1043 1038 1038 1042 q 1049 1024 1049 1034 l 1049 717 q 1045 695 1049 705 q 1029 685 1042 685 l 981 685 q 957 691 962 685 q 950 712 953 696 q 903 836 938 778 q 800 930 868 894 q 619 966 732 966 q 430 907 511 966 q 305 747 349 848 q 260 521 260 647 q 298 294 260 395 q 411 134 336 193 q 596 74 485 74 q 738 100 679 74 q 832 164 796 125 q 885 243 869 203 q 891 262 889 253 q 893 285 893 271 l 893 398 q 886 418 893 415 q 865 422 879 422 l 744 422 q 721 426 726 422 q 715 449 715 431 l 715 498 q 721 521 715 516 q 743 526 726 526 "},"Ģ":{"ha":1223,"x_min":72,"x_max":1203,"o":"m 503 -211 q 528 -157 503 -178 q 588 -135 553 -135 q 651 -166 626 -135 q 676 -261 676 -196 q 665 -325 676 -293 q 633 -384 654 -357 q 583 -430 612 -412 q 518 -452 553 -448 q 508 -451 511 -452 q 505 -442 505 -450 l 505 -412 q 519 -399 505 -401 q 567 -378 544 -395 q 604 -335 590 -361 q 616 -280 617 -310 q 612 -275 615 -274 q 604 -278 609 -276 q 590 -284 597 -283 q 572 -285 582 -285 q 522 -264 540 -285 q 503 -211 503 -242 m 743 526 l 1169 526 q 1197 520 1190 526 q 1203 493 1203 515 l 1203 445 q 1198 426 1203 430 q 1177 422 1193 422 l 1088 422 q 1068 417 1072 422 q 1064 396 1064 412 l 1064 320 q 1063 288 1064 302 q 1058 260 1063 273 q 1009 166 1044 215 q 916 77 974 118 q 777 10 858 35 q 591 -16 697 -16 q 385 24 480 -16 q 220 135 291 63 q 111 305 150 206 q 72 521 72 403 q 115 735 72 637 q 231 906 157 833 q 401 1018 305 978 q 606 1058 498 1058 q 784 1027 708 1058 q 911 944 859 997 q 929 935 924 933 q 941 954 935 938 l 965 1019 q 973 1035 968 1028 q 987 1042 977 1042 l 1028 1042 q 1043 1038 1038 1042 q 1049 1024 1049 1034 l 1049 717 q 1045 695 1049 705 q 1029 685 1042 685 l 981 685 q 957 691 962 685 q 950 712 953 696 q 903 836 938 778 q 800 930 868 894 q 619 966 732 966 q 430 907 511 966 q 305 747 349 848 q 260 521 260 647 q 298 294 260 395 q 411 134 336 193 q 596 74 485 74 q 738 100 679 74 q 832 164 796 125 q 885 243 869 203 q 891 262 889 253 q 893 285 893 271 l 893 398 q 886 418 893 415 q 865 422 879 422 l 744 422 q 721 426 726 422 q 715 449 715 431 l 715 498 q 721 521 715 516 q 743 526 726 526 "},"H":{"ha":1253,"x_min":49,"x_max":1204,"o":"m 362 920 l 362 623 q 368 590 362 597 q 401 583 374 583 l 855 583 q 887 592 882 583 q 892 628 892 600 l 892 915 q 888 943 892 937 q 862 950 883 950 l 755 950 q 734 957 739 950 q 729 978 729 963 l 729 1010 q 734 1036 729 1031 q 759 1042 740 1042 l 1174 1042 q 1198 1037 1191 1042 q 1204 1014 1204 1033 l 1204 975 q 1198 955 1204 959 q 1176 950 1192 950 l 1088 950 q 1058 945 1065 950 q 1051 917 1051 940 l 1051 117 q 1056 97 1051 102 q 1077 92 1061 92 l 1176 92 q 1198 88 1191 92 q 1204 67 1204 84 l 1204 34 q 1197 5 1204 10 q 1166 0 1189 0 l 761 0 q 735 6 740 0 q 729 33 729 12 l 729 66 q 733 86 729 81 q 751 92 737 92 l 860 92 q 886 99 881 92 q 892 126 892 106 l 892 460 q 885 488 892 482 q 858 493 878 493 l 394 493 q 368 488 374 493 q 362 463 362 483 l 362 122 q 366 98 362 105 q 389 92 371 92 l 499 92 q 519 88 515 92 q 524 67 524 83 l 524 36 q 517 6 524 12 q 487 0 510 0 l 81 0 q 55 5 61 0 q 49 31 49 10 l 49 60 q 55 86 49 80 q 78 92 60 92 l 172 92 q 196 95 190 92 q 202 117 202 99 l 202 922 q 197 945 202 940 q 174 950 191 950 l 77 950 q 54 957 58 950 q 49 983 49 963 l 49 1013 q 57 1036 49 1031 q 81 1042 64 1042 l 493 1042 q 517 1038 509 1042 q 524 1016 524 1033 l 524 977 q 519 955 524 960 q 498 950 515 950 l 389 950 q 367 944 372 950 q 362 920 362 939 "},"Ĥ":{"ha":1253,"x_min":49,"x_max":1204,"o":"m 443 1169 l 423 1190 q 415 1200 415 1197 q 423 1211 415 1203 l 553 1349 q 568 1358 561 1356 q 590 1360 575 1360 l 659 1360 q 679 1358 673 1360 q 691 1349 685 1355 l 824 1208 q 830 1201 830 1203 q 824 1193 830 1199 l 797 1166 q 787 1159 790 1158 q 775 1165 784 1159 l 640 1266 q 605 1267 622 1279 l 468 1165 q 443 1169 456 1156 m 362 920 l 362 623 q 368 590 362 597 q 401 583 374 583 l 855 583 q 887 592 882 583 q 892 628 892 600 l 892 915 q 888 943 892 937 q 862 950 883 950 l 755 950 q 734 957 739 950 q 729 978 729 963 l 729 1010 q 734 1036 729 1031 q 759 1042 740 1042 l 1174 1042 q 1198 1037 1191 1042 q 1204 1014 1204 1033 l 1204 975 q 1198 955 1204 959 q 1176 950 1192 950 l 1088 950 q 1058 945 1065 950 q 1051 917 1051 940 l 1051 117 q 1056 97 1051 102 q 1077 92 1061 92 l 1176 92 q 1198 88 1191 92 q 1204 67 1204 84 l 1204 34 q 1197 5 1204 10 q 1166 0 1189 0 l 761 0 q 735 6 740 0 q 729 33 729 12 l 729 66 q 733 86 729 81 q 751 92 737 92 l 860 92 q 886 99 881 92 q 892 126 892 106 l 892 460 q 885 488 892 482 q 858 493 878 493 l 394 493 q 368 488 374 493 q 362 463 362 483 l 362 122 q 366 98 362 105 q 389 92 371 92 l 499 92 q 519 88 515 92 q 524 67 524 83 l 524 36 q 517 6 524 12 q 487 0 510 0 l 81 0 q 55 5 61 0 q 49 31 49 10 l 49 60 q 55 86 49 80 q 78 92 60 92 l 172 92 q 196 95 190 92 q 202 117 202 99 l 202 922 q 197 945 202 940 q 174 950 191 950 l 77 950 q 54 957 58 950 q 49 983 49 963 l 49 1013 q 57 1036 49 1031 q 81 1042 64 1042 l 493 1042 q 517 1038 509 1042 q 524 1016 524 1033 l 524 977 q 519 955 524 960 q 498 950 515 950 l 389 950 q 367 944 372 950 q 362 920 362 939 "},"I":{"ha":605,"x_min":61,"x_max":544,"o":"m 375 925 l 375 121 q 381 97 375 103 q 403 90 387 90 l 526 90 q 540 84 537 90 q 544 67 544 78 l 544 24 q 537 5 544 10 q 515 0 531 0 l 90 0 q 67 5 74 0 q 61 24 61 10 l 61 69 q 68 86 61 81 q 94 90 74 90 l 171 90 q 202 96 189 90 q 216 124 216 101 l 216 926 q 213 946 216 941 q 194 951 210 951 l 87 951 q 67 957 72 951 q 61 974 61 962 l 61 1021 q 66 1039 61 1036 q 84 1042 70 1042 l 517 1042 q 539 1037 534 1042 q 544 1016 544 1033 l 544 982 q 536 957 544 963 q 513 951 528 951 l 403 951 q 380 947 385 951 q 375 925 375 943 "},"Ì":{"ha":605,"x_min":61,"x_max":544,"o":"m 310 1154 l 136 1254 q 106 1292 115 1267 q 116 1347 97 1317 q 148 1372 128 1365 q 188 1375 167 1379 q 222 1357 209 1372 l 361 1216 q 362 1191 374 1203 l 331 1158 q 321 1151 325 1152 q 310 1154 317 1149 m 375 925 l 375 121 q 381 97 375 103 q 403 90 387 90 l 526 90 q 540 84 537 90 q 544 67 544 78 l 544 24 q 537 5 544 10 q 515 0 531 0 l 90 0 q 67 5 74 0 q 61 24 61 10 l 61 69 q 68 86 61 81 q 94 90 74 90 l 171 90 q 202 96 189 90 q 216 124 216 101 l 216 926 q 213 946 216 941 q 194 951 210 951 l 87 951 q 67 957 72 951 q 61 974 61 962 l 61 1021 q 66 1039 61 1036 q 84 1042 70 1042 l 517 1042 q 539 1037 534 1042 q 544 1016 544 1033 l 544 982 q 536 957 544 963 q 513 951 528 951 l 403 951 q 380 947 385 951 q 375 925 375 943 "},"Í":{"ha":605,"x_min":61,"x_max":544,"o":"m 261 1160 l 230 1192 q 230 1215 219 1204 l 369 1357 q 405 1375 384 1372 q 445 1372 425 1379 q 476 1347 465 1365 q 487 1292 495 1317 q 456 1254 478 1267 l 288 1157 q 274 1151 278 1151 q 261 1160 269 1151 m 375 925 l 375 121 q 381 97 375 103 q 403 90 387 90 l 526 90 q 540 84 537 90 q 544 67 544 78 l 544 24 q 537 5 544 10 q 515 0 531 0 l 90 0 q 67 5 74 0 q 61 24 61 10 l 61 69 q 68 86 61 81 q 94 90 74 90 l 171 90 q 202 96 189 90 q 216 124 216 101 l 216 926 q 213 946 216 941 q 194 951 210 951 l 87 951 q 67 957 72 951 q 61 974 61 962 l 61 1021 q 66 1039 61 1036 q 84 1042 70 1042 l 517 1042 q 539 1037 534 1042 q 544 1016 544 1033 l 544 982 q 536 957 544 963 q 513 951 528 951 l 403 951 q 380 947 385 951 q 375 925 375 943 "},"Î":{"ha":605,"x_min":61,"x_max":544,"o":"m 117 1169 l 97 1190 q 90 1200 90 1197 q 97 1211 90 1203 l 228 1349 q 242 1358 235 1356 q 265 1360 249 1360 l 333 1360 q 353 1358 347 1360 q 365 1349 359 1355 l 499 1208 q 504 1201 504 1203 q 499 1193 504 1199 l 472 1166 q 461 1159 464 1158 q 449 1165 458 1159 l 314 1266 q 279 1267 296 1279 l 142 1165 q 117 1169 131 1156 m 375 925 l 375 121 q 381 97 375 103 q 403 90 387 90 l 526 90 q 540 84 537 90 q 544 67 544 78 l 544 24 q 537 5 544 10 q 515 0 531 0 l 90 0 q 67 5 74 0 q 61 24 61 10 l 61 69 q 68 86 61 81 q 94 90 74 90 l 171 90 q 202 96 189 90 q 216 124 216 101 l 216 926 q 213 946 216 941 q 194 951 210 951 l 87 951 q 67 957 72 951 q 61 974 61 962 l 61 1021 q 66 1039 61 1036 q 84 1042 70 1042 l 517 1042 q 539 1037 534 1042 q 544 1016 544 1033 l 544 982 q 536 957 544 963 q 513 951 528 951 l 403 951 q 380 947 385 951 q 375 925 375 943 "},"Ï":{"ha":605,"x_min":61,"x_max":544,"o":"m 418 1174 q 364 1196 386 1174 q 342 1250 342 1218 q 364 1304 342 1281 q 418 1326 386 1326 q 472 1304 449 1326 q 494 1250 494 1281 q 472 1196 494 1218 q 418 1174 449 1174 m 172 1174 q 119 1196 141 1174 q 97 1250 97 1218 q 119 1304 97 1281 q 172 1326 141 1326 q 226 1304 204 1326 q 249 1250 249 1281 q 226 1196 249 1218 q 172 1174 204 1174 m 375 925 l 375 121 q 381 97 375 103 q 403 90 387 90 l 526 90 q 540 84 537 90 q 544 67 544 78 l 544 24 q 537 5 544 10 q 515 0 531 0 l 90 0 q 67 5 74 0 q 61 24 61 10 l 61 69 q 68 86 61 81 q 94 90 74 90 l 171 90 q 202 96 189 90 q 216 124 216 101 l 216 926 q 213 946 216 941 q 194 951 210 951 l 87 951 q 67 957 72 951 q 61 974 61 962 l 61 1021 q 66 1039 61 1036 q 84 1042 70 1042 l 517 1042 q 539 1037 534 1042 q 544 1016 544 1033 l 544 982 q 536 957 544 963 q 513 951 528 951 l 403 951 q 380 947 385 951 q 375 925 375 943 "},"Ĩ":{"ha":605,"x_min":55,"x_max":549,"o":"m 405 1162 q 332 1178 361 1162 q 280 1216 303 1195 q 240 1250 261 1233 q 189 1267 219 1267 q 135 1247 153 1267 q 116 1190 118 1227 q 101 1181 114 1181 l 70 1181 q 57 1186 58 1181 q 56 1201 55 1191 q 80 1282 60 1246 q 134 1340 101 1319 q 211 1362 168 1362 q 283 1345 255 1362 q 333 1308 312 1329 q 368 1274 349 1291 q 415 1256 388 1256 q 487 1328 480 1256 q 491 1340 488 1336 q 503 1343 493 1343 l 535 1343 q 547 1340 544 1343 q 548 1328 549 1336 q 531 1239 547 1276 q 484 1182 515 1201 q 405 1162 453 1162 m 375 925 l 375 121 q 381 97 375 103 q 403 90 387 90 l 526 90 q 540 84 537 90 q 544 67 544 78 l 544 24 q 537 5 544 10 q 515 0 531 0 l 90 0 q 67 5 74 0 q 61 24 61 10 l 61 69 q 68 86 61 81 q 94 90 74 90 l 171 90 q 202 96 189 90 q 216 124 216 101 l 216 926 q 213 946 216 941 q 194 951 210 951 l 87 951 q 67 957 72 951 q 61 974 61 962 l 61 1021 q 66 1039 61 1036 q 84 1042 70 1042 l 517 1042 q 539 1037 534 1042 q 544 1016 544 1033 l 544 982 q 536 957 544 963 q 513 951 528 951 l 403 951 q 380 947 385 951 q 375 925 375 943 "},"Ī":{"ha":605,"x_min":61,"x_max":544,"o":"m 129 1184 l 129 1217 q 132 1231 129 1226 q 143 1235 134 1235 l 439 1235 q 457 1232 452 1235 q 463 1214 463 1228 l 463 1183 q 460 1167 463 1172 q 447 1162 458 1162 l 153 1162 q 135 1166 140 1162 q 129 1184 129 1169 m 375 925 l 375 121 q 381 97 375 103 q 403 90 387 90 l 526 90 q 540 84 537 90 q 544 67 544 78 l 544 24 q 537 5 544 10 q 515 0 531 0 l 90 0 q 67 5 74 0 q 61 24 61 10 l 61 69 q 68 86 61 81 q 94 90 74 90 l 171 90 q 202 96 189 90 q 216 124 216 101 l 216 926 q 213 946 216 941 q 194 951 210 951 l 87 951 q 67 957 72 951 q 61 974 61 962 l 61 1021 q 66 1039 61 1036 q 84 1042 70 1042 l 517 1042 q 539 1037 534 1042 q 544 1016 544 1033 l 544 982 q 536 957 544 963 q 513 951 528 951 l 403 951 q 380 947 385 951 q 375 925 375 943 "},"Ĭ":{"ha":605,"x_min":61,"x_max":544,"o":"m 296 1161 q 169 1209 204 1161 q 133 1337 134 1256 q 149 1350 133 1350 l 172 1350 q 184 1339 183 1350 q 216 1274 188 1296 q 296 1252 245 1252 q 373 1272 344 1252 q 408 1330 402 1291 q 410 1345 410 1340 q 423 1350 410 1350 l 447 1350 q 460 1347 458 1350 q 461 1333 462 1344 q 422 1208 458 1255 q 296 1161 386 1161 m 375 925 l 375 121 q 381 97 375 103 q 403 90 387 90 l 526 90 q 540 84 537 90 q 544 67 544 78 l 544 24 q 537 5 544 10 q 515 0 531 0 l 90 0 q 67 5 74 0 q 61 24 61 10 l 61 69 q 68 86 61 81 q 94 90 74 90 l 171 90 q 202 96 189 90 q 216 124 216 101 l 216 926 q 213 946 216 941 q 194 951 210 951 l 87 951 q 67 957 72 951 q 61 974 61 962 l 61 1021 q 66 1039 61 1036 q 84 1042 70 1042 l 517 1042 q 539 1037 534 1042 q 544 1016 544 1033 l 544 982 q 536 957 544 963 q 513 951 528 951 l 403 951 q 380 947 385 951 q 375 925 375 943 "},"Į":{"ha":605,"x_min":61,"x_max":544,"o":"m 276 -296 q 168 -272 214 -296 q 122 -187 122 -247 q 140 -127 122 -156 q 186 -72 158 -98 q 246 -23 214 -46 q 306 19 278 0 q 327 27 317 26 q 342 23 338 28 q 346 9 349 16 q 335 -8 343 1 q 301 -49 319 -26 q 272 -97 284 -72 q 260 -151 260 -122 q 276 -198 260 -177 q 326 -219 291 -219 q 369 -207 351 -219 q 398 -179 387 -195 q 418 -174 408 -166 l 433 -185 q 440 -194 440 -190 q 435 -205 440 -197 q 378 -269 415 -243 q 276 -296 341 -296 m 375 925 l 375 121 q 381 97 375 103 q 403 90 387 90 l 526 90 q 540 84 537 90 q 544 67 544 78 l 544 24 q 537 5 544 10 q 515 0 531 0 l 90 0 q 67 5 74 0 q 61 24 61 10 l 61 69 q 68 86 61 81 q 94 90 74 90 l 171 90 q 202 96 189 90 q 216 124 216 101 l 216 926 q 213 946 216 941 q 194 951 210 951 l 87 951 q 67 957 72 951 q 61 974 61 962 l 61 1021 q 66 1039 61 1036 q 84 1042 70 1042 l 517 1042 q 539 1037 534 1042 q 544 1016 544 1033 l 544 982 q 536 957 544 963 q 513 951 528 951 l 403 951 q 380 947 385 951 q 375 925 375 943 "},"İ":{"ha":605,"x_min":61,"x_max":544,"o":"m 299 1201 q 235 1228 262 1201 q 208 1292 208 1255 q 235 1356 208 1329 q 299 1382 262 1382 q 363 1356 336 1382 q 389 1292 389 1329 q 363 1228 389 1255 q 299 1201 336 1201 m 375 925 l 375 121 q 381 97 375 103 q 403 90 387 90 l 526 90 q 540 84 537 90 q 544 67 544 78 l 544 24 q 537 5 544 10 q 515 0 531 0 l 90 0 q 67 5 74 0 q 61 24 61 10 l 61 69 q 68 86 61 81 q 94 90 74 90 l 171 90 q 202 96 189 90 q 216 124 216 101 l 216 926 q 213 946 216 941 q 194 951 210 951 l 87 951 q 67 957 72 951 q 61 974 61 962 l 61 1021 q 66 1039 61 1036 q 84 1042 70 1042 l 517 1042 q 539 1037 534 1042 q 544 1016 544 1033 l 544 982 q 536 957 544 963 q 513 951 528 951 l 403 951 q 380 947 385 951 q 375 925 375 943 "},"J":{"ha":842,"x_min":12,"x_max":813,"o":"m 12 211 q 49 320 12 281 q 135 358 86 358 q 207 333 178 358 q 236 267 236 308 q 226 214 236 231 q 202 186 215 196 q 179 167 190 177 q 169 135 169 157 q 179 109 169 124 q 216 83 189 94 q 298 72 244 72 q 400 98 357 72 q 466 182 443 124 q 490 333 490 239 l 490 909 q 484 942 490 933 q 455 950 479 950 l 324 950 q 297 956 302 950 q 291 984 291 962 l 291 1012 q 299 1038 291 1033 q 326 1042 306 1042 l 785 1042 q 806 1039 798 1042 q 813 1020 813 1035 l 813 974 q 809 955 813 959 q 791 950 806 950 l 677 950 q 651 943 656 950 q 647 914 647 936 l 647 375 q 607 173 647 261 q 489 34 567 85 q 298 -16 412 -16 q 138 19 201 -16 q 43 106 74 54 q 12 211 12 158 "},"Ĵ":{"ha":842,"x_min":12,"x_max":813,"o":"m 342 1169 l 322 1190 q 315 1200 315 1197 q 322 1211 315 1203 l 453 1349 q 467 1358 460 1356 q 490 1360 474 1360 l 558 1360 q 578 1358 572 1360 q 590 1349 584 1355 l 724 1208 q 729 1201 729 1203 q 724 1193 729 1199 l 697 1166 q 686 1159 689 1158 q 674 1165 683 1159 l 539 1266 q 504 1267 521 1279 l 367 1165 q 342 1169 356 1156 m 12 211 q 49 320 12 281 q 135 358 86 358 q 207 333 178 358 q 236 267 236 308 q 226 214 236 231 q 202 186 215 196 q 179 167 190 177 q 169 135 169 157 q 179 109 169 124 q 216 83 189 94 q 298 72 244 72 q 400 98 357 72 q 466 182 443 124 q 490 333 490 239 l 490 909 q 484 942 490 933 q 455 950 479 950 l 324 950 q 297 956 302 950 q 291 984 291 962 l 291 1012 q 299 1038 291 1033 q 326 1042 306 1042 l 785 1042 q 806 1039 798 1042 q 813 1020 813 1035 l 813 974 q 809 955 813 959 q 791 950 806 950 l 677 950 q 651 943 656 950 q 647 914 647 936 l 647 375 q 607 173 647 261 q 489 34 567 85 q 298 -16 412 -16 q 138 19 201 -16 q 43 106 74 54 q 12 211 12 158 "},"K":{"ha":1231,"x_min":49,"x_max":1235,"o":"m 49 28 l 49 68 q 54 88 49 83 q 73 92 59 92 l 172 92 q 198 99 193 92 q 202 125 202 106 l 202 927 q 199 947 202 944 q 178 950 196 950 l 73 950 q 53 953 57 950 q 49 972 49 956 l 49 1019 q 54 1038 49 1033 q 72 1042 58 1042 l 506 1042 q 523 1038 518 1042 q 528 1019 528 1033 l 528 981 q 522 955 528 960 q 496 950 515 950 l 395 950 q 367 943 372 950 q 362 911 362 935 l 362 494 q 367 459 362 463 q 390 474 372 456 l 837 926 q 845 944 849 938 q 818 950 842 950 l 740 950 q 715 956 720 950 q 710 980 710 961 l 710 1016 q 717 1038 710 1033 q 739 1042 723 1042 l 1122 1042 q 1142 1036 1138 1042 q 1147 1013 1147 1030 l 1147 981 q 1142 956 1147 962 q 1118 950 1138 950 l 1022 950 q 985 944 996 950 q 961 926 974 938 l 687 648 q 674 628 675 636 q 683 607 672 621 l 1060 118 q 1081 98 1071 104 q 1116 92 1090 92 l 1207 92 q 1230 87 1224 92 q 1235 65 1235 82 l 1235 24 q 1231 3 1235 7 q 1209 0 1228 0 l 774 0 q 753 5 758 0 q 749 25 749 10 l 749 61 q 754 86 749 81 q 777 92 759 92 l 848 92 q 875 100 873 92 q 868 121 878 108 l 583 501 q 561 518 570 518 q 539 504 553 519 l 379 343 q 365 323 368 332 q 362 290 362 315 l 362 119 q 367 97 362 101 q 391 92 372 92 l 501 92 q 522 86 518 92 q 526 65 526 81 l 526 29 q 521 5 526 10 q 498 0 516 0 l 74 0 q 54 6 58 0 q 49 28 49 11 "},"Ķ":{"ha":1231,"x_min":49,"x_max":1235,"o":"m 546 -211 q 571 -157 546 -178 q 631 -135 596 -135 q 693 -166 668 -135 q 719 -261 719 -196 q 708 -325 719 -293 q 675 -384 697 -357 q 625 -430 654 -412 q 560 -452 596 -448 q 550 -451 553 -452 q 547 -442 547 -450 l 547 -412 q 561 -399 547 -401 q 610 -378 587 -395 q 646 -335 633 -361 q 658 -280 660 -310 q 655 -275 658 -274 q 647 -278 651 -276 q 632 -284 640 -283 q 615 -285 624 -285 q 564 -264 583 -285 q 546 -211 546 -242 m 49 28 l 49 68 q 54 88 49 83 q 73 92 59 92 l 172 92 q 198 99 193 92 q 202 125 202 106 l 202 927 q 199 947 202 944 q 178 950 196 950 l 73 950 q 53 953 57 950 q 49 972 49 956 l 49 1019 q 54 1038 49 1033 q 72 1042 58 1042 l 506 1042 q 523 1038 518 1042 q 528 1019 528 1033 l 528 981 q 522 955 528 960 q 496 950 515 950 l 395 950 q 367 943 372 950 q 362 911 362 935 l 362 494 q 367 459 362 463 q 390 474 372 456 l 837 926 q 845 944 849 938 q 818 950 842 950 l 740 950 q 715 956 720 950 q 710 980 710 961 l 710 1016 q 717 1038 710 1033 q 739 1042 723 1042 l 1122 1042 q 1142 1036 1138 1042 q 1147 1013 1147 1030 l 1147 981 q 1142 956 1147 962 q 1118 950 1138 950 l 1022 950 q 985 944 996 950 q 961 926 974 938 l 687 648 q 674 628 675 636 q 683 607 672 621 l 1060 118 q 1081 98 1071 104 q 1116 92 1090 92 l 1207 92 q 1230 87 1224 92 q 1235 65 1235 82 l 1235 24 q 1231 3 1235 7 q 1209 0 1228 0 l 774 0 q 753 5 758 0 q 749 25 749 10 l 749 61 q 754 86 749 81 q 777 92 759 92 l 848 92 q 875 100 873 92 q 868 121 878 108 l 583 501 q 561 518 570 518 q 539 504 553 519 l 379 343 q 365 323 368 332 q 362 290 362 315 l 362 119 q 367 97 362 101 q 391 92 372 92 l 501 92 q 522 86 518 92 q 526 65 526 81 l 526 29 q 521 5 526 10 q 498 0 516 0 l 74 0 q 54 6 58 0 q 49 28 49 11 "},"L":{"ha":1021,"x_min":49,"x_max":968,"o":"m 173 950 l 72 950 q 54 955 58 950 q 49 974 49 959 l 49 1019 q 54 1038 49 1034 q 74 1042 59 1042 l 489 1042 q 512 1038 506 1042 q 518 1017 518 1034 l 518 975 q 513 954 518 958 q 492 950 507 950 l 391 950 q 368 945 375 950 q 362 922 362 940 l 362 117 q 368 96 362 100 q 392 92 375 92 l 647 92 q 789 119 738 92 q 862 204 840 147 q 885 351 884 261 q 888 367 885 362 q 901 372 890 372 l 942 372 q 962 369 956 372 q 968 351 968 366 l 968 33 q 964 6 968 13 q 940 0 960 0 l 80 0 q 56 4 63 0 q 49 26 49 8 l 49 69 q 52 87 49 82 q 67 92 56 92 l 169 92 q 196 96 190 92 q 202 121 202 101 l 202 922 q 197 945 202 940 q 173 950 192 950 "},"Ĺ":{"ha":1021,"x_min":49,"x_max":968,"o":"m 238 1160 l 206 1192 q 206 1215 195 1204 l 346 1357 q 381 1375 360 1372 q 422 1372 401 1379 q 452 1347 442 1365 q 463 1292 472 1317 q 433 1254 455 1267 l 264 1157 q 250 1151 255 1151 q 238 1160 245 1151 m 173 950 l 72 950 q 54 955 58 950 q 49 974 49 959 l 49 1019 q 54 1038 49 1034 q 74 1042 59 1042 l 489 1042 q 512 1038 506 1042 q 518 1017 518 1034 l 518 975 q 513 954 518 958 q 492 950 507 950 l 391 950 q 368 945 375 950 q 362 922 362 940 l 362 117 q 368 96 362 100 q 392 92 375 92 l 647 92 q 789 119 738 92 q 862 204 840 147 q 885 351 884 261 q 888 367 885 362 q 901 372 890 372 l 942 372 q 962 369 956 372 q 968 351 968 366 l 968 33 q 964 6 968 13 q 940 0 960 0 l 80 0 q 56 4 63 0 q 49 26 49 8 l 49 69 q 52 87 49 82 q 67 92 56 92 l 169 92 q 196 96 190 92 q 202 121 202 101 l 202 922 q 197 945 202 940 q 173 950 192 950 "},"Ļ":{"ha":1021,"x_min":49,"x_max":968,"o":"m 403 -211 q 428 -157 403 -178 q 488 -135 453 -135 q 551 -166 526 -135 q 576 -261 576 -196 q 565 -325 576 -293 q 533 -384 554 -357 q 483 -430 512 -412 q 418 -452 453 -448 q 408 -451 411 -452 q 405 -442 405 -450 l 405 -412 q 419 -399 405 -401 q 467 -378 444 -395 q 504 -335 490 -361 q 516 -280 517 -310 q 512 -275 515 -274 q 504 -278 509 -276 q 490 -284 497 -283 q 472 -285 482 -285 q 422 -264 440 -285 q 403 -211 403 -242 m 173 950 l 72 950 q 54 955 58 950 q 49 974 49 959 l 49 1019 q 54 1038 49 1034 q 74 1042 59 1042 l 489 1042 q 512 1038 506 1042 q 518 1017 518 1034 l 518 975 q 513 954 518 958 q 492 950 507 950 l 391 950 q 368 945 375 950 q 362 922 362 940 l 362 117 q 368 96 362 100 q 392 92 375 92 l 647 92 q 789 119 738 92 q 862 204 840 147 q 885 351 884 261 q 888 367 885 362 q 901 372 890 372 l 942 372 q 962 369 956 372 q 968 351 968 366 l 968 33 q 964 6 968 13 q 940 0 960 0 l 80 0 q 56 4 63 0 q 49 26 49 8 l 49 69 q 52 87 49 82 q 67 92 56 92 l 169 92 q 196 96 190 92 q 202 121 202 101 l 202 922 q 197 945 202 940 q 173 950 192 950 "},"Ľ":{"ha":1033,"x_min":49,"x_max":968,"o":"m 713 983 q 727 1032 713 1010 q 766 1065 742 1053 q 819 1077 790 1077 q 898 1040 867 1077 q 930 921 930 1002 q 916 840 930 881 q 875 766 901 800 q 812 709 848 731 q 732 682 776 686 q 719 683 723 681 q 715 694 715 684 l 715 731 q 719 744 715 741 q 732 748 724 747 q 793 774 765 753 q 839 827 822 794 q 853 897 856 860 q 849 903 853 905 q 839 899 845 902 q 821 891 831 893 q 799 890 812 890 q 736 917 760 890 q 713 983 713 944 m 173 950 l 72 950 q 54 955 58 950 q 49 974 49 959 l 49 1019 q 54 1038 49 1034 q 74 1042 59 1042 l 489 1042 q 512 1038 506 1042 q 518 1017 518 1034 l 518 975 q 513 954 518 958 q 492 950 507 950 l 391 950 q 368 945 375 950 q 362 922 362 940 l 362 117 q 368 96 362 100 q 392 92 375 92 l 647 92 q 789 119 738 92 q 862 204 840 147 q 885 351 884 261 q 888 367 885 362 q 901 372 890 372 l 942 372 q 962 369 956 372 q 968 351 968 366 l 968 33 q 964 6 968 13 q 940 0 960 0 l 80 0 q 56 4 63 0 q 49 26 49 8 l 49 69 q 52 87 49 82 q 67 92 56 92 l 169 92 q 196 96 190 92 q 202 121 202 101 l 202 922 q 197 945 202 940 q 173 950 192 950 "},"M":{"ha":1471,"x_min":47,"x_max":1424,"o":"m 217 950 l 115 950 q 94 954 99 950 q 90 972 90 958 l 90 1018 q 97 1039 90 1035 q 120 1042 104 1042 l 437 1042 q 460 1038 454 1042 q 469 1026 467 1034 q 475 1006 471 1018 l 718 269 q 729 232 726 247 q 738 216 732 216 q 747 225 744 216 q 757 254 750 235 l 1011 1017 q 1019 1037 1016 1032 q 1043 1042 1023 1042 l 1355 1042 q 1377 1038 1372 1042 q 1383 1016 1383 1034 l 1383 985 q 1378 956 1383 962 q 1351 950 1374 950 l 1263 950 q 1239 941 1244 950 q 1235 913 1234 932 l 1267 121 q 1272 98 1267 103 q 1295 92 1276 92 l 1398 92 q 1420 89 1417 92 q 1424 65 1424 85 l 1424 31 q 1420 6 1424 13 q 1398 0 1416 0 l 984 0 q 959 5 967 0 q 951 28 951 10 l 951 59 q 956 85 951 79 q 981 92 960 92 l 1084 92 q 1107 98 1102 92 q 1112 122 1113 105 l 1090 774 q 1090 825 1089 796 q 1091 877 1091 855 q 1085 900 1090 900 q 1070 881 1078 900 q 1056 837 1063 863 q 1042 790 1049 811 l 781 12 q 769 -8 776 -2 q 744 -15 763 -15 l 699 -15 q 666 -5 673 -15 q 653 22 658 4 l 381 819 q 372 859 376 836 q 362 901 367 883 q 348 919 357 919 q 342 906 344 919 q 338 858 340 892 l 308 138 q 315 101 308 110 q 353 92 323 92 l 438 92 q 464 87 458 92 q 470 61 470 82 l 470 29 q 461 5 470 10 q 433 0 453 0 l 78 0 q 52 5 58 0 q 47 29 47 10 l 47 63 q 51 87 47 82 q 75 92 56 92 l 172 92 q 198 100 192 92 q 206 126 205 109 l 244 922 q 239 944 244 938 q 217 950 234 950 "},"N":{"ha":1231,"x_min":53,"x_max":1204,"o":"m 160 950 l 77 950 q 57 955 62 950 q 53 974 53 960 l 53 1008 q 57 1035 53 1028 q 81 1042 61 1042 l 308 1042 q 360 1034 348 1042 q 388 1005 372 1026 l 921 319 q 944 306 935 301 q 954 353 954 311 l 954 918 q 948 945 954 940 q 920 950 942 950 l 848 950 q 816 953 831 950 q 801 974 801 956 l 801 1003 q 808 1033 801 1024 q 836 1042 814 1042 l 1171 1042 q 1194 1039 1184 1042 q 1204 1021 1204 1036 l 1204 982 q 1200 957 1204 963 q 1176 950 1196 950 l 1091 950 q 1064 943 1070 950 q 1058 915 1058 937 l 1058 16 q 1055 -6 1058 2 q 1037 -15 1051 -15 l 1019 -15 q 993 -10 1001 -15 q 977 5 985 -6 l 338 822 q 313 837 323 842 q 302 781 302 832 l 302 123 q 308 97 302 103 q 333 92 313 92 l 438 92 q 458 85 454 92 q 462 64 462 79 l 462 28 q 455 5 462 9 q 430 0 448 0 l 84 0 q 59 5 65 0 q 53 28 53 9 l 53 65 q 61 88 53 84 q 86 92 69 92 l 160 92 q 192 98 185 92 q 199 128 199 104 l 199 915 q 192 945 199 940 q 160 950 185 950 "},"Ñ":{"ha":1231,"x_min":53,"x_max":1204,"o":"m 733 1162 q 660 1178 690 1162 q 608 1216 631 1195 q 568 1250 590 1233 q 517 1267 547 1267 q 464 1247 481 1267 q 444 1190 447 1227 q 430 1181 442 1181 l 399 1181 q 385 1186 387 1181 q 384 1201 383 1191 q 409 1282 388 1246 q 463 1340 429 1319 q 540 1362 497 1362 q 612 1345 583 1362 q 661 1308 640 1329 q 697 1274 678 1291 q 744 1256 716 1256 q 815 1328 808 1256 q 819 1340 817 1336 q 831 1343 822 1343 l 863 1343 q 875 1340 873 1343 q 876 1328 877 1336 q 859 1239 875 1276 q 812 1182 843 1201 q 733 1162 781 1162 m 160 950 l 77 950 q 57 955 62 950 q 53 974 53 960 l 53 1008 q 57 1035 53 1028 q 81 1042 61 1042 l 308 1042 q 360 1034 348 1042 q 388 1005 372 1026 l 921 319 q 944 306 935 301 q 954 353 954 311 l 954 918 q 948 945 954 940 q 920 950 942 950 l 848 950 q 816 953 831 950 q 801 974 801 956 l 801 1003 q 808 1033 801 1024 q 836 1042 814 1042 l 1171 1042 q 1194 1039 1184 1042 q 1204 1021 1204 1036 l 1204 982 q 1200 957 1204 963 q 1176 950 1196 950 l 1091 950 q 1064 943 1070 950 q 1058 915 1058 937 l 1058 16 q 1055 -6 1058 2 q 1037 -15 1051 -15 l 1019 -15 q 993 -10 1001 -15 q 977 5 985 -6 l 338 822 q 313 837 323 842 q 302 781 302 832 l 302 123 q 308 97 302 103 q 333 92 313 92 l 438 92 q 458 85 454 92 q 462 64 462 79 l 462 28 q 455 5 462 9 q 430 0 448 0 l 84 0 q 59 5 65 0 q 53 28 53 9 l 53 65 q 61 88 53 84 q 86 92 69 92 l 160 92 q 192 98 185 92 q 199 128 199 104 l 199 915 q 192 945 199 940 q 160 950 185 950 "},"Ń":{"ha":1231,"x_min":53,"x_max":1204,"o":"m 592 1160 l 561 1192 q 561 1215 550 1204 l 701 1357 q 736 1375 715 1372 q 776 1372 756 1379 q 807 1347 797 1365 q 818 1292 826 1317 q 788 1254 810 1267 l 619 1157 q 605 1151 610 1151 q 592 1160 600 1151 m 160 950 l 77 950 q 57 955 62 950 q 53 974 53 960 l 53 1008 q 57 1035 53 1028 q 81 1042 61 1042 l 308 1042 q 360 1034 348 1042 q 388 1005 372 1026 l 921 319 q 944 306 935 301 q 954 353 954 311 l 954 918 q 948 945 954 940 q 920 950 942 950 l 848 950 q 816 953 831 950 q 801 974 801 956 l 801 1003 q 808 1033 801 1024 q 836 1042 814 1042 l 1171 1042 q 1194 1039 1184 1042 q 1204 1021 1204 1036 l 1204 982 q 1200 957 1204 963 q 1176 950 1196 950 l 1091 950 q 1064 943 1070 950 q 1058 915 1058 937 l 1058 16 q 1055 -6 1058 2 q 1037 -15 1051 -15 l 1019 -15 q 993 -10 1001 -15 q 977 5 985 -6 l 338 822 q 313 837 323 842 q 302 781 302 832 l 302 123 q 308 97 302 103 q 333 92 313 92 l 438 92 q 458 85 454 92 q 462 64 462 79 l 462 28 q 455 5 462 9 q 430 0 448 0 l 84 0 q 59 5 65 0 q 53 28 53 9 l 53 65 q 61 88 53 84 q 86 92 69 92 l 160 92 q 192 98 185 92 q 199 128 199 104 l 199 915 q 192 945 199 940 q 160 950 185 950 "},"Ņ":{"ha":1231,"x_min":53,"x_max":1204,"o":"m 499 -211 q 524 -157 499 -178 q 583 -135 549 -135 q 646 -166 621 -135 q 672 -261 672 -196 q 660 -325 672 -293 q 628 -384 649 -357 q 578 -430 607 -412 q 513 -452 549 -448 q 503 -451 506 -452 q 500 -442 500 -450 l 500 -412 q 514 -399 500 -401 q 563 -378 540 -395 q 599 -335 585 -361 q 611 -280 613 -310 q 607 -275 610 -274 q 599 -278 604 -276 q 585 -284 592 -283 q 567 -285 577 -285 q 517 -264 535 -285 q 499 -211 499 -242 m 160 950 l 77 950 q 57 955 62 950 q 53 974 53 960 l 53 1008 q 57 1035 53 1028 q 81 1042 61 1042 l 308 1042 q 360 1034 348 1042 q 388 1005 372 1026 l 921 319 q 944 306 935 301 q 954 353 954 311 l 954 918 q 948 945 954 940 q 920 950 942 950 l 848 950 q 816 953 831 950 q 801 974 801 956 l 801 1003 q 808 1033 801 1024 q 836 1042 814 1042 l 1171 1042 q 1194 1039 1184 1042 q 1204 1021 1204 1036 l 1204 982 q 1200 957 1204 963 q 1176 950 1196 950 l 1091 950 q 1064 943 1070 950 q 1058 915 1058 937 l 1058 16 q 1055 -6 1058 2 q 1037 -15 1051 -15 l 1019 -15 q 993 -10 1001 -15 q 977 5 985 -6 l 338 822 q 313 837 323 842 q 302 781 302 832 l 302 123 q 308 97 302 103 q 333 92 313 92 l 438 92 q 458 85 454 92 q 462 64 462 79 l 462 28 q 455 5 462 9 q 430 0 448 0 l 84 0 q 59 5 65 0 q 53 28 53 9 l 53 65 q 61 88 53 84 q 86 92 69 92 l 160 92 q 192 98 185 92 q 199 128 199 104 l 199 915 q 192 945 199 940 q 160 950 185 950 "},"Ň":{"ha":1231,"x_min":53,"x_max":1204,"o":"m 549 1189 l 432 1313 q 423 1327 424 1322 q 431 1340 422 1333 l 449 1356 q 464 1363 459 1364 q 481 1354 469 1362 l 592 1279 q 627 1266 612 1267 q 660 1279 642 1266 l 779 1363 q 795 1368 790 1370 q 809 1357 800 1366 l 822 1345 q 832 1331 831 1336 q 825 1316 834 1326 l 701 1185 q 688 1173 693 1177 q 666 1169 682 1169 l 600 1169 q 569 1174 580 1169 q 549 1189 558 1180 m 160 950 l 77 950 q 57 955 62 950 q 53 974 53 960 l 53 1008 q 57 1035 53 1028 q 81 1042 61 1042 l 308 1042 q 360 1034 348 1042 q 388 1005 372 1026 l 921 319 q 944 306 935 301 q 954 353 954 311 l 954 918 q 948 945 954 940 q 920 950 942 950 l 848 950 q 816 953 831 950 q 801 974 801 956 l 801 1003 q 808 1033 801 1024 q 836 1042 814 1042 l 1171 1042 q 1194 1039 1184 1042 q 1204 1021 1204 1036 l 1204 982 q 1200 957 1204 963 q 1176 950 1196 950 l 1091 950 q 1064 943 1070 950 q 1058 915 1058 937 l 1058 16 q 1055 -6 1058 2 q 1037 -15 1051 -15 l 1019 -15 q 993 -10 1001 -15 q 977 5 985 -6 l 338 822 q 313 837 323 842 q 302 781 302 832 l 302 123 q 308 97 302 103 q 333 92 313 92 l 438 92 q 458 85 454 92 q 462 64 462 79 l 462 28 q 455 5 462 9 q 430 0 448 0 l 84 0 q 59 5 65 0 q 53 28 53 9 l 53 65 q 61 88 53 84 q 86 92 69 92 l 160 92 q 192 98 185 92 q 199 128 199 104 l 199 915 q 192 945 199 940 q 160 950 185 950 "},"O":{"ha":1168,"x_min":72,"x_max":1096,"o":"m 72 521 q 107 731 72 633 q 209 902 142 828 q 370 1016 276 975 q 584 1058 465 1058 q 798 1016 703 1058 q 959 902 893 975 q 1061 731 1026 828 q 1096 521 1096 633 q 1059 311 1096 408 q 954 140 1022 213 q 792 25 886 67 q 584 -16 698 -16 q 370 25 465 -16 q 209 140 276 67 q 107 311 142 213 q 72 521 72 408 m 260 521 q 279 346 260 428 q 336 202 297 264 q 437 105 375 140 q 584 69 499 69 q 738 105 676 69 q 838 202 800 140 q 891 346 875 264 q 908 521 908 428 q 889 696 908 615 q 832 840 871 778 q 732 937 794 902 q 584 972 671 972 q 437 937 499 972 q 336 840 375 902 q 279 696 297 778 q 260 521 260 615 "},"Ò":{"ha":1168,"x_min":72,"x_max":1096,"o":"m 595 1154 l 422 1254 q 391 1292 400 1267 q 401 1347 383 1317 q 433 1372 413 1365 q 474 1375 453 1379 q 508 1357 494 1372 l 647 1216 q 647 1191 659 1203 l 616 1158 q 607 1151 610 1152 q 595 1154 603 1149 m 72 521 q 107 731 72 633 q 209 902 142 828 q 370 1016 276 975 q 584 1058 465 1058 q 798 1016 703 1058 q 959 902 893 975 q 1061 731 1026 828 q 1096 521 1096 633 q 1059 311 1096 408 q 954 140 1022 213 q 792 25 886 67 q 584 -16 698 -16 q 370 25 465 -16 q 209 140 276 67 q 107 311 142 213 q 72 521 72 408 m 260 521 q 279 346 260 428 q 336 202 297 264 q 437 105 375 140 q 584 69 499 69 q 738 105 676 69 q 838 202 800 140 q 891 346 875 264 q 908 521 908 428 q 889 696 908 615 q 832 840 871 778 q 732 937 794 902 q 584 972 671 972 q 437 937 499 972 q 336 840 375 902 q 279 696 297 778 q 260 521 260 615 "},"Ó":{"ha":1168,"x_min":72,"x_max":1096,"o":"m 547 1160 l 515 1192 q 515 1215 504 1204 l 655 1357 q 690 1375 669 1372 q 731 1372 710 1379 q 761 1347 751 1365 q 772 1292 781 1317 q 742 1254 764 1267 l 573 1157 q 559 1151 564 1151 q 547 1160 554 1151 m 72 521 q 107 731 72 633 q 209 902 142 828 q 370 1016 276 975 q 584 1058 465 1058 q 798 1016 703 1058 q 959 902 893 975 q 1061 731 1026 828 q 1096 521 1096 633 q 1059 311 1096 408 q 954 140 1022 213 q 792 25 886 67 q 584 -16 698 -16 q 370 25 465 -16 q 209 140 276 67 q 107 311 142 213 q 72 521 72 408 m 260 521 q 279 346 260 428 q 336 202 297 264 q 437 105 375 140 q 584 69 499 69 q 738 105 676 69 q 838 202 800 140 q 891 346 875 264 q 908 521 908 428 q 889 696 908 615 q 832 840 871 778 q 732 937 794 902 q 584 972 671 972 q 437 937 499 972 q 336 840 375 902 q 279 696 297 778 q 260 521 260 615 "},"Ô":{"ha":1168,"x_min":72,"x_max":1096,"o":"m 403 1169 l 383 1190 q 375 1200 375 1197 q 383 1211 375 1203 l 513 1349 q 528 1358 521 1356 q 550 1360 535 1360 l 619 1360 q 639 1358 633 1360 q 651 1349 644 1355 l 784 1208 q 790 1201 790 1203 q 784 1193 790 1199 l 757 1166 q 747 1159 749 1158 q 735 1165 744 1159 l 599 1266 q 565 1267 581 1279 l 428 1165 q 403 1169 416 1156 m 72 521 q 107 731 72 633 q 209 902 142 828 q 370 1016 276 975 q 584 1058 465 1058 q 798 1016 703 1058 q 959 902 893 975 q 1061 731 1026 828 q 1096 521 1096 633 q 1059 311 1096 408 q 954 140 1022 213 q 792 25 886 67 q 584 -16 698 -16 q 370 25 465 -16 q 209 140 276 67 q 107 311 142 213 q 72 521 72 408 m 260 521 q 279 346 260 428 q 336 202 297 264 q 437 105 375 140 q 584 69 499 69 q 738 105 676 69 q 838 202 800 140 q 891 346 875 264 q 908 521 908 428 q 889 696 908 615 q 832 840 871 778 q 732 937 794 902 q 584 972 671 972 q 437 937 499 972 q 336 840 375 902 q 279 696 297 778 q 260 521 260 615 "},"Õ":{"ha":1168,"x_min":72,"x_max":1096,"o":"m 690 1162 q 617 1178 647 1162 q 565 1216 588 1195 q 525 1250 547 1233 q 474 1267 504 1267 q 421 1247 438 1267 q 401 1190 403 1227 q 387 1181 399 1181 l 356 1181 q 342 1186 344 1181 q 341 1201 340 1191 q 366 1282 345 1246 q 420 1340 386 1319 q 497 1362 453 1362 q 569 1345 540 1362 q 618 1308 597 1329 q 654 1274 635 1291 q 701 1256 673 1256 q 772 1328 765 1256 q 776 1340 774 1336 q 788 1343 778 1343 l 820 1343 q 832 1340 830 1343 q 833 1328 834 1336 q 816 1239 832 1276 q 769 1182 800 1201 q 690 1162 738 1162 m 72 521 q 107 731 72 633 q 209 902 142 828 q 370 1016 276 975 q 584 1058 465 1058 q 798 1016 703 1058 q 959 902 893 975 q 1061 731 1026 828 q 1096 521 1096 633 q 1059 311 1096 408 q 954 140 1022 213 q 792 25 886 67 q 584 -16 698 -16 q 370 25 465 -16 q 209 140 276 67 q 107 311 142 213 q 72 521 72 408 m 260 521 q 279 346 260 428 q 336 202 297 264 q 437 105 375 140 q 584 69 499 69 q 738 105 676 69 q 838 202 800 140 q 891 346 875 264 q 908 521 908 428 q 889 696 908 615 q 832 840 871 778 q 732 937 794 902 q 584 972 671 972 q 437 937 499 972 q 336 840 375 902 q 279 696 297 778 q 260 521 260 615 "},"Ö":{"ha":1168,"x_min":72,"x_max":1096,"o":"m 707 1141 q 653 1163 675 1141 q 631 1217 631 1185 q 653 1271 631 1249 q 707 1294 675 1294 q 760 1271 738 1294 q 783 1217 783 1249 q 760 1163 783 1185 q 707 1141 738 1141 m 461 1141 q 408 1163 430 1141 q 385 1217 385 1185 q 408 1271 385 1249 q 461 1294 430 1294 q 515 1271 493 1294 q 538 1217 538 1249 q 515 1163 538 1185 q 461 1141 493 1141 m 72 521 q 107 731 72 633 q 209 902 142 828 q 370 1016 276 975 q 584 1058 465 1058 q 798 1016 703 1058 q 959 902 893 975 q 1061 731 1026 828 q 1096 521 1096 633 q 1059 311 1096 408 q 954 140 1022 213 q 792 25 886 67 q 584 -16 698 -16 q 370 25 465 -16 q 209 140 276 67 q 107 311 142 213 q 72 521 72 408 m 260 521 q 279 346 260 428 q 336 202 297 264 q 437 105 375 140 q 584 69 499 69 q 738 105 676 69 q 838 202 800 140 q 891 346 875 264 q 908 521 908 428 q 889 696 908 615 q 832 840 871 778 q 732 937 794 902 q 584 972 671 972 q 437 937 499 972 q 336 840 375 902 q 279 696 297 778 q 260 521 260 615 "},"Ō":{"ha":1168,"x_min":72,"x_max":1096,"o":"m 415 1184 l 415 1217 q 417 1231 415 1226 q 428 1235 419 1235 l 724 1235 q 743 1232 738 1235 q 748 1214 748 1228 l 748 1183 q 746 1167 748 1172 q 733 1162 744 1162 l 439 1162 q 420 1166 426 1162 q 415 1184 415 1169 m 72 521 q 107 731 72 633 q 209 902 142 828 q 370 1016 276 975 q 584 1058 465 1058 q 798 1016 703 1058 q 959 902 893 975 q 1061 731 1026 828 q 1096 521 1096 633 q 1059 311 1096 408 q 954 140 1022 213 q 792 25 886 67 q 584 -16 698 -16 q 370 25 465 -16 q 209 140 276 67 q 107 311 142 213 q 72 521 72 408 m 260 521 q 279 346 260 428 q 336 202 297 264 q 437 105 375 140 q 584 69 499 69 q 738 105 676 69 q 838 202 800 140 q 891 346 875 264 q 908 521 908 428 q 889 696 908 615 q 832 840 871 778 q 732 937 794 902 q 584 972 671 972 q 437 937 499 972 q 336 840 375 902 q 279 696 297 778 q 260 521 260 615 "},"Ŏ":{"ha":1168,"x_min":72,"x_max":1096,"o":"m 581 1161 q 455 1209 490 1161 q 418 1337 419 1256 q 434 1350 418 1350 l 457 1350 q 469 1339 469 1350 q 502 1274 473 1296 q 581 1252 531 1252 q 658 1272 629 1252 q 694 1330 688 1291 q 695 1345 695 1340 q 708 1350 696 1350 l 733 1350 q 745 1347 744 1350 q 747 1333 747 1344 q 708 1208 744 1255 q 581 1161 672 1161 m 72 521 q 107 731 72 633 q 209 902 142 828 q 370 1016 276 975 q 584 1058 465 1058 q 798 1016 703 1058 q 959 902 893 975 q 1061 731 1026 828 q 1096 521 1096 633 q 1059 311 1096 408 q 954 140 1022 213 q 792 25 886 67 q 584 -16 698 -16 q 370 25 465 -16 q 209 140 276 67 q 107 311 142 213 q 72 521 72 408 m 260 521 q 279 346 260 428 q 336 202 297 264 q 437 105 375 140 q 584 69 499 69 q 738 105 676 69 q 838 202 800 140 q 891 346 875 264 q 908 521 908 428 q 889 696 908 615 q 832 840 871 778 q 732 937 794 902 q 584 972 671 972 q 437 937 499 972 q 336 840 375 902 q 279 696 297 778 q 260 521 260 615 "},"Ő":{"ha":1168,"x_min":72,"x_max":1096,"o":"m 707 1168 l 680 1192 q 668 1207 669 1203 q 678 1222 667 1212 l 808 1366 q 843 1387 823 1383 q 883 1385 863 1392 q 915 1363 902 1378 q 930 1311 936 1339 q 899 1268 924 1284 l 732 1163 q 718 1159 722 1158 q 707 1168 715 1160 m 397 1172 l 371 1192 q 362 1210 360 1203 q 375 1226 365 1216 l 501 1366 q 536 1388 516 1383 q 575 1387 556 1392 q 607 1365 594 1381 q 624 1313 628 1341 q 592 1268 619 1285 l 439 1173 q 416 1161 424 1163 q 397 1172 409 1159 m 72 521 q 107 731 72 633 q 209 902 142 828 q 370 1016 276 975 q 584 1058 465 1058 q 798 1016 703 1058 q 959 902 893 975 q 1061 731 1026 828 q 1096 521 1096 633 q 1059 311 1096 408 q 954 140 1022 213 q 792 25 886 67 q 584 -16 698 -16 q 370 25 465 -16 q 209 140 276 67 q 107 311 142 213 q 72 521 72 408 m 260 521 q 279 346 260 428 q 336 202 297 264 q 437 105 375 140 q 584 69 499 69 q 738 105 676 69 q 838 202 800 140 q 891 346 875 264 q 908 521 908 428 q 889 696 908 615 q 832 840 871 778 q 732 937 794 902 q 584 972 671 972 q 437 937 499 972 q 336 840 375 902 q 279 696 297 778 q 260 521 260 615 "},"P":{"ha":980,"x_min":49,"x_max":931,"o":"m 178 950 l 70 950 q 52 955 56 950 q 49 974 49 960 l 49 1015 q 55 1037 49 1033 q 77 1042 60 1042 l 554 1042 q 719 1022 649 1042 q 837 965 790 1002 q 908 872 884 927 q 931 746 931 817 q 908 620 931 676 q 837 527 884 565 q 719 469 790 489 q 554 449 649 449 l 404 449 q 369 443 376 449 q 362 410 362 438 l 362 134 q 368 99 362 106 q 401 92 374 92 l 495 92 q 515 86 512 92 q 518 63 518 80 l 518 34 q 514 7 518 13 q 489 0 510 0 l 87 0 q 57 5 65 0 q 49 32 49 9 l 49 70 q 54 88 49 84 q 73 92 59 92 l 169 92 q 197 99 192 92 q 202 127 202 106 l 202 930 q 197 947 202 943 q 178 950 192 950 m 396 540 l 551 540 q 698 599 646 540 q 751 746 751 657 q 698 893 751 836 q 551 950 646 950 l 383 950 q 365 943 369 950 q 362 922 362 937 l 362 571 q 368 545 362 550 q 396 540 374 540 "},"Q":{"ha":1168,"x_min":72,"x_max":1141,"o":"m 72 521 q 107 731 72 633 q 209 902 142 828 q 370 1016 276 975 q 584 1058 465 1058 q 798 1016 703 1058 q 959 902 893 975 q 1061 731 1026 828 q 1096 521 1096 633 q 1036 259 1096 378 q 872 69 976 140 q 850 51 853 57 q 860 26 847 45 q 900 -24 880 -5 q 942 -44 919 -44 q 1005 -24 980 -44 q 1043 28 1029 -3 q 1059 95 1056 60 q 1063 110 1060 106 q 1078 114 1066 114 l 1113 114 q 1135 110 1130 114 q 1140 89 1141 106 q 1125 -16 1140 33 q 1084 -103 1110 -65 q 1019 -162 1057 -140 q 932 -183 981 -183 q 850 -160 883 -183 q 792 -100 816 -137 q 748 -18 769 -62 q 732 0 741 -2 q 702 -3 724 2 q 584 -16 647 -16 q 370 25 465 -16 q 209 140 276 67 q 107 311 142 213 q 72 521 72 408 m 447 100 q 510 77 476 85 q 584 69 544 69 q 630 72 608 69 q 672 79 651 75 q 699 93 695 85 q 695 117 703 100 q 651 200 674 161 q 596 262 628 238 q 515 286 564 286 q 443 259 470 286 q 410 196 416 233 q 422 128 403 159 q 447 100 425 113 m 822 185 q 888 334 869 247 q 908 521 908 422 q 889 696 908 615 q 832 840 871 778 q 732 937 794 902 q 584 972 671 972 q 437 937 499 972 q 336 840 375 902 q 279 696 297 778 q 260 521 260 615 q 273 376 260 444 q 315 251 286 307 q 330 228 325 228 q 338 249 334 227 q 362 330 342 288 q 419 401 381 372 q 518 431 458 431 q 627 395 581 431 q 710 303 674 359 q 776 189 747 248 q 798 162 790 161 q 822 185 805 163 "},"R":{"ha":1108,"x_min":49,"x_max":1137,"o":"m 1133 134 q 1059 26 1110 69 q 920 -16 1009 -16 q 813 10 849 -16 q 762 81 776 37 q 744 176 748 124 q 737 280 741 228 q 717 376 733 332 q 664 446 701 419 q 553 472 626 472 l 393 472 q 366 466 370 472 q 362 437 362 459 l 362 116 q 367 96 362 100 q 389 92 372 92 l 492 92 q 510 87 506 92 q 515 66 515 82 l 515 24 q 510 5 515 9 q 489 0 505 0 l 72 0 q 54 5 58 0 q 49 23 49 9 l 49 67 q 55 88 49 83 q 75 92 60 92 l 168 92 q 196 97 190 92 q 202 123 202 101 l 202 916 q 196 944 202 939 q 168 950 190 950 l 76 950 q 53 956 57 950 q 49 982 49 963 l 49 1017 q 53 1037 49 1032 q 71 1042 57 1042 l 610 1042 q 820 1005 740 1042 q 936 905 900 968 q 973 765 973 842 q 934 619 973 680 q 797 528 894 558 q 776 514 777 521 q 798 494 774 506 q 871 428 848 467 q 902 343 894 388 q 910 255 910 299 q 913 175 910 211 q 930 117 916 139 q 980 96 944 96 q 1018 113 999 96 q 1052 163 1038 129 q 1061 177 1057 172 q 1077 176 1065 181 l 1117 159 q 1133 149 1128 153 q 1133 134 1137 144 m 394 569 l 610 569 q 706 590 661 569 q 778 653 751 611 q 806 759 806 695 q 778 865 806 823 q 706 929 751 908 q 610 950 661 950 l 394 950 q 366 945 370 950 q 362 917 362 941 l 362 603 q 367 575 362 581 q 394 569 372 569 "},"Ŕ":{"ha":1108,"x_min":49,"x_max":1137,"o":"m 515 1160 l 484 1192 q 484 1215 473 1204 l 624 1357 q 659 1375 638 1372 q 699 1372 679 1379 q 730 1347 719 1365 q 741 1292 749 1317 q 710 1254 733 1267 l 542 1157 q 528 1151 533 1151 q 515 1160 523 1151 m 1133 134 q 1059 26 1110 69 q 920 -16 1009 -16 q 813 10 849 -16 q 762 81 776 37 q 744 176 748 124 q 737 280 741 228 q 717 376 733 332 q 664 446 701 419 q 553 472 626 472 l 393 472 q 366 466 370 472 q 362 437 362 459 l 362 116 q 367 96 362 100 q 389 92 372 92 l 492 92 q 510 87 506 92 q 515 66 515 82 l 515 24 q 510 5 515 9 q 489 0 505 0 l 72 0 q 54 5 58 0 q 49 23 49 9 l 49 67 q 55 88 49 83 q 75 92 60 92 l 168 92 q 196 97 190 92 q 202 123 202 101 l 202 916 q 196 944 202 939 q 168 950 190 950 l 76 950 q 53 956 57 950 q 49 982 49 963 l 49 1017 q 53 1037 49 1032 q 71 1042 57 1042 l 610 1042 q 820 1005 740 1042 q 936 905 900 968 q 973 765 973 842 q 934 619 973 680 q 797 528 894 558 q 776 514 777 521 q 798 494 774 506 q 871 428 848 467 q 902 343 894 388 q 910 255 910 299 q 913 175 910 211 q 930 117 916 139 q 980 96 944 96 q 1018 113 999 96 q 1052 163 1038 129 q 1061 177 1057 172 q 1077 176 1065 181 l 1117 159 q 1133 149 1128 153 q 1133 134 1137 144 m 394 569 l 610 569 q 706 590 661 569 q 778 653 751 611 q 806 759 806 695 q 778 865 806 823 q 706 929 751 908 q 610 950 661 950 l 394 950 q 366 945 370 950 q 362 917 362 941 l 362 603 q 367 575 362 581 q 394 569 372 569 "},"Ŗ":{"ha":1108,"x_min":49,"x_max":1137,"o":"m 494 -211 q 519 -157 494 -178 q 578 -135 544 -135 q 641 -166 616 -135 q 667 -261 667 -196 q 656 -325 667 -293 q 623 -384 644 -357 q 573 -430 602 -412 q 508 -452 544 -448 q 498 -451 501 -452 q 495 -442 495 -450 l 495 -412 q 509 -399 495 -401 q 558 -378 535 -395 q 594 -335 581 -361 q 606 -280 608 -310 q 602 -275 606 -274 q 594 -278 599 -276 q 580 -284 588 -283 q 563 -285 572 -285 q 512 -264 531 -285 q 494 -211 494 -242 m 1133 134 q 1059 26 1110 69 q 920 -16 1009 -16 q 813 10 849 -16 q 762 81 776 37 q 744 176 748 124 q 737 280 741 228 q 717 376 733 332 q 664 446 701 419 q 553 472 626 472 l 393 472 q 366 466 370 472 q 362 437 362 459 l 362 116 q 367 96 362 100 q 389 92 372 92 l 492 92 q 510 87 506 92 q 515 66 515 82 l 515 24 q 510 5 515 9 q 489 0 505 0 l 72 0 q 54 5 58 0 q 49 23 49 9 l 49 67 q 55 88 49 83 q 75 92 60 92 l 168 92 q 196 97 190 92 q 202 123 202 101 l 202 916 q 196 944 202 939 q 168 950 190 950 l 76 950 q 53 956 57 950 q 49 982 49 963 l 49 1017 q 53 1037 49 1032 q 71 1042 57 1042 l 610 1042 q 820 1005 740 1042 q 936 905 900 968 q 973 765 973 842 q 934 619 973 680 q 797 528 894 558 q 776 514 777 521 q 798 494 774 506 q 871 428 848 467 q 902 343 894 388 q 910 255 910 299 q 913 175 910 211 q 930 117 916 139 q 980 96 944 96 q 1018 113 999 96 q 1052 163 1038 129 q 1061 177 1057 172 q 1077 176 1065 181 l 1117 159 q 1133 149 1128 153 q 1133 134 1137 144 m 394 569 l 610 569 q 706 590 661 569 q 778 653 751 611 q 806 759 806 695 q 778 865 806 823 q 706 929 751 908 q 610 950 661 950 l 394 950 q 366 945 370 950 q 362 917 362 941 l 362 603 q 367 575 362 581 q 394 569 372 569 "},"Ř":{"ha":1108,"x_min":49,"x_max":1137,"o":"m 472 1189 l 355 1313 q 345 1327 347 1322 q 353 1340 344 1333 l 372 1356 q 387 1363 382 1364 q 403 1354 392 1362 l 515 1279 q 550 1266 535 1267 q 583 1279 565 1266 l 702 1363 q 718 1368 713 1370 q 732 1357 723 1366 l 744 1345 q 755 1331 753 1336 q 748 1316 757 1326 l 624 1185 q 610 1173 616 1177 q 589 1169 605 1169 l 523 1169 q 492 1174 503 1169 q 472 1189 481 1180 m 1133 134 q 1059 26 1110 69 q 920 -16 1009 -16 q 813 10 849 -16 q 762 81 776 37 q 744 176 748 124 q 737 280 741 228 q 717 376 733 332 q 664 446 701 419 q 553 472 626 472 l 393 472 q 366 466 370 472 q 362 437 362 459 l 362 116 q 367 96 362 100 q 389 92 372 92 l 492 92 q 510 87 506 92 q 515 66 515 82 l 515 24 q 510 5 515 9 q 489 0 505 0 l 72 0 q 54 5 58 0 q 49 23 49 9 l 49 67 q 55 88 49 83 q 75 92 60 92 l 168 92 q 196 97 190 92 q 202 123 202 101 l 202 916 q 196 944 202 939 q 168 950 190 950 l 76 950 q 53 956 57 950 q 49 982 49 963 l 49 1017 q 53 1037 49 1032 q 71 1042 57 1042 l 610 1042 q 820 1005 740 1042 q 936 905 900 968 q 973 765 973 842 q 934 619 973 680 q 797 528 894 558 q 776 514 777 521 q 798 494 774 506 q 871 428 848 467 q 902 343 894 388 q 910 255 910 299 q 913 175 910 211 q 930 117 916 139 q 980 96 944 96 q 1018 113 999 96 q 1052 163 1038 129 q 1061 177 1057 172 q 1077 176 1065 181 l 1117 159 q 1133 149 1128 153 q 1133 134 1137 144 m 394 569 l 610 569 q 706 590 661 569 q 778 653 751 611 q 806 759 806 695 q 778 865 806 823 q 706 929 751 908 q 610 950 661 950 l 394 950 q 366 945 370 950 q 362 917 362 941 l 362 603 q 367 575 362 581 q 394 569 372 569 "},"Ȓ":{"ha":1108,"x_min":49,"x_max":1137,"o":"m 552 1353 q 679 1305 644 1353 q 715 1177 714 1257 q 699 1164 715 1164 l 676 1164 q 664 1175 665 1164 q 632 1240 660 1218 q 552 1262 603 1262 q 475 1242 504 1262 q 440 1184 446 1222 q 438 1169 438 1174 q 425 1164 438 1164 l 401 1164 q 388 1167 390 1164 q 387 1181 386 1170 q 426 1306 390 1258 q 552 1353 462 1353 m 1133 134 q 1059 26 1110 69 q 920 -16 1009 -16 q 813 10 849 -16 q 762 81 776 37 q 744 176 748 124 q 737 280 741 228 q 717 376 733 332 q 664 446 701 419 q 553 472 626 472 l 393 472 q 366 466 370 472 q 362 437 362 459 l 362 116 q 367 96 362 100 q 389 92 372 92 l 492 92 q 510 87 506 92 q 515 66 515 82 l 515 24 q 510 5 515 9 q 489 0 505 0 l 72 0 q 54 5 58 0 q 49 23 49 9 l 49 67 q 55 88 49 83 q 75 92 60 92 l 168 92 q 196 97 190 92 q 202 123 202 101 l 202 916 q 196 944 202 939 q 168 950 190 950 l 76 950 q 53 956 57 950 q 49 982 49 963 l 49 1017 q 53 1037 49 1032 q 71 1042 57 1042 l 610 1042 q 820 1005 740 1042 q 936 905 900 968 q 973 765 973 842 q 934 619 973 680 q 797 528 894 558 q 776 514 777 521 q 798 494 774 506 q 871 428 848 467 q 902 343 894 388 q 910 255 910 299 q 913 175 910 211 q 930 117 916 139 q 980 96 944 96 q 1018 113 999 96 q 1052 163 1038 129 q 1061 177 1057 172 q 1077 176 1065 181 l 1117 159 q 1133 149 1128 153 q 1133 134 1137 144 m 394 569 l 610 569 q 706 590 661 569 q 778 653 751 611 q 806 759 806 695 q 778 865 806 823 q 706 929 751 908 q 610 950 661 950 l 394 950 q 366 945 370 950 q 362 917 362 941 l 362 603 q 367 575 362 581 q 394 569 372 569 "},"S":{"ha":947,"x_min":85,"x_max":885,"o":"m 756 724 q 712 854 749 799 q 616 940 675 909 q 486 970 558 970 q 323 924 372 970 q 274 811 274 878 q 307 717 274 753 q 395 661 340 682 q 515 624 449 640 q 645 586 580 607 q 765 531 710 565 q 852 441 819 497 q 885 296 885 385 q 840 123 885 194 q 708 15 794 51 q 502 -22 622 -22 q 354 6 422 -22 q 240 74 287 33 q 218 86 224 88 q 202 62 211 83 l 182 13 q 170 -4 176 -1 q 144 -7 164 -7 l 113 -7 q 91 -2 97 -7 q 85 18 85 2 l 85 340 q 91 359 85 356 q 113 362 97 362 l 151 362 q 171 356 167 362 q 175 337 174 350 q 219 209 181 272 q 323 106 257 147 q 482 65 390 65 q 627 93 572 65 q 708 167 683 122 q 734 257 734 211 q 701 360 734 322 q 614 422 669 399 q 494 461 560 445 q 364 497 429 478 q 244 547 299 515 q 157 630 190 578 q 124 766 124 682 q 151 895 124 841 q 226 986 178 950 q 335 1039 274 1022 q 465 1056 397 1056 q 591 1035 532 1056 q 692 978 650 1014 q 714 966 705 967 q 731 985 722 966 l 752 1032 q 758 1040 756 1038 q 770 1042 760 1042 l 824 1042 q 841 1037 838 1042 q 845 1017 845 1032 l 845 717 q 840 699 845 701 q 819 696 834 696 l 782 696 q 759 701 761 696 q 756 724 758 706 "},"Ś":{"ha":947,"x_min":85,"x_max":885,"o":"m 447 1160 l 415 1192 q 415 1215 404 1204 l 555 1357 q 590 1375 569 1372 q 631 1372 610 1379 q 661 1347 651 1365 q 672 1292 681 1317 q 642 1254 664 1267 l 473 1157 q 459 1151 464 1151 q 447 1160 454 1151 m 756 724 q 712 854 749 799 q 616 940 675 909 q 486 970 558 970 q 323 924 372 970 q 274 811 274 878 q 307 717 274 753 q 395 661 340 682 q 515 624 449 640 q 645 586 580 607 q 765 531 710 565 q 852 441 819 497 q 885 296 885 385 q 840 123 885 194 q 708 15 794 51 q 502 -22 622 -22 q 354 6 422 -22 q 240 74 287 33 q 218 86 224 88 q 202 62 211 83 l 182 13 q 170 -4 176 -1 q 144 -7 164 -7 l 113 -7 q 91 -2 97 -7 q 85 18 85 2 l 85 340 q 91 359 85 356 q 113 362 97 362 l 151 362 q 171 356 167 362 q 175 337 174 350 q 219 209 181 272 q 323 106 257 147 q 482 65 390 65 q 627 93 572 65 q 708 167 683 122 q 734 257 734 211 q 701 360 734 322 q 614 422 669 399 q 494 461 560 445 q 364 497 429 478 q 244 547 299 515 q 157 630 190 578 q 124 766 124 682 q 151 895 124 841 q 226 986 178 950 q 335 1039 274 1022 q 465 1056 397 1056 q 591 1035 532 1056 q 692 978 650 1014 q 714 966 705 967 q 731 985 722 966 l 752 1032 q 758 1040 756 1038 q 770 1042 760 1042 l 824 1042 q 841 1037 838 1042 q 845 1017 845 1032 l 845 717 q 840 699 845 701 q 819 696 834 696 l 782 696 q 759 701 761 696 q 756 724 758 706 "},"Ŝ":{"ha":947,"x_min":85,"x_max":885,"o":"m 303 1169 l 283 1190 q 275 1200 275 1197 q 283 1211 275 1203 l 413 1349 q 428 1358 421 1356 q 450 1360 435 1360 l 519 1360 q 539 1358 533 1360 q 551 1349 544 1355 l 684 1208 q 690 1201 690 1203 q 684 1193 690 1199 l 657 1166 q 647 1159 649 1158 q 635 1165 644 1159 l 499 1266 q 465 1267 481 1279 l 328 1165 q 303 1169 316 1156 m 756 724 q 712 854 749 799 q 616 940 675 909 q 486 970 558 970 q 323 924 372 970 q 274 811 274 878 q 307 717 274 753 q 395 661 340 682 q 515 624 449 640 q 645 586 580 607 q 765 531 710 565 q 852 441 819 497 q 885 296 885 385 q 840 123 885 194 q 708 15 794 51 q 502 -22 622 -22 q 354 6 422 -22 q 240 74 287 33 q 218 86 224 88 q 202 62 211 83 l 182 13 q 170 -4 176 -1 q 144 -7 164 -7 l 113 -7 q 91 -2 97 -7 q 85 18 85 2 l 85 340 q 91 359 85 356 q 113 362 97 362 l 151 362 q 171 356 167 362 q 175 337 174 350 q 219 209 181 272 q 323 106 257 147 q 482 65 390 65 q 627 93 572 65 q 708 167 683 122 q 734 257 734 211 q 701 360 734 322 q 614 422 669 399 q 494 461 560 445 q 364 497 429 478 q 244 547 299 515 q 157 630 190 578 q 124 766 124 682 q 151 895 124 841 q 226 986 178 950 q 335 1039 274 1022 q 465 1056 397 1056 q 591 1035 532 1056 q 692 978 650 1014 q 714 966 705 967 q 731 985 722 966 l 752 1032 q 758 1040 756 1038 q 770 1042 760 1042 l 824 1042 q 841 1037 838 1042 q 845 1017 845 1032 l 845 717 q 840 699 845 701 q 819 696 834 696 l 782 696 q 759 701 761 696 q 756 724 758 706 "},"Ş":{"ha":947,"x_min":85,"x_max":885,"o":"m 374 -356 l 374 -335 q 379 -320 374 -324 q 395 -317 385 -317 q 474 -299 438 -313 q 510 -251 510 -284 q 491 -210 510 -224 q 443 -189 472 -195 q 383 -180 414 -183 q 360 -173 363 -178 q 364 -160 357 -169 l 469 -17 q 475 -11 473 -12 q 486 -10 478 -10 l 526 -10 q 540 -13 542 -10 q 533 -24 539 -16 l 476 -101 q 468 -116 467 -113 q 489 -119 470 -118 q 583 -150 547 -124 q 618 -233 618 -175 q 598 -301 618 -274 q 545 -344 578 -328 q 472 -367 512 -360 q 391 -376 432 -374 q 374 -356 374 -376 m 756 724 q 712 854 749 799 q 616 940 675 909 q 486 970 558 970 q 323 924 372 970 q 274 811 274 878 q 307 717 274 753 q 395 661 340 682 q 515 624 449 640 q 645 586 580 607 q 765 531 710 565 q 852 441 819 497 q 885 296 885 385 q 840 123 885 194 q 708 15 794 51 q 502 -22 622 -22 q 354 6 422 -22 q 240 74 287 33 q 218 86 224 88 q 202 62 211 83 l 182 13 q 170 -4 176 -1 q 144 -7 164 -7 l 113 -7 q 91 -2 97 -7 q 85 18 85 2 l 85 340 q 91 359 85 356 q 113 362 97 362 l 151 362 q 171 356 167 362 q 175 337 174 350 q 219 209 181 272 q 323 106 257 147 q 482 65 390 65 q 627 93 572 65 q 708 167 683 122 q 734 257 734 211 q 701 360 734 322 q 614 422 669 399 q 494 461 560 445 q 364 497 429 478 q 244 547 299 515 q 157 630 190 578 q 124 766 124 682 q 151 895 124 841 q 226 986 178 950 q 335 1039 274 1022 q 465 1056 397 1056 q 591 1035 532 1056 q 692 978 650 1014 q 714 966 705 967 q 731 985 722 966 l 752 1032 q 758 1040 756 1038 q 770 1042 760 1042 l 824 1042 q 841 1037 838 1042 q 845 1017 845 1032 l 845 717 q 840 699 845 701 q 819 696 834 696 l 782 696 q 759 701 761 696 q 756 724 758 706 "},"Š":{"ha":947,"x_min":85,"x_max":885,"o":"m 403 1189 l 286 1313 q 277 1327 278 1322 q 285 1340 276 1333 l 303 1356 q 318 1363 313 1364 q 335 1354 323 1362 l 447 1279 q 481 1266 466 1267 q 515 1279 497 1266 l 633 1363 q 649 1368 644 1370 q 663 1357 654 1366 l 676 1345 q 686 1331 685 1336 q 679 1316 688 1326 l 555 1185 q 542 1173 547 1177 q 520 1169 536 1169 l 454 1169 q 423 1174 434 1169 q 403 1189 413 1180 m 756 724 q 712 854 749 799 q 616 940 675 909 q 486 970 558 970 q 323 924 372 970 q 274 811 274 878 q 307 717 274 753 q 395 661 340 682 q 515 624 449 640 q 645 586 580 607 q 765 531 710 565 q 852 441 819 497 q 885 296 885 385 q 840 123 885 194 q 708 15 794 51 q 502 -22 622 -22 q 354 6 422 -22 q 240 74 287 33 q 218 86 224 88 q 202 62 211 83 l 182 13 q 170 -4 176 -1 q 144 -7 164 -7 l 113 -7 q 91 -2 97 -7 q 85 18 85 2 l 85 340 q 91 359 85 356 q 113 362 97 362 l 151 362 q 171 356 167 362 q 175 337 174 350 q 219 209 181 272 q 323 106 257 147 q 482 65 390 65 q 627 93 572 65 q 708 167 683 122 q 734 257 734 211 q 701 360 734 322 q 614 422 669 399 q 494 461 560 445 q 364 497 429 478 q 244 547 299 515 q 157 630 190 578 q 124 766 124 682 q 151 895 124 841 q 226 986 178 950 q 335 1039 274 1022 q 465 1056 397 1056 q 591 1035 532 1056 q 692 978 650 1014 q 714 966 705 967 q 731 985 722 966 l 752 1032 q 758 1040 756 1038 q 770 1042 760 1042 l 824 1042 q 841 1037 838 1042 q 845 1017 845 1032 l 845 717 q 840 699 845 701 q 819 696 834 696 l 782 696 q 759 701 761 696 q 756 724 758 706 "},"Ș":{"ha":947,"x_min":85,"x_max":885,"o":"m 415 -211 q 440 -157 415 -178 q 499 -135 465 -135 q 562 -166 537 -135 q 588 -261 588 -196 q 576 -325 588 -293 q 544 -384 565 -357 q 494 -430 523 -412 q 429 -452 465 -448 q 419 -451 422 -452 q 416 -442 416 -450 l 416 -412 q 430 -399 416 -401 q 478 -378 456 -395 q 515 -335 501 -361 q 527 -280 528 -310 q 523 -275 526 -274 q 515 -278 520 -276 q 501 -284 508 -283 q 483 -285 493 -285 q 433 -264 451 -285 q 415 -211 415 -242 m 756 724 q 712 854 749 799 q 616 940 675 909 q 486 970 558 970 q 323 924 372 970 q 274 811 274 878 q 307 717 274 753 q 395 661 340 682 q 515 624 449 640 q 645 586 580 607 q 765 531 710 565 q 852 441 819 497 q 885 296 885 385 q 840 123 885 194 q 708 15 794 51 q 502 -22 622 -22 q 354 6 422 -22 q 240 74 287 33 q 218 86 224 88 q 202 62 211 83 l 182 13 q 170 -4 176 -1 q 144 -7 164 -7 l 113 -7 q 91 -2 97 -7 q 85 18 85 2 l 85 340 q 91 359 85 356 q 113 362 97 362 l 151 362 q 171 356 167 362 q 175 337 174 350 q 219 209 181 272 q 323 106 257 147 q 482 65 390 65 q 627 93 572 65 q 708 167 683 122 q 734 257 734 211 q 701 360 734 322 q 614 422 669 399 q 494 461 560 445 q 364 497 429 478 q 244 547 299 515 q 157 630 190 578 q 124 766 124 682 q 151 895 124 841 q 226 986 178 950 q 335 1039 274 1022 q 465 1056 397 1056 q 591 1035 532 1056 q 692 978 650 1014 q 714 966 705 967 q 731 985 722 966 l 752 1032 q 758 1040 756 1038 q 770 1042 760 1042 l 824 1042 q 841 1037 838 1042 q 845 1017 845 1032 l 845 717 q 840 699 845 701 q 819 696 834 696 l 782 696 q 759 701 761 696 q 756 724 758 706 "},"T":{"ha":1083,"x_min":64,"x_max":1019,"o":"m 285 29 l 285 66 q 292 88 285 83 q 315 92 299 92 l 426 92 q 458 98 451 92 q 464 131 464 105 l 464 926 q 458 951 464 945 q 434 957 453 957 l 376 957 q 239 934 288 957 q 169 857 190 911 q 147 706 149 802 q 142 682 147 689 q 118 676 138 676 l 90 676 q 68 685 72 676 q 64 710 64 694 l 64 1004 q 69 1035 64 1028 q 97 1042 74 1042 l 990 1042 q 1015 1035 1010 1042 q 1019 1009 1019 1029 l 1019 700 q 1014 680 1019 683 q 990 676 1008 676 l 965 676 q 940 683 944 676 q 935 709 936 691 q 913 858 933 804 q 844 934 892 912 q 708 957 795 957 l 646 957 q 624 951 628 957 q 619 927 619 945 l 619 134 q 625 99 619 106 q 658 92 631 92 l 767 92 q 793 85 789 92 q 798 58 798 79 l 798 31 q 788 5 798 9 q 758 0 777 0 l 318 0 q 292 5 298 0 q 285 29 285 10 "},"Ţ":{"ha":1083,"x_min":64,"x_max":1019,"o":"m 410 -334 l 410 -314 q 415 -299 410 -302 q 431 -295 421 -296 q 510 -277 474 -292 q 546 -230 546 -262 q 527 -188 546 -203 q 479 -167 508 -174 q 419 -158 450 -161 q 396 -152 399 -156 q 400 -138 393 -147 l 506 5 q 511 11 509 10 q 522 12 514 12 l 562 12 q 576 9 578 12 q 569 -2 575 6 l 512 -80 q 505 -94 503 -92 q 525 -98 506 -97 q 619 -128 583 -103 q 654 -212 654 -153 q 634 -279 654 -252 q 581 -322 615 -306 q 508 -345 548 -338 q 427 -354 468 -353 q 410 -334 410 -355 m 285 29 l 285 66 q 292 88 285 83 q 315 92 299 92 l 426 92 q 458 98 451 92 q 464 131 464 105 l 464 926 q 458 951 464 945 q 434 957 453 957 l 376 957 q 239 934 288 957 q 169 857 190 911 q 147 706 149 802 q 142 682 147 689 q 118 676 138 676 l 90 676 q 68 685 72 676 q 64 710 64 694 l 64 1004 q 69 1035 64 1028 q 97 1042 74 1042 l 990 1042 q 1015 1035 1010 1042 q 1019 1009 1019 1029 l 1019 700 q 1014 680 1019 683 q 990 676 1008 676 l 965 676 q 940 683 944 676 q 935 709 936 691 q 913 858 933 804 q 844 934 892 912 q 708 957 795 957 l 646 957 q 624 951 628 957 q 619 927 619 945 l 619 134 q 625 99 619 106 q 658 92 631 92 l 767 92 q 793 85 789 92 q 798 58 798 79 l 798 31 q 788 5 798 9 q 758 0 777 0 l 318 0 q 292 5 298 0 q 285 29 285 10 "},"Ť":{"ha":1083,"x_min":64,"x_max":1019,"o":"m 457 1189 l 340 1313 q 331 1327 332 1322 q 339 1340 330 1333 l 357 1356 q 372 1363 367 1364 q 389 1354 377 1362 l 501 1279 q 535 1266 520 1267 q 569 1279 551 1266 l 688 1363 q 703 1368 698 1370 q 717 1357 708 1366 l 730 1345 q 741 1331 739 1336 q 733 1316 742 1326 l 609 1185 q 596 1173 601 1177 q 574 1169 590 1169 l 508 1169 q 477 1174 488 1169 q 457 1189 467 1180 m 285 29 l 285 66 q 292 88 285 83 q 315 92 299 92 l 426 92 q 458 98 451 92 q 464 131 464 105 l 464 926 q 458 951 464 945 q 434 957 453 957 l 376 957 q 239 934 288 957 q 169 857 190 911 q 147 706 149 802 q 142 682 147 689 q 118 676 138 676 l 90 676 q 68 685 72 676 q 64 710 64 694 l 64 1004 q 69 1035 64 1028 q 97 1042 74 1042 l 990 1042 q 1015 1035 1010 1042 q 1019 1009 1019 1029 l 1019 700 q 1014 680 1019 683 q 990 676 1008 676 l 965 676 q 940 683 944 676 q 935 709 936 691 q 913 858 933 804 q 844 934 892 912 q 708 957 795 957 l 646 957 q 624 951 628 957 q 619 927 619 945 l 619 134 q 625 99 619 106 q 658 92 631 92 l 767 92 q 793 85 789 92 q 798 58 798 79 l 798 31 q 788 5 798 9 q 758 0 777 0 l 318 0 q 292 5 298 0 q 285 29 285 10 "},"Ț":{"ha":1083,"x_min":64,"x_max":1019,"o":"m 453 -211 q 478 -157 453 -178 q 538 -135 503 -135 q 601 -166 576 -135 q 626 -261 626 -196 q 615 -325 626 -293 q 583 -384 604 -357 q 533 -430 562 -412 q 468 -452 503 -448 q 458 -451 461 -452 q 455 -442 455 -450 l 455 -412 q 469 -399 455 -401 q 517 -378 494 -395 q 554 -335 540 -361 q 566 -280 567 -310 q 562 -275 565 -274 q 554 -278 559 -276 q 540 -284 547 -283 q 522 -285 532 -285 q 472 -264 490 -285 q 453 -211 453 -242 m 285 29 l 285 66 q 292 88 285 83 q 315 92 299 92 l 426 92 q 458 98 451 92 q 464 131 464 105 l 464 926 q 458 951 464 945 q 434 957 453 957 l 376 957 q 239 934 288 957 q 169 857 190 911 q 147 706 149 802 q 142 682 147 689 q 118 676 138 676 l 90 676 q 68 685 72 676 q 64 710 64 694 l 64 1004 q 69 1035 64 1028 q 97 1042 74 1042 l 990 1042 q 1015 1035 1010 1042 q 1019 1009 1019 1029 l 1019 700 q 1014 680 1019 683 q 990 676 1008 676 l 965 676 q 940 683 944 676 q 935 709 936 691 q 913 858 933 804 q 844 934 892 912 q 708 957 795 957 l 646 957 q 624 951 628 957 q 619 927 619 945 l 619 134 q 625 99 619 106 q 658 92 631 92 l 767 92 q 793 85 789 92 q 798 58 798 79 l 798 31 q 788 5 798 9 q 758 0 777 0 l 318 0 q 292 5 298 0 q 285 29 285 10 "},"U":{"ha":1185,"x_min":32,"x_max":1153,"o":"m 871 950 l 751 950 q 732 955 737 950 q 728 975 728 960 l 728 1011 q 733 1036 728 1031 q 757 1042 739 1042 l 1122 1042 q 1147 1037 1140 1042 q 1153 1013 1153 1033 l 1153 977 q 1147 955 1153 959 q 1122 950 1140 950 l 1033 950 q 1006 945 1012 950 q 1000 921 1000 940 l 1000 417 q 903 86 1000 193 q 598 -22 807 -22 q 401 11 481 -22 q 275 103 322 44 q 206 243 227 163 q 185 419 185 324 l 185 920 q 177 945 185 941 q 150 950 169 950 l 58 950 q 36 956 40 950 q 32 981 32 962 l 32 1015 q 39 1037 32 1033 q 63 1042 46 1042 l 479 1042 q 504 1038 497 1042 q 511 1015 511 1033 l 511 981 q 505 955 511 960 q 478 950 498 950 l 380 950 q 350 945 356 950 q 344 917 344 940 l 344 435 q 369 250 344 330 q 454 124 393 169 q 624 78 515 78 q 785 112 724 78 q 874 220 846 146 q 901 417 901 295 l 901 918 q 896 944 901 938 q 871 950 891 950 "},"Ù":{"ha":1185,"x_min":32,"x_max":1153,"o":"m 634 1154 l 460 1254 q 430 1292 439 1267 q 440 1347 422 1317 q 472 1372 452 1365 q 513 1375 492 1379 q 547 1357 533 1372 l 685 1216 q 686 1191 698 1203 l 655 1158 q 645 1151 649 1152 q 634 1154 642 1149 m 871 950 l 751 950 q 732 955 737 950 q 728 975 728 960 l 728 1011 q 733 1036 728 1031 q 757 1042 739 1042 l 1122 1042 q 1147 1037 1140 1042 q 1153 1013 1153 1033 l 1153 977 q 1147 955 1153 959 q 1122 950 1140 950 l 1033 950 q 1006 945 1012 950 q 1000 921 1000 940 l 1000 417 q 903 86 1000 193 q 598 -22 807 -22 q 401 11 481 -22 q 275 103 322 44 q 206 243 227 163 q 185 419 185 324 l 185 920 q 177 945 185 941 q 150 950 169 950 l 58 950 q 36 956 40 950 q 32 981 32 962 l 32 1015 q 39 1037 32 1033 q 63 1042 46 1042 l 479 1042 q 504 1038 497 1042 q 511 1015 511 1033 l 511 981 q 505 955 511 960 q 478 950 498 950 l 380 950 q 350 945 356 950 q 344 917 344 940 l 344 435 q 369 250 344 330 q 454 124 393 169 q 624 78 515 78 q 785 112 724 78 q 874 220 846 146 q 901 417 901 295 l 901 918 q 896 944 901 938 q 871 950 891 950 "},"Ú":{"ha":1185,"x_min":32,"x_max":1153,"o":"m 585 1160 l 554 1192 q 554 1215 543 1204 l 694 1357 q 729 1375 708 1372 q 769 1372 749 1379 q 800 1347 790 1365 q 811 1292 819 1317 q 781 1254 803 1267 l 612 1157 q 598 1151 603 1151 q 585 1160 593 1151 m 871 950 l 751 950 q 732 955 737 950 q 728 975 728 960 l 728 1011 q 733 1036 728 1031 q 757 1042 739 1042 l 1122 1042 q 1147 1037 1140 1042 q 1153 1013 1153 1033 l 1153 977 q 1147 955 1153 959 q 1122 950 1140 950 l 1033 950 q 1006 945 1012 950 q 1000 921 1000 940 l 1000 417 q 903 86 1000 193 q 598 -22 807 -22 q 401 11 481 -22 q 275 103 322 44 q 206 243 227 163 q 185 419 185 324 l 185 920 q 177 945 185 941 q 150 950 169 950 l 58 950 q 36 956 40 950 q 32 981 32 962 l 32 1015 q 39 1037 32 1033 q 63 1042 46 1042 l 479 1042 q 504 1038 497 1042 q 511 1015 511 1033 l 511 981 q 505 955 511 960 q 478 950 498 950 l 380 950 q 350 945 356 950 q 344 917 344 940 l 344 435 q 369 250 344 330 q 454 124 393 169 q 624 78 515 78 q 785 112 724 78 q 874 220 846 146 q 901 417 901 295 l 901 918 q 896 944 901 938 q 871 950 891 950 "},"Û":{"ha":1185,"x_min":32,"x_max":1153,"o":"m 442 1169 l 422 1190 q 414 1200 414 1197 q 422 1211 414 1203 l 552 1349 q 567 1358 560 1356 q 589 1360 574 1360 l 658 1360 q 677 1358 672 1360 q 690 1349 683 1355 l 823 1208 q 828 1201 828 1203 q 823 1193 828 1199 l 796 1166 q 785 1159 788 1158 q 774 1165 783 1159 l 638 1266 q 603 1267 620 1279 l 467 1165 q 442 1169 455 1156 m 871 950 l 751 950 q 732 955 737 950 q 728 975 728 960 l 728 1011 q 733 1036 728 1031 q 757 1042 739 1042 l 1122 1042 q 1147 1037 1140 1042 q 1153 1013 1153 1033 l 1153 977 q 1147 955 1153 959 q 1122 950 1140 950 l 1033 950 q 1006 945 1012 950 q 1000 921 1000 940 l 1000 417 q 903 86 1000 193 q 598 -22 807 -22 q 401 11 481 -22 q 275 103 322 44 q 206 243 227 163 q 185 419 185 324 l 185 920 q 177 945 185 941 q 150 950 169 950 l 58 950 q 36 956 40 950 q 32 981 32 962 l 32 1015 q 39 1037 32 1033 q 63 1042 46 1042 l 479 1042 q 504 1038 497 1042 q 511 1015 511 1033 l 511 981 q 505 955 511 960 q 478 950 498 950 l 380 950 q 350 945 356 950 q 344 917 344 940 l 344 435 q 369 250 344 330 q 454 124 393 169 q 624 78 515 78 q 785 112 724 78 q 874 220 846 146 q 901 417 901 295 l 901 918 q 896 944 901 938 q 871 950 891 950 "},"Ü":{"ha":1185,"x_min":32,"x_max":1153,"o":"m 721 1144 q 667 1166 689 1144 q 644 1220 644 1188 q 667 1274 644 1251 q 721 1297 689 1297 q 774 1274 752 1297 q 797 1220 797 1251 q 774 1166 797 1188 q 721 1144 752 1144 m 475 1144 q 422 1166 444 1144 q 399 1220 399 1188 q 422 1274 399 1251 q 475 1297 444 1297 q 529 1274 507 1297 q 551 1220 551 1251 q 529 1166 551 1188 q 475 1144 507 1144 m 871 950 l 751 950 q 732 955 737 950 q 728 975 728 960 l 728 1011 q 733 1036 728 1031 q 757 1042 739 1042 l 1122 1042 q 1147 1037 1140 1042 q 1153 1013 1153 1033 l 1153 977 q 1147 955 1153 959 q 1122 950 1140 950 l 1033 950 q 1006 945 1012 950 q 1000 921 1000 940 l 1000 417 q 903 86 1000 193 q 598 -22 807 -22 q 401 11 481 -22 q 275 103 322 44 q 206 243 227 163 q 185 419 185 324 l 185 920 q 177 945 185 941 q 150 950 169 950 l 58 950 q 36 956 40 950 q 32 981 32 962 l 32 1015 q 39 1037 32 1033 q 63 1042 46 1042 l 479 1042 q 504 1038 497 1042 q 511 1015 511 1033 l 511 981 q 505 955 511 960 q 478 950 498 950 l 380 950 q 350 945 356 950 q 344 917 344 940 l 344 435 q 369 250 344 330 q 454 124 393 169 q 624 78 515 78 q 785 112 724 78 q 874 220 846 146 q 901 417 901 295 l 901 918 q 896 944 901 938 q 871 950 891 950 "},"Ũ":{"ha":1185,"x_min":32,"x_max":1153,"o":"m 729 1162 q 656 1178 685 1162 q 604 1216 627 1195 q 564 1250 585 1233 q 513 1267 543 1267 q 460 1247 477 1267 q 440 1190 442 1227 q 426 1181 438 1181 l 394 1181 q 381 1186 383 1181 q 380 1201 379 1191 q 405 1282 384 1246 q 459 1340 425 1319 q 535 1362 492 1362 q 608 1345 579 1362 q 657 1308 636 1329 q 693 1274 674 1291 q 740 1256 712 1256 q 811 1328 804 1256 q 815 1340 813 1336 q 827 1343 817 1343 l 859 1343 q 871 1340 869 1343 q 872 1328 873 1336 q 855 1239 871 1276 q 808 1182 839 1201 q 729 1162 777 1162 m 871 950 l 751 950 q 732 955 737 950 q 728 975 728 960 l 728 1011 q 733 1036 728 1031 q 757 1042 739 1042 l 1122 1042 q 1147 1037 1140 1042 q 1153 1013 1153 1033 l 1153 977 q 1147 955 1153 959 q 1122 950 1140 950 l 1033 950 q 1006 945 1012 950 q 1000 921 1000 940 l 1000 417 q 903 86 1000 193 q 598 -22 807 -22 q 401 11 481 -22 q 275 103 322 44 q 206 243 227 163 q 185 419 185 324 l 185 920 q 177 945 185 941 q 150 950 169 950 l 58 950 q 36 956 40 950 q 32 981 32 962 l 32 1015 q 39 1037 32 1033 q 63 1042 46 1042 l 479 1042 q 504 1038 497 1042 q 511 1015 511 1033 l 511 981 q 505 955 511 960 q 478 950 498 950 l 380 950 q 350 945 356 950 q 344 917 344 940 l 344 435 q 369 250 344 330 q 454 124 393 169 q 624 78 515 78 q 785 112 724 78 q 874 220 846 146 q 901 417 901 295 l 901 918 q 896 944 901 938 q 871 950 891 950 "},"Ū":{"ha":1185,"x_min":32,"x_max":1153,"o":"m 453 1184 l 453 1217 q 456 1231 453 1226 q 467 1235 458 1235 l 763 1235 q 782 1232 776 1235 q 787 1214 787 1228 l 787 1183 q 785 1167 787 1172 q 772 1162 783 1162 l 478 1162 q 459 1166 465 1162 q 453 1184 453 1169 m 871 950 l 751 950 q 732 955 737 950 q 728 975 728 960 l 728 1011 q 733 1036 728 1031 q 757 1042 739 1042 l 1122 1042 q 1147 1037 1140 1042 q 1153 1013 1153 1033 l 1153 977 q 1147 955 1153 959 q 1122 950 1140 950 l 1033 950 q 1006 945 1012 950 q 1000 921 1000 940 l 1000 417 q 903 86 1000 193 q 598 -22 807 -22 q 401 11 481 -22 q 275 103 322 44 q 206 243 227 163 q 185 419 185 324 l 185 920 q 177 945 185 941 q 150 950 169 950 l 58 950 q 36 956 40 950 q 32 981 32 962 l 32 1015 q 39 1037 32 1033 q 63 1042 46 1042 l 479 1042 q 504 1038 497 1042 q 511 1015 511 1033 l 511 981 q 505 955 511 960 q 478 950 498 950 l 380 950 q 350 945 356 950 q 344 917 344 940 l 344 435 q 369 250 344 330 q 454 124 393 169 q 624 78 515 78 q 785 112 724 78 q 874 220 846 146 q 901 417 901 295 l 901 918 q 896 944 901 938 q 871 950 891 950 "},"Ŭ":{"ha":1185,"x_min":32,"x_max":1153,"o":"m 620 1161 q 493 1209 528 1161 q 457 1337 458 1256 q 473 1350 457 1350 l 496 1350 q 508 1339 508 1350 q 541 1274 512 1296 q 620 1252 569 1252 q 697 1272 668 1252 q 733 1330 726 1291 q 734 1345 734 1340 q 747 1350 735 1350 l 772 1350 q 784 1347 783 1350 q 785 1333 786 1344 q 747 1208 783 1255 q 620 1161 710 1161 m 871 950 l 751 950 q 732 955 737 950 q 728 975 728 960 l 728 1011 q 733 1036 728 1031 q 757 1042 739 1042 l 1122 1042 q 1147 1037 1140 1042 q 1153 1013 1153 1033 l 1153 977 q 1147 955 1153 959 q 1122 950 1140 950 l 1033 950 q 1006 945 1012 950 q 1000 921 1000 940 l 1000 417 q 903 86 1000 193 q 598 -22 807 -22 q 401 11 481 -22 q 275 103 322 44 q 206 243 227 163 q 185 419 185 324 l 185 920 q 177 945 185 941 q 150 950 169 950 l 58 950 q 36 956 40 950 q 32 981 32 962 l 32 1015 q 39 1037 32 1033 q 63 1042 46 1042 l 479 1042 q 504 1038 497 1042 q 511 1015 511 1033 l 511 981 q 505 955 511 960 q 478 950 498 950 l 380 950 q 350 945 356 950 q 344 917 344 940 l 344 435 q 369 250 344 330 q 454 124 393 169 q 624 78 515 78 q 785 112 724 78 q 874 220 846 146 q 901 417 901 295 l 901 918 q 896 944 901 938 q 871 950 891 950 "},"Ů":{"ha":1185,"x_min":32,"x_max":1153,"o":"m 620 1163 q 553 1180 583 1163 q 506 1228 523 1198 q 489 1294 489 1258 q 506 1361 489 1331 q 553 1409 523 1391 q 620 1426 583 1426 q 688 1409 658 1426 q 735 1361 718 1391 q 752 1294 752 1331 q 735 1228 752 1258 q 688 1180 717 1198 q 620 1163 658 1163 m 620 1223 q 670 1243 651 1223 q 689 1294 689 1263 q 670 1347 689 1326 q 620 1368 651 1368 q 571 1347 590 1368 q 552 1294 552 1326 q 571 1243 552 1263 q 620 1223 590 1223 m 871 950 l 751 950 q 732 955 737 950 q 728 975 728 960 l 728 1011 q 733 1036 728 1031 q 757 1042 739 1042 l 1122 1042 q 1147 1037 1140 1042 q 1153 1013 1153 1033 l 1153 977 q 1147 955 1153 959 q 1122 950 1140 950 l 1033 950 q 1006 945 1012 950 q 1000 921 1000 940 l 1000 417 q 903 86 1000 193 q 598 -22 807 -22 q 401 11 481 -22 q 275 103 322 44 q 206 243 227 163 q 185 419 185 324 l 185 920 q 177 945 185 941 q 150 950 169 950 l 58 950 q 36 956 40 950 q 32 981 32 962 l 32 1015 q 39 1037 32 1033 q 63 1042 46 1042 l 479 1042 q 504 1038 497 1042 q 511 1015 511 1033 l 511 981 q 505 955 511 960 q 478 950 498 950 l 380 950 q 350 945 356 950 q 344 917 344 940 l 344 435 q 369 250 344 330 q 454 124 393 169 q 624 78 515 78 q 785 112 724 78 q 874 220 846 146 q 901 417 901 295 l 901 918 q 896 944 901 938 q 871 950 891 950 "},"Ű":{"ha":1185,"x_min":32,"x_max":1153,"o":"m 746 1168 l 719 1192 q 707 1207 708 1203 q 717 1222 706 1212 l 847 1366 q 882 1387 862 1383 q 922 1385 902 1392 q 954 1363 941 1378 q 969 1311 975 1339 q 938 1268 963 1284 l 771 1163 q 757 1159 761 1158 q 746 1168 753 1160 m 435 1172 l 410 1192 q 401 1210 399 1203 q 414 1226 403 1216 l 540 1366 q 575 1388 555 1383 q 614 1387 594 1392 q 646 1365 633 1381 q 663 1313 667 1341 q 631 1268 658 1285 l 478 1173 q 455 1161 463 1163 q 435 1172 448 1159 m 871 950 l 751 950 q 732 955 737 950 q 728 975 728 960 l 728 1011 q 733 1036 728 1031 q 757 1042 739 1042 l 1122 1042 q 1147 1037 1140 1042 q 1153 1013 1153 1033 l 1153 977 q 1147 955 1153 959 q 1122 950 1140 950 l 1033 950 q 1006 945 1012 950 q 1000 921 1000 940 l 1000 417 q 903 86 1000 193 q 598 -22 807 -22 q 401 11 481 -22 q 275 103 322 44 q 206 243 227 163 q 185 419 185 324 l 185 920 q 177 945 185 941 q 150 950 169 950 l 58 950 q 36 956 40 950 q 32 981 32 962 l 32 1015 q 39 1037 32 1033 q 63 1042 46 1042 l 479 1042 q 504 1038 497 1042 q 511 1015 511 1033 l 511 981 q 505 955 511 960 q 478 950 498 950 l 380 950 q 350 945 356 950 q 344 917 344 940 l 344 435 q 369 250 344 330 q 454 124 393 169 q 624 78 515 78 q 785 112 724 78 q 874 220 846 146 q 901 417 901 295 l 901 918 q 896 944 901 938 q 871 950 891 950 "},"Ų":{"ha":1185,"x_min":32,"x_max":1153,"o":"m 703 -277 q 594 -253 640 -277 q 548 -169 548 -228 q 566 -108 548 -137 q 612 -53 584 -79 q 672 -4 640 -27 q 732 38 704 19 q 754 46 744 45 q 768 42 764 47 q 772 27 775 35 q 761 10 769 20 q 728 -30 745 -8 q 699 -78 710 -53 q 687 -132 687 -103 q 702 -180 687 -158 q 752 -201 717 -201 q 795 -189 778 -201 q 824 -160 813 -176 q 844 -156 834 -147 l 859 -167 q 866 -175 866 -172 q 862 -186 866 -178 q 804 -251 841 -224 q 703 -277 767 -277 m 871 950 l 751 950 q 732 955 737 950 q 728 975 728 960 l 728 1011 q 733 1036 728 1031 q 757 1042 739 1042 l 1122 1042 q 1147 1037 1140 1042 q 1153 1013 1153 1033 l 1153 977 q 1147 955 1153 959 q 1122 950 1140 950 l 1033 950 q 1006 945 1012 950 q 1000 921 1000 940 l 1000 417 q 903 86 1000 193 q 598 -22 807 -22 q 401 11 481 -22 q 275 103 322 44 q 206 243 227 163 q 185 419 185 324 l 185 920 q 177 945 185 941 q 150 950 169 950 l 58 950 q 36 956 40 950 q 32 981 32 962 l 32 1015 q 39 1037 32 1033 q 63 1042 46 1042 l 479 1042 q 504 1038 497 1042 q 511 1015 511 1033 l 511 981 q 505 955 511 960 q 478 950 498 950 l 380 950 q 350 945 356 950 q 344 917 344 940 l 344 435 q 369 250 344 330 q 454 124 393 169 q 624 78 515 78 q 785 112 724 78 q 874 220 846 146 q 901 417 901 295 l 901 918 q 896 944 901 938 q 871 950 891 950 "},"V":{"ha":1212,"x_min":-1,"x_max":1213,"o":"m 686 248 l 964 919 q 966 944 972 939 q 931 950 960 950 l 840 950 q 819 953 824 950 q 815 972 815 957 l 815 1017 q 818 1037 815 1032 q 837 1042 822 1042 l 1189 1042 q 1209 1036 1205 1042 q 1213 1014 1213 1031 l 1213 975 q 1210 956 1213 962 q 1192 950 1207 950 l 1104 950 q 1073 942 1081 950 q 1059 919 1065 935 l 681 10 q 673 -7 677 1 q 662 -17 669 -14 q 640 -21 655 -21 l 598 -21 q 567 -15 575 -21 q 552 7 558 -8 l 166 927 q 155 946 160 942 q 128 950 150 950 l 23 950 q 3 956 6 950 q -1 978 -1 962 l -1 1014 q 5 1037 -1 1032 q 27 1042 10 1042 l 462 1042 q 484 1035 481 1042 q 488 1009 488 1028 l 488 983 q 483 956 488 961 q 456 950 478 950 l 380 950 q 347 942 351 950 q 351 915 343 934 l 610 268 q 633 217 624 235 q 650 197 642 199 q 666 207 658 194 q 686 248 674 219 "},"W":{"ha":1660,"x_min":-1,"x_max":1661,"o":"m 596 258 l 797 797 q 810 832 806 818 q 806 870 814 847 l 788 925 q 776 945 783 940 q 749 950 769 950 l 685 950 q 664 956 667 950 q 660 981 660 962 l 660 1007 q 665 1036 660 1030 q 693 1042 671 1042 l 1042 1042 q 1065 1037 1058 1042 q 1072 1015 1072 1032 l 1072 983 q 1062 955 1072 960 q 1031 950 1053 950 l 991 950 q 956 944 964 950 q 954 917 947 938 l 1135 318 q 1143 280 1140 301 q 1151 244 1147 259 q 1160 229 1156 229 q 1170 236 1165 229 q 1183 264 1176 242 l 1403 924 q 1408 946 1409 942 q 1383 950 1408 950 l 1288 950 q 1265 956 1269 950 q 1260 981 1260 962 l 1260 1006 q 1265 1035 1260 1028 q 1292 1042 1270 1042 l 1626 1042 q 1654 1038 1647 1042 q 1661 1012 1661 1033 l 1661 980 q 1656 955 1661 960 q 1630 950 1650 950 l 1535 950 q 1508 944 1513 950 q 1497 922 1503 938 l 1192 6 q 1182 -11 1187 -8 q 1158 -14 1178 -14 l 1117 -14 q 1092 -8 1097 -14 q 1081 13 1086 -3 l 901 578 q 888 626 894 600 q 877 672 883 653 q 863 691 871 691 q 838 653 852 691 l 597 15 q 587 -8 591 -2 q 558 -14 583 -14 l 518 -14 q 490 -7 497 -14 q 478 15 483 0 l 159 921 q 144 944 152 939 q 111 950 136 950 l 28 950 q 5 955 10 950 q -1 977 -1 959 l -1 1009 q 5 1036 -1 1031 q 31 1042 10 1042 l 441 1042 q 471 1035 462 1042 q 481 1006 481 1028 l 481 976 q 473 954 481 958 q 449 950 466 950 l 365 950 q 331 943 336 950 q 332 915 326 935 l 531 330 q 543 283 538 308 q 555 238 549 257 q 569 219 561 219 q 582 228 576 219 q 596 258 588 238 "},"Ŵ":{"ha":1660,"x_min":-1,"x_max":1661,"o":"m 690 1169 l 669 1190 q 662 1200 662 1197 q 669 1211 662 1203 l 800 1349 q 815 1358 808 1356 q 837 1360 822 1360 l 906 1360 q 925 1358 919 1360 q 938 1349 931 1355 l 1071 1208 q 1076 1201 1076 1203 q 1071 1193 1076 1199 l 1044 1166 q 1033 1159 1036 1158 q 1022 1165 1031 1159 l 886 1266 q 851 1267 868 1279 l 715 1165 q 690 1169 703 1156 m 596 258 l 797 797 q 810 832 806 818 q 806 870 814 847 l 788 925 q 776 945 783 940 q 749 950 769 950 l 685 950 q 664 956 667 950 q 660 981 660 962 l 660 1007 q 665 1036 660 1030 q 693 1042 671 1042 l 1042 1042 q 1065 1037 1058 1042 q 1072 1015 1072 1032 l 1072 983 q 1062 955 1072 960 q 1031 950 1053 950 l 991 950 q 956 944 964 950 q 954 917 947 938 l 1135 318 q 1143 280 1140 301 q 1151 244 1147 259 q 1160 229 1156 229 q 1170 236 1165 229 q 1183 264 1176 242 l 1403 924 q 1408 946 1409 942 q 1383 950 1408 950 l 1288 950 q 1265 956 1269 950 q 1260 981 1260 962 l 1260 1006 q 1265 1035 1260 1028 q 1292 1042 1270 1042 l 1626 1042 q 1654 1038 1647 1042 q 1661 1012 1661 1033 l 1661 980 q 1656 955 1661 960 q 1630 950 1650 950 l 1535 950 q 1508 944 1513 950 q 1497 922 1503 938 l 1192 6 q 1182 -11 1187 -8 q 1158 -14 1178 -14 l 1117 -14 q 1092 -8 1097 -14 q 1081 13 1086 -3 l 901 578 q 888 626 894 600 q 877 672 883 653 q 863 691 871 691 q 838 653 852 691 l 597 15 q 587 -8 591 -2 q 558 -14 583 -14 l 518 -14 q 490 -7 497 -14 q 478 15 483 0 l 159 921 q 144 944 152 939 q 111 950 136 950 l 28 950 q 5 955 10 950 q -1 977 -1 959 l -1 1009 q 5 1036 -1 1031 q 31 1042 10 1042 l 441 1042 q 471 1035 462 1042 q 481 1006 481 1028 l 481 976 q 473 954 481 958 q 449 950 466 950 l 365 950 q 331 943 336 950 q 332 915 326 935 l 531 330 q 543 283 538 308 q 555 238 549 257 q 569 219 561 219 q 582 228 576 219 q 596 258 588 238 "},"Ẁ":{"ha":1660,"x_min":-1,"x_max":1661,"o":"m 882 1154 l 708 1254 q 678 1292 687 1267 q 688 1347 669 1317 q 720 1372 700 1365 q 760 1375 740 1379 q 794 1357 781 1372 l 933 1216 q 934 1191 946 1203 l 903 1158 q 893 1151 897 1152 q 882 1154 890 1149 m 596 258 l 797 797 q 810 832 806 818 q 806 870 814 847 l 788 925 q 776 945 783 940 q 749 950 769 950 l 685 950 q 664 956 667 950 q 660 981 660 962 l 660 1007 q 665 1036 660 1030 q 693 1042 671 1042 l 1042 1042 q 1065 1037 1058 1042 q 1072 1015 1072 1032 l 1072 983 q 1062 955 1072 960 q 1031 950 1053 950 l 991 950 q 956 944 964 950 q 954 917 947 938 l 1135 318 q 1143 280 1140 301 q 1151 244 1147 259 q 1160 229 1156 229 q 1170 236 1165 229 q 1183 264 1176 242 l 1403 924 q 1408 946 1409 942 q 1383 950 1408 950 l 1288 950 q 1265 956 1269 950 q 1260 981 1260 962 l 1260 1006 q 1265 1035 1260 1028 q 1292 1042 1270 1042 l 1626 1042 q 1654 1038 1647 1042 q 1661 1012 1661 1033 l 1661 980 q 1656 955 1661 960 q 1630 950 1650 950 l 1535 950 q 1508 944 1513 950 q 1497 922 1503 938 l 1192 6 q 1182 -11 1187 -8 q 1158 -14 1178 -14 l 1117 -14 q 1092 -8 1097 -14 q 1081 13 1086 -3 l 901 578 q 888 626 894 600 q 877 672 883 653 q 863 691 871 691 q 838 653 852 691 l 597 15 q 587 -8 591 -2 q 558 -14 583 -14 l 518 -14 q 490 -7 497 -14 q 478 15 483 0 l 159 921 q 144 944 152 939 q 111 950 136 950 l 28 950 q 5 955 10 950 q -1 977 -1 959 l -1 1009 q 5 1036 -1 1031 q 31 1042 10 1042 l 441 1042 q 471 1035 462 1042 q 481 1006 481 1028 l 481 976 q 473 954 481 958 q 449 950 466 950 l 365 950 q 331 943 336 950 q 332 915 326 935 l 531 330 q 543 283 538 308 q 555 238 549 257 q 569 219 561 219 q 582 228 576 219 q 596 258 588 238 "},"Ẃ":{"ha":1660,"x_min":-1,"x_max":1661,"o":"m 833 1160 l 802 1192 q 802 1215 791 1204 l 942 1357 q 977 1375 956 1372 q 1017 1372 997 1379 q 1048 1347 1038 1365 q 1059 1292 1067 1317 q 1028 1254 1051 1267 l 860 1157 q 846 1151 851 1151 q 833 1160 841 1151 m 596 258 l 797 797 q 810 832 806 818 q 806 870 814 847 l 788 925 q 776 945 783 940 q 749 950 769 950 l 685 950 q 664 956 667 950 q 660 981 660 962 l 660 1007 q 665 1036 660 1030 q 693 1042 671 1042 l 1042 1042 q 1065 1037 1058 1042 q 1072 1015 1072 1032 l 1072 983 q 1062 955 1072 960 q 1031 950 1053 950 l 991 950 q 956 944 964 950 q 954 917 947 938 l 1135 318 q 1143 280 1140 301 q 1151 244 1147 259 q 1160 229 1156 229 q 1170 236 1165 229 q 1183 264 1176 242 l 1403 924 q 1408 946 1409 942 q 1383 950 1408 950 l 1288 950 q 1265 956 1269 950 q 1260 981 1260 962 l 1260 1006 q 1265 1035 1260 1028 q 1292 1042 1270 1042 l 1626 1042 q 1654 1038 1647 1042 q 1661 1012 1661 1033 l 1661 980 q 1656 955 1661 960 q 1630 950 1650 950 l 1535 950 q 1508 944 1513 950 q 1497 922 1503 938 l 1192 6 q 1182 -11 1187 -8 q 1158 -14 1178 -14 l 1117 -14 q 1092 -8 1097 -14 q 1081 13 1086 -3 l 901 578 q 888 626 894 600 q 877 672 883 653 q 863 691 871 691 q 838 653 852 691 l 597 15 q 587 -8 591 -2 q 558 -14 583 -14 l 518 -14 q 490 -7 497 -14 q 478 15 483 0 l 159 921 q 144 944 152 939 q 111 950 136 950 l 28 950 q 5 955 10 950 q -1 977 -1 959 l -1 1009 q 5 1036 -1 1031 q 31 1042 10 1042 l 441 1042 q 471 1035 462 1042 q 481 1006 481 1028 l 481 976 q 473 954 481 958 q 449 950 466 950 l 365 950 q 331 943 336 950 q 332 915 326 935 l 531 330 q 543 283 538 308 q 555 238 549 257 q 569 219 561 219 q 582 228 576 219 q 596 258 588 238 "},"Ẅ":{"ha":1660,"x_min":-1,"x_max":1661,"o":"m 990 1174 q 936 1196 958 1174 q 914 1250 914 1218 q 936 1304 914 1281 q 990 1326 958 1326 q 1044 1304 1022 1326 q 1066 1250 1066 1281 q 1044 1196 1066 1218 q 990 1174 1022 1174 m 744 1174 q 691 1196 713 1174 q 669 1250 669 1218 q 691 1304 669 1281 q 744 1326 713 1326 q 799 1304 776 1326 q 821 1250 821 1281 q 799 1196 821 1218 q 744 1174 776 1174 m 596 258 l 797 797 q 810 832 806 818 q 806 870 814 847 l 788 925 q 776 945 783 940 q 749 950 769 950 l 685 950 q 664 956 667 950 q 660 981 660 962 l 660 1007 q 665 1036 660 1030 q 693 1042 671 1042 l 1042 1042 q 1065 1037 1058 1042 q 1072 1015 1072 1032 l 1072 983 q 1062 955 1072 960 q 1031 950 1053 950 l 991 950 q 956 944 964 950 q 954 917 947 938 l 1135 318 q 1143 280 1140 301 q 1151 244 1147 259 q 1160 229 1156 229 q 1170 236 1165 229 q 1183 264 1176 242 l 1403 924 q 1408 946 1409 942 q 1383 950 1408 950 l 1288 950 q 1265 956 1269 950 q 1260 981 1260 962 l 1260 1006 q 1265 1035 1260 1028 q 1292 1042 1270 1042 l 1626 1042 q 1654 1038 1647 1042 q 1661 1012 1661 1033 l 1661 980 q 1656 955 1661 960 q 1630 950 1650 950 l 1535 950 q 1508 944 1513 950 q 1497 922 1503 938 l 1192 6 q 1182 -11 1187 -8 q 1158 -14 1178 -14 l 1117 -14 q 1092 -8 1097 -14 q 1081 13 1086 -3 l 901 578 q 888 626 894 600 q 877 672 883 653 q 863 691 871 691 q 838 653 852 691 l 597 15 q 587 -8 591 -2 q 558 -14 583 -14 l 518 -14 q 490 -7 497 -14 q 478 15 483 0 l 159 921 q 144 944 152 939 q 111 950 136 950 l 28 950 q 5 955 10 950 q -1 977 -1 959 l -1 1009 q 5 1036 -1 1031 q 31 1042 10 1042 l 441 1042 q 471 1035 462 1042 q 481 1006 481 1028 l 481 976 q 473 954 481 958 q 449 950 466 950 l 365 950 q 331 943 336 950 q 332 915 326 935 l 531 330 q 543 283 538 308 q 555 238 549 257 q 569 219 561 219 q 582 228 576 219 q 596 258 588 238 "},"Ẇ":{"ha":1660,"x_min":-1,"x_max":1661,"o":"m 871 1201 q 807 1228 834 1201 q 781 1292 781 1255 q 807 1356 781 1329 q 871 1382 834 1382 q 935 1356 908 1382 q 961 1292 961 1329 q 935 1228 961 1255 q 871 1201 908 1201 m 596 258 l 797 797 q 810 832 806 818 q 806 870 814 847 l 788 925 q 776 945 783 940 q 749 950 769 950 l 685 950 q 664 956 667 950 q 660 981 660 962 l 660 1007 q 665 1036 660 1030 q 693 1042 671 1042 l 1042 1042 q 1065 1037 1058 1042 q 1072 1015 1072 1032 l 1072 983 q 1062 955 1072 960 q 1031 950 1053 950 l 991 950 q 956 944 964 950 q 954 917 947 938 l 1135 318 q 1143 280 1140 301 q 1151 244 1147 259 q 1160 229 1156 229 q 1170 236 1165 229 q 1183 264 1176 242 l 1403 924 q 1408 946 1409 942 q 1383 950 1408 950 l 1288 950 q 1265 956 1269 950 q 1260 981 1260 962 l 1260 1006 q 1265 1035 1260 1028 q 1292 1042 1270 1042 l 1626 1042 q 1654 1038 1647 1042 q 1661 1012 1661 1033 l 1661 980 q 1656 955 1661 960 q 1630 950 1650 950 l 1535 950 q 1508 944 1513 950 q 1497 922 1503 938 l 1192 6 q 1182 -11 1187 -8 q 1158 -14 1178 -14 l 1117 -14 q 1092 -8 1097 -14 q 1081 13 1086 -3 l 901 578 q 888 626 894 600 q 877 672 883 653 q 863 691 871 691 q 838 653 852 691 l 597 15 q 587 -8 591 -2 q 558 -14 583 -14 l 518 -14 q 490 -7 497 -14 q 478 15 483 0 l 159 921 q 144 944 152 939 q 111 950 136 950 l 28 950 q 5 955 10 950 q -1 977 -1 959 l -1 1009 q 5 1036 -1 1031 q 31 1042 10 1042 l 441 1042 q 471 1035 462 1042 q 481 1006 481 1028 l 481 976 q 473 954 481 958 q 449 950 466 950 l 365 950 q 331 943 336 950 q 332 915 326 935 l 531 330 q 543 283 538 308 q 555 238 549 257 q 569 219 561 219 q 582 228 576 219 q 596 258 588 238 "},"Ẉ":{"ha":1660,"x_min":-1,"x_max":1661,"o":"m 836 -299 q 773 -272 799 -299 q 746 -208 746 -244 q 773 -144 746 -170 q 836 -117 799 -117 q 900 -144 874 -117 q 926 -208 926 -170 q 900 -272 926 -244 q 836 -299 874 -299 m 596 258 l 797 797 q 810 832 806 818 q 806 870 814 847 l 788 925 q 776 945 783 940 q 749 950 769 950 l 685 950 q 664 956 667 950 q 660 981 660 962 l 660 1007 q 665 1036 660 1030 q 693 1042 671 1042 l 1042 1042 q 1065 1037 1058 1042 q 1072 1015 1072 1032 l 1072 983 q 1062 955 1072 960 q 1031 950 1053 950 l 991 950 q 956 944 964 950 q 954 917 947 938 l 1135 318 q 1143 280 1140 301 q 1151 244 1147 259 q 1160 229 1156 229 q 1170 236 1165 229 q 1183 264 1176 242 l 1403 924 q 1408 946 1409 942 q 1383 950 1408 950 l 1288 950 q 1265 956 1269 950 q 1260 981 1260 962 l 1260 1006 q 1265 1035 1260 1028 q 1292 1042 1270 1042 l 1626 1042 q 1654 1038 1647 1042 q 1661 1012 1661 1033 l 1661 980 q 1656 955 1661 960 q 1630 950 1650 950 l 1535 950 q 1508 944 1513 950 q 1497 922 1503 938 l 1192 6 q 1182 -11 1187 -8 q 1158 -14 1178 -14 l 1117 -14 q 1092 -8 1097 -14 q 1081 13 1086 -3 l 901 578 q 888 626 894 600 q 877 672 883 653 q 863 691 871 691 q 838 653 852 691 l 597 15 q 587 -8 591 -2 q 558 -14 583 -14 l 518 -14 q 490 -7 497 -14 q 478 15 483 0 l 159 921 q 144 944 152 939 q 111 950 136 950 l 28 950 q 5 955 10 950 q -1 977 -1 959 l -1 1009 q 5 1036 -1 1031 q 31 1042 10 1042 l 441 1042 q 471 1035 462 1042 q 481 1006 481 1028 l 481 976 q 473 954 481 958 q 449 950 466 950 l 365 950 q 331 943 336 950 q 332 915 326 935 l 531 330 q 543 283 538 308 q 555 238 549 257 q 569 219 561 219 q 582 228 576 219 q 596 258 588 238 "},"X":{"ha":1218,"x_min":12,"x_max":1206,"o":"m 12 26 l 12 72 q 16 88 12 84 q 31 92 21 92 l 143 92 q 175 96 167 92 q 194 114 183 101 l 497 486 q 517 518 514 507 q 513 540 521 528 q 490 571 506 551 l 213 927 q 197 945 203 940 q 167 950 191 950 l 88 950 q 63 954 70 950 q 55 977 55 958 l 55 1016 q 59 1037 55 1032 q 78 1042 63 1042 l 515 1042 q 534 1039 528 1042 q 540 1022 540 1036 l 540 973 q 536 955 540 959 q 519 950 533 950 l 429 950 q 404 948 412 950 q 397 941 397 946 q 406 928 398 937 l 609 667 q 638 640 631 639 q 667 668 645 641 l 871 926 q 880 945 883 941 q 848 950 878 950 l 758 950 q 735 953 742 950 q 729 972 729 956 l 729 1018 q 734 1038 729 1033 q 752 1042 738 1042 l 1131 1042 q 1154 1037 1148 1042 q 1160 1013 1160 1033 l 1160 973 q 1155 954 1160 958 q 1135 950 1150 950 l 1026 950 q 1000 945 1006 950 q 986 931 994 940 l 729 607 q 706 574 712 586 q 706 551 700 563 q 728 517 711 540 l 1040 118 q 1060 98 1052 103 q 1096 92 1068 92 l 1178 92 q 1200 88 1194 92 q 1206 67 1206 83 l 1206 27 q 1202 5 1206 10 q 1182 0 1199 0 l 744 0 q 726 3 731 0 q 721 21 721 7 l 721 69 q 726 88 721 83 q 746 92 732 92 l 833 92 q 853 99 857 92 q 842 116 850 107 l 614 414 q 582 445 590 445 q 549 415 574 446 l 317 123 q 308 99 303 106 q 348 92 312 92 l 418 92 q 439 88 433 92 q 444 68 444 83 l 444 27 q 440 6 444 11 q 420 0 435 0 l 35 0 q 16 5 19 0 q 12 26 12 10 "},"Y":{"ha":1110,"x_min":-2,"x_max":1112,"o":"m 336 24 l 336 64 q 342 88 336 83 q 367 92 349 92 l 461 92 q 484 97 479 92 q 489 119 489 101 l 489 367 q 485 415 489 399 q 470 447 482 431 l 151 924 q 133 945 140 940 q 96 950 125 950 l 22 950 q 3 953 8 950 q -2 970 -2 956 l -2 1013 q 3 1036 -2 1031 q 26 1042 8 1042 l 457 1042 q 478 1037 474 1042 q 483 1015 483 1032 l 483 979 q 479 956 483 961 q 456 950 475 950 l 366 950 q 332 943 338 950 q 336 922 326 937 l 566 580 q 585 554 579 560 q 598 555 592 547 q 617 581 605 562 l 840 919 q 849 946 855 942 q 810 950 844 950 l 710 950 q 688 955 692 950 q 683 975 683 960 l 683 1012 q 688 1036 683 1031 q 710 1042 692 1042 l 1088 1042 q 1108 1036 1104 1042 q 1112 1014 1112 1031 l 1112 977 q 1106 955 1112 959 q 1081 950 1100 950 l 1017 950 q 974 940 982 950 q 953 911 966 931 l 672 492 q 654 460 660 474 q 649 415 649 447 l 649 120 q 652 96 649 100 q 676 92 656 92 l 793 92 q 811 89 806 92 q 815 73 815 85 l 815 28 q 808 4 815 8 q 782 0 800 0 l 367 0 q 344 3 352 0 q 336 24 336 7 "},"Ý":{"ha":1110,"x_min":-2,"x_max":1112,"o":"m 549 1160 l 517 1192 q 517 1215 506 1204 l 657 1357 q 692 1375 672 1372 q 733 1372 713 1379 q 763 1347 753 1365 q 774 1292 783 1317 q 744 1254 766 1267 l 575 1157 q 561 1151 566 1151 q 549 1160 556 1151 m 336 24 l 336 64 q 342 88 336 83 q 367 92 349 92 l 461 92 q 484 97 479 92 q 489 119 489 101 l 489 367 q 485 415 489 399 q 470 447 482 431 l 151 924 q 133 945 140 940 q 96 950 125 950 l 22 950 q 3 953 8 950 q -2 970 -2 956 l -2 1013 q 3 1036 -2 1031 q 26 1042 8 1042 l 457 1042 q 478 1037 474 1042 q 483 1015 483 1032 l 483 979 q 479 956 483 961 q 456 950 475 950 l 366 950 q 332 943 338 950 q 336 922 326 937 l 566 580 q 585 554 579 560 q 598 555 592 547 q 617 581 605 562 l 840 919 q 849 946 855 942 q 810 950 844 950 l 710 950 q 688 955 692 950 q 683 975 683 960 l 683 1012 q 688 1036 683 1031 q 710 1042 692 1042 l 1088 1042 q 1108 1036 1104 1042 q 1112 1014 1112 1031 l 1112 977 q 1106 955 1112 959 q 1081 950 1100 950 l 1017 950 q 974 940 982 950 q 953 911 966 931 l 672 492 q 654 460 660 474 q 649 415 649 447 l 649 120 q 652 96 649 100 q 676 92 656 92 l 793 92 q 811 89 806 92 q 815 73 815 85 l 815 28 q 808 4 815 8 q 782 0 800 0 l 367 0 q 344 3 352 0 q 336 24 336 7 "},"Ŷ":{"ha":1110,"x_min":-2,"x_max":1112,"o":"m 405 1169 l 385 1190 q 377 1200 377 1197 q 385 1211 377 1203 l 515 1349 q 530 1358 523 1356 q 552 1360 537 1360 l 621 1360 q 641 1358 635 1360 q 653 1349 647 1355 l 786 1208 q 792 1201 792 1203 q 786 1193 792 1199 l 759 1166 q 749 1159 751 1158 q 737 1165 746 1159 l 601 1266 q 567 1267 583 1279 l 430 1165 q 405 1169 418 1156 m 336 24 l 336 64 q 342 88 336 83 q 367 92 349 92 l 461 92 q 484 97 479 92 q 489 119 489 101 l 489 367 q 485 415 489 399 q 470 447 482 431 l 151 924 q 133 945 140 940 q 96 950 125 950 l 22 950 q 3 953 8 950 q -2 970 -2 956 l -2 1013 q 3 1036 -2 1031 q 26 1042 8 1042 l 457 1042 q 478 1037 474 1042 q 483 1015 483 1032 l 483 979 q 479 956 483 961 q 456 950 475 950 l 366 950 q 332 943 338 950 q 336 922 326 937 l 566 580 q 585 554 579 560 q 598 555 592 547 q 617 581 605 562 l 840 919 q 849 946 855 942 q 810 950 844 950 l 710 950 q 688 955 692 950 q 683 975 683 960 l 683 1012 q 688 1036 683 1031 q 710 1042 692 1042 l 1088 1042 q 1108 1036 1104 1042 q 1112 1014 1112 1031 l 1112 977 q 1106 955 1112 959 q 1081 950 1100 950 l 1017 950 q 974 940 982 950 q 953 911 966 931 l 672 492 q 654 460 660 474 q 649 415 649 447 l 649 120 q 652 96 649 100 q 676 92 656 92 l 793 92 q 811 89 806 92 q 815 73 815 85 l 815 28 q 808 4 815 8 q 782 0 800 0 l 367 0 q 344 3 352 0 q 336 24 336 7 "},"Ÿ":{"ha":1110,"x_min":-2,"x_max":1112,"o":"m 706 1174 q 651 1196 674 1174 q 629 1250 629 1218 q 651 1304 629 1281 q 706 1326 674 1326 q 759 1304 737 1326 q 781 1250 781 1281 q 759 1196 781 1218 q 706 1174 737 1174 m 460 1174 q 406 1196 428 1174 q 384 1250 384 1218 q 406 1304 384 1281 q 460 1326 428 1326 q 514 1304 492 1326 q 536 1250 536 1281 q 514 1196 536 1218 q 460 1174 492 1174 m 336 24 l 336 64 q 342 88 336 83 q 367 92 349 92 l 461 92 q 484 97 479 92 q 489 119 489 101 l 489 367 q 485 415 489 399 q 470 447 482 431 l 151 924 q 133 945 140 940 q 96 950 125 950 l 22 950 q 3 953 8 950 q -2 970 -2 956 l -2 1013 q 3 1036 -2 1031 q 26 1042 8 1042 l 457 1042 q 478 1037 474 1042 q 483 1015 483 1032 l 483 979 q 479 956 483 961 q 456 950 475 950 l 366 950 q 332 943 338 950 q 336 922 326 937 l 566 580 q 585 554 579 560 q 598 555 592 547 q 617 581 605 562 l 840 919 q 849 946 855 942 q 810 950 844 950 l 710 950 q 688 955 692 950 q 683 975 683 960 l 683 1012 q 688 1036 683 1031 q 710 1042 692 1042 l 1088 1042 q 1108 1036 1104 1042 q 1112 1014 1112 1031 l 1112 977 q 1106 955 1112 959 q 1081 950 1100 950 l 1017 950 q 974 940 982 950 q 953 911 966 931 l 672 492 q 654 460 660 474 q 649 415 649 447 l 649 120 q 652 96 649 100 q 676 92 656 92 l 793 92 q 811 89 806 92 q 815 73 815 85 l 815 28 q 808 4 815 8 q 782 0 800 0 l 367 0 q 344 3 352 0 q 336 24 336 7 "},"Ỳ":{"ha":1110,"x_min":-2,"x_max":1112,"o":"m 597 1154 l 424 1254 q 393 1292 402 1267 q 403 1347 385 1317 q 435 1372 415 1365 q 476 1375 455 1379 q 510 1357 497 1372 l 649 1216 q 649 1191 661 1203 l 618 1158 q 609 1151 613 1152 q 597 1154 605 1149 m 336 24 l 336 64 q 342 88 336 83 q 367 92 349 92 l 461 92 q 484 97 479 92 q 489 119 489 101 l 489 367 q 485 415 489 399 q 470 447 482 431 l 151 924 q 133 945 140 940 q 96 950 125 950 l 22 950 q 3 953 8 950 q -2 970 -2 956 l -2 1013 q 3 1036 -2 1031 q 26 1042 8 1042 l 457 1042 q 478 1037 474 1042 q 483 1015 483 1032 l 483 979 q 479 956 483 961 q 456 950 475 950 l 366 950 q 332 943 338 950 q 336 922 326 937 l 566 580 q 585 554 579 560 q 598 555 592 547 q 617 581 605 562 l 840 919 q 849 946 855 942 q 810 950 844 950 l 710 950 q 688 955 692 950 q 683 975 683 960 l 683 1012 q 688 1036 683 1031 q 710 1042 692 1042 l 1088 1042 q 1108 1036 1104 1042 q 1112 1014 1112 1031 l 1112 977 q 1106 955 1112 959 q 1081 950 1100 950 l 1017 950 q 974 940 982 950 q 953 911 966 931 l 672 492 q 654 460 660 474 q 649 415 649 447 l 649 120 q 652 96 649 100 q 676 92 656 92 l 793 92 q 811 89 806 92 q 815 73 815 85 l 815 28 q 808 4 815 8 q 782 0 800 0 l 367 0 q 344 3 352 0 q 336 24 336 7 "},"Z":{"ha":1059,"x_min":58,"x_max":993,"o":"m 151 1042 l 916 1042 q 935 1036 931 1042 q 939 1015 939 1031 l 939 977 q 931 937 939 951 q 910 908 922 923 l 313 176 q 276 137 296 153 q 256 107 256 121 q 261 96 256 100 q 283 92 267 92 l 678 92 q 815 114 765 92 q 886 191 865 137 q 910 340 908 245 q 914 364 910 356 q 934 372 917 372 l 967 372 q 989 364 985 372 q 993 339 993 356 l 993 41 q 986 6 993 13 q 949 0 978 0 l 88 0 q 65 5 72 0 q 58 26 58 9 l 58 63 q 63 96 58 85 q 76 118 67 107 l 690 871 q 722 905 703 889 q 740 938 740 922 q 692 950 740 950 l 426 950 q 289 928 338 950 q 219 857 240 907 q 195 725 198 808 q 190 701 195 705 q 165 698 185 698 l 140 698 q 116 704 120 698 q 113 728 113 710 l 113 1009 q 120 1038 113 1033 q 151 1042 127 1042 "},"Ź":{"ha":1059,"x_min":58,"x_max":993,"o":"m 482 1160 l 451 1192 q 451 1215 440 1204 l 590 1357 q 625 1375 605 1372 q 666 1372 646 1379 q 697 1347 686 1365 q 708 1292 716 1317 q 677 1254 699 1267 l 508 1157 q 494 1151 499 1151 q 482 1160 490 1151 m 151 1042 l 916 1042 q 935 1036 931 1042 q 939 1015 939 1031 l 939 977 q 931 937 939 951 q 910 908 922 923 l 313 176 q 276 137 296 153 q 256 107 256 121 q 261 96 256 100 q 283 92 267 92 l 678 92 q 815 114 765 92 q 886 191 865 137 q 910 340 908 245 q 914 364 910 356 q 934 372 917 372 l 967 372 q 989 364 985 372 q 993 339 993 356 l 993 41 q 986 6 993 13 q 949 0 978 0 l 88 0 q 65 5 72 0 q 58 26 58 9 l 58 63 q 63 96 58 85 q 76 118 67 107 l 690 871 q 722 905 703 889 q 740 938 740 922 q 692 950 740 950 l 426 950 q 289 928 338 950 q 219 857 240 907 q 195 725 198 808 q 190 701 195 705 q 165 698 185 698 l 140 698 q 116 704 120 698 q 113 728 113 710 l 113 1009 q 120 1038 113 1033 q 151 1042 127 1042 "},"Ż":{"ha":1059,"x_min":58,"x_max":993,"o":"m 519 1201 q 456 1228 483 1201 q 429 1292 429 1255 q 456 1356 429 1329 q 519 1382 483 1382 q 583 1356 557 1382 q 610 1292 610 1329 q 583 1228 610 1255 q 519 1201 557 1201 m 151 1042 l 916 1042 q 935 1036 931 1042 q 939 1015 939 1031 l 939 977 q 931 937 939 951 q 910 908 922 923 l 313 176 q 276 137 296 153 q 256 107 256 121 q 261 96 256 100 q 283 92 267 92 l 678 92 q 815 114 765 92 q 886 191 865 137 q 910 340 908 245 q 914 364 910 356 q 934 372 917 372 l 967 372 q 989 364 985 372 q 993 339 993 356 l 993 41 q 986 6 993 13 q 949 0 978 0 l 88 0 q 65 5 72 0 q 58 26 58 9 l 58 63 q 63 96 58 85 q 76 118 67 107 l 690 871 q 722 905 703 889 q 740 938 740 922 q 692 950 740 950 l 426 950 q 289 928 338 950 q 219 857 240 907 q 195 725 198 808 q 190 701 195 705 q 165 698 185 698 l 140 698 q 116 704 120 698 q 113 728 113 710 l 113 1009 q 120 1038 113 1033 q 151 1042 127 1042 "},"Ž":{"ha":1059,"x_min":58,"x_max":993,"o":"m 438 1189 l 322 1313 q 312 1327 313 1322 q 320 1340 311 1333 l 338 1356 q 353 1363 349 1364 q 370 1354 358 1362 l 482 1279 q 517 1266 501 1267 q 550 1279 532 1266 l 669 1363 q 684 1368 679 1370 q 699 1357 690 1366 l 711 1345 q 722 1331 720 1336 q 715 1316 724 1326 l 590 1185 q 577 1173 583 1177 q 556 1169 572 1169 l 490 1169 q 459 1174 469 1169 q 438 1189 448 1180 m 151 1042 l 916 1042 q 935 1036 931 1042 q 939 1015 939 1031 l 939 977 q 931 937 939 951 q 910 908 922 923 l 313 176 q 276 137 296 153 q 256 107 256 121 q 261 96 256 100 q 283 92 267 92 l 678 92 q 815 114 765 92 q 886 191 865 137 q 910 340 908 245 q 914 364 910 356 q 934 372 917 372 l 967 372 q 989 364 985 372 q 993 339 993 356 l 993 41 q 986 6 993 13 q 949 0 978 0 l 88 0 q 65 5 72 0 q 58 26 58 9 l 58 63 q 63 96 58 85 q 76 118 67 107 l 690 871 q 722 905 703 889 q 740 938 740 922 q 692 950 740 950 l 426 950 q 289 928 338 950 q 219 857 240 907 q 195 725 198 808 q 190 701 195 705 q 165 698 185 698 l 140 698 q 116 704 120 698 q 113 728 113 710 l 113 1009 q 120 1038 113 1033 q 151 1042 127 1042 "},"Æ":{"ha":1771,"x_min":0,"x_max":1686,"o":"m 0 29 l 0 75 q 19 93 0 93 l 100 93 q 131 99 122 93 q 149 121 139 106 l 747 922 q 753 947 763 944 q 706 950 743 950 l 617 950 q 602 954 604 950 q 599 971 599 958 l 599 1022 q 603 1038 599 1034 q 619 1042 608 1042 l 1074 1042 q 1089 1038 1085 1042 q 1092 1022 1092 1035 l 1092 973 q 1089 955 1092 960 q 1072 950 1086 950 l 903 950 q 878 948 884 950 q 869 940 872 945 q 859 924 867 934 l 473 411 q 470 396 466 400 q 492 392 474 392 l 969 392 l 956 306 l 422 306 q 393 299 403 306 q 374 278 384 292 l 258 126 q 251 101 247 110 q 278 93 256 93 l 381 93 q 399 89 394 93 q 403 72 403 85 l 403 22 q 401 3 403 6 q 381 0 398 0 l 35 0 q 8 4 15 0 q 0 29 0 8 m 872 950 l 778 950 q 757 956 760 950 q 753 979 753 963 l 753 1015 q 758 1036 753 1031 q 778 1042 763 1042 l 1635 1042 q 1666 1037 1659 1042 q 1672 1008 1672 1032 l 1672 731 q 1671 709 1672 714 q 1651 703 1670 703 l 1609 703 q 1591 710 1594 703 q 1587 730 1588 717 q 1565 861 1585 813 q 1502 930 1546 909 q 1381 950 1458 950 l 1097 950 q 1071 945 1078 950 q 1065 919 1065 940 l 1065 603 q 1068 578 1065 586 q 1089 571 1072 571 l 1170 571 q 1288 609 1249 571 q 1331 706 1326 647 q 1336 726 1333 721 q 1351 731 1340 731 l 1381 731 q 1399 726 1394 731 q 1404 708 1404 721 l 1404 365 q 1400 342 1404 348 q 1381 337 1397 337 l 1351 337 q 1337 341 1342 337 q 1330 362 1332 346 q 1308 433 1326 401 q 1257 484 1290 465 q 1172 503 1223 503 l 1092 503 q 1069 497 1074 503 q 1065 471 1065 490 l 1065 122 q 1070 97 1065 102 q 1097 92 1076 92 l 1367 92 q 1508 114 1458 92 q 1579 191 1558 137 q 1601 343 1599 246 q 1605 363 1601 358 q 1620 368 1608 368 l 1659 368 q 1680 364 1674 368 q 1686 345 1686 360 l 1686 24 q 1682 4 1686 8 q 1663 0 1678 0 l 781 0 q 759 4 765 0 q 753 25 753 8 l 753 72 q 758 89 753 87 q 778 92 763 92 l 869 92 q 900 98 894 92 q 906 129 906 104 l 906 921 q 899 946 906 942 q 872 950 893 950 "},"Ð":{"ha":1161,"x_min":49,"x_max":1089,"o":"m 77 589 l 605 589 q 624 585 620 589 q 627 569 627 582 l 627 525 q 624 507 627 512 q 603 501 620 501 l 77 501 q 56 505 60 501 q 53 523 53 509 l 53 569 q 58 585 53 581 q 77 589 63 589 m 49 24 l 49 65 q 54 87 49 82 q 74 92 58 92 l 181 92 q 199 98 197 92 q 202 120 202 104 l 202 919 q 199 943 202 937 q 177 950 196 950 l 88 950 q 58 954 67 950 q 49 976 49 958 l 49 1019 q 60 1038 49 1034 q 88 1042 71 1042 l 575 1042 q 795 1002 699 1042 q 956 892 891 963 q 1055 727 1022 822 q 1089 521 1089 632 q 1053 315 1089 410 q 951 149 1018 220 q 789 39 884 78 q 575 0 694 0 l 75 0 q 55 4 60 0 q 49 24 49 8 m 392 92 l 574 92 q 766 147 694 92 q 869 300 838 203 q 901 521 901 397 q 866 742 901 645 q 760 894 832 839 q 574 950 688 950 l 393 950 q 367 944 373 950 q 362 918 362 939 l 362 117 q 368 95 362 99 q 392 92 374 92 "},"Ø":{"ha":1168,"x_min":72,"x_max":1096,"o":"m 72 521 q 107 731 72 633 q 209 902 142 828 q 370 1016 276 975 q 584 1058 465 1058 q 798 1016 703 1058 q 959 902 893 975 q 1061 731 1026 828 q 1096 521 1096 633 q 1059 311 1096 408 q 954 140 1022 213 q 792 25 886 67 q 584 -16 698 -16 q 370 25 465 -16 q 209 140 276 67 q 107 311 142 213 q 72 521 72 408 m 260 521 q 279 346 260 428 q 336 202 297 264 q 437 105 375 140 q 584 69 499 69 q 738 105 676 69 q 838 202 800 140 q 891 346 875 264 q 908 521 908 428 q 889 696 908 615 q 832 840 871 778 q 732 937 794 902 q 584 972 671 972 q 437 937 499 972 q 336 840 375 902 q 279 696 297 778 q 260 521 260 615 m 819 1153 l 858 1153 q 884 1149 881 1153 q 881 1129 888 1144 l 396 -115 q 382 -135 390 -131 q 351 -139 374 -139 l 322 -139 q 290 -133 294 -139 q 291 -108 285 -126 l 780 1129 q 792 1148 785 1143 q 819 1153 799 1153 "},"Þ":{"ha":978,"x_min":52,"x_max":926,"o":"m 391 325 l 553 325 q 701 383 649 325 q 753 531 753 440 q 701 679 753 622 q 553 736 649 736 l 376 736 q 360 730 363 736 q 356 709 356 723 l 356 356 q 363 330 356 334 q 391 325 369 325 m 356 200 l 356 130 q 363 94 356 101 q 397 86 369 86 l 487 86 q 506 80 503 86 q 509 58 509 74 l 509 33 q 505 6 509 13 q 480 0 501 0 l 90 0 q 60 5 68 0 q 52 32 52 9 l 52 67 q 57 83 52 79 q 74 86 61 86 l 173 86 q 200 93 194 86 q 205 119 205 100 l 205 938 q 200 952 205 949 q 183 956 195 956 l 69 956 q 55 961 57 956 q 52 978 52 966 l 52 1017 q 57 1037 52 1033 q 78 1042 63 1042 l 472 1042 q 501 1037 493 1042 q 509 1010 509 1033 l 509 975 q 505 959 509 963 q 487 956 500 956 l 388 956 q 361 949 367 956 q 356 922 356 942 l 356 849 q 361 827 356 832 q 382 822 366 822 l 555 822 q 837 745 748 822 q 926 531 926 668 q 837 316 926 393 q 555 239 748 239 l 401 239 q 364 234 372 239 q 356 200 356 228 "},"Đ":{"ha":1142,"x_min":49,"x_max":1089,"o":"m 49 24 l 49 65 q 54 87 49 82 q 74 92 58 92 l 181 92 q 199 98 197 92 q 202 120 202 104 l 202 919 q 199 943 202 937 q 177 950 196 950 l 88 950 q 58 954 67 950 q 49 976 49 958 l 49 1019 q 60 1038 49 1034 q 88 1042 71 1042 l 575 1042 q 795 1002 699 1042 q 956 892 891 963 q 1055 727 1022 822 q 1089 521 1089 632 q 1053 315 1089 410 q 951 149 1018 220 q 789 39 884 78 q 575 0 694 0 l 75 0 q 55 4 60 0 q 49 24 49 8 m 392 92 l 574 92 q 766 147 694 92 q 869 300 838 203 q 901 521 901 397 q 866 742 901 645 q 760 894 832 839 q 574 950 688 950 l 393 950 q 367 944 373 950 q 362 918 362 939 l 362 117 q 368 95 362 99 q 392 92 374 92 m 77 589 l 605 589 q 624 585 620 589 q 627 569 627 582 l 627 525 q 624 507 627 512 q 603 501 620 501 l 77 501 q 56 505 60 501 q 53 523 53 509 l 53 569 q 58 585 53 581 q 77 589 63 589 "},"Ħ":{"ha":1253,"x_min":49,"x_max":1204,"o":"m 100 824 l 1158 824 q 1196 820 1188 824 q 1204 804 1204 817 l 1204 760 q 1197 741 1204 747 q 1154 736 1189 736 l 99 736 q 57 740 65 736 q 50 758 50 744 l 50 803 q 60 820 50 816 q 100 824 70 824 m 362 920 l 362 623 q 368 590 362 597 q 401 583 374 583 l 855 583 q 887 592 882 583 q 892 628 892 600 l 892 915 q 888 943 892 937 q 862 950 883 950 l 755 950 q 734 957 739 950 q 729 978 729 963 l 729 1010 q 734 1036 729 1031 q 759 1042 740 1042 l 1174 1042 q 1198 1037 1191 1042 q 1204 1014 1204 1033 l 1204 975 q 1198 955 1204 959 q 1176 950 1192 950 l 1088 950 q 1058 945 1065 950 q 1051 917 1051 940 l 1051 117 q 1056 97 1051 102 q 1077 92 1061 92 l 1176 92 q 1198 88 1191 92 q 1204 67 1204 84 l 1204 34 q 1197 5 1204 10 q 1166 0 1189 0 l 761 0 q 735 6 740 0 q 729 33 729 12 l 729 66 q 733 86 729 81 q 751 92 737 92 l 860 92 q 886 99 881 92 q 892 126 892 106 l 892 460 q 885 488 892 482 q 858 493 878 493 l 394 493 q 368 488 374 493 q 362 463 362 483 l 362 122 q 366 98 362 105 q 389 92 371 92 l 499 92 q 519 88 515 92 q 524 67 524 83 l 524 36 q 517 6 524 12 q 487 0 510 0 l 81 0 q 55 5 61 0 q 49 31 49 10 l 49 60 q 55 86 49 80 q 78 92 60 92 l 172 92 q 196 95 190 92 q 202 117 202 99 l 202 922 q 197 945 202 940 q 174 950 191 950 l 77 950 q 54 957 58 950 q 49 983 49 963 l 49 1013 q 57 1036 49 1031 q 81 1042 64 1042 l 493 1042 q 517 1038 509 1042 q 524 1016 524 1033 l 524 977 q 519 955 524 960 q 498 950 515 950 l 389 950 q 367 944 372 950 q 362 920 362 939 "},"Ĳ":{"ha":1435,"x_min":61,"x_max":1406,"o":"m 375 925 l 375 121 q 381 97 375 103 q 403 90 387 90 l 526 90 q 540 84 537 90 q 544 67 544 78 l 544 24 q 537 5 544 10 q 515 0 531 0 l 90 0 q 67 5 74 0 q 61 24 61 10 l 61 69 q 68 86 61 81 q 94 90 74 90 l 171 90 q 202 96 189 90 q 216 124 216 101 l 216 926 q 213 946 216 941 q 194 951 210 951 l 87 951 q 67 957 72 951 q 61 974 61 962 l 61 1021 q 66 1039 61 1036 q 84 1042 70 1042 l 517 1042 q 539 1037 534 1042 q 544 1016 544 1033 l 544 982 q 536 957 544 963 q 513 951 528 951 l 403 951 q 380 947 385 951 q 375 925 375 943 m 604 211 q 641 320 604 281 q 728 358 678 358 q 800 333 771 358 q 828 267 828 308 q 818 214 828 231 q 795 186 808 196 q 772 167 782 177 q 761 135 761 157 q 771 109 761 124 q 809 83 781 94 q 890 72 836 72 q 992 98 949 72 q 1059 182 1035 124 q 1082 333 1082 239 l 1082 909 q 1077 942 1082 933 q 1047 950 1072 950 l 916 950 q 889 956 894 950 q 883 984 883 962 l 883 1012 q 891 1038 883 1033 q 918 1042 899 1042 l 1377 1042 q 1398 1039 1390 1042 q 1406 1020 1406 1035 l 1406 974 q 1402 955 1406 959 q 1383 950 1398 950 l 1269 950 q 1243 943 1248 950 q 1239 914 1239 936 l 1239 375 q 1199 173 1239 261 q 1082 34 1159 85 q 890 -16 1004 -16 q 730 19 793 -16 q 635 106 667 54 q 604 211 604 158 "},"Ŀ":{"ha":1021,"x_min":49,"x_max":968,"o":"m 603 667 q 616 715 603 694 q 650 750 629 737 q 698 763 672 763 q 746 750 724 763 q 780 715 767 737 q 793 667 793 694 q 780 620 793 642 q 746 585 767 599 q 698 572 724 572 q 650 585 672 572 q 616 620 629 599 q 603 667 603 642 m 173 950 l 72 950 q 54 955 58 950 q 49 974 49 959 l 49 1019 q 54 1038 49 1034 q 74 1042 59 1042 l 489 1042 q 512 1038 506 1042 q 518 1017 518 1034 l 518 975 q 513 954 518 958 q 492 950 507 950 l 391 950 q 368 945 375 950 q 362 922 362 940 l 362 117 q 368 96 362 100 q 392 92 375 92 l 647 92 q 789 119 738 92 q 862 204 840 147 q 885 351 884 261 q 888 367 885 362 q 901 372 890 372 l 942 372 q 962 369 956 372 q 968 351 968 366 l 968 33 q 964 6 968 13 q 940 0 960 0 l 80 0 q 56 4 63 0 q 49 26 49 8 l 49 69 q 52 87 49 82 q 67 92 56 92 l 169 92 q 196 96 190 92 q 202 121 202 101 l 202 922 q 197 945 202 940 q 173 950 192 950 "},"Ł":{"ha":1021,"x_min":49,"x_max":968,"o":"m 94 511 l 558 791 q 574 801 568 797 q 581 784 581 806 l 581 738 q 578 715 581 720 q 565 702 575 709 l 99 420 q 83 411 88 415 q 78 428 78 408 l 78 482 q 81 502 78 498 q 94 511 85 506 m 173 950 l 72 950 q 54 955 58 950 q 49 974 49 959 l 49 1019 q 54 1038 49 1034 q 74 1042 59 1042 l 489 1042 q 512 1038 506 1042 q 518 1017 518 1034 l 518 975 q 513 954 518 958 q 492 950 507 950 l 391 950 q 368 945 375 950 q 362 922 362 940 l 362 117 q 368 96 362 100 q 392 92 375 92 l 647 92 q 789 119 738 92 q 862 204 840 147 q 885 351 884 261 q 888 367 885 362 q 901 372 890 372 l 942 372 q 962 369 956 372 q 968 351 968 366 l 968 33 q 964 6 968 13 q 940 0 960 0 l 80 0 q 56 4 63 0 q 49 26 49 8 l 49 69 q 52 87 49 82 q 67 92 56 92 l 169 92 q 196 96 190 92 q 202 121 202 101 l 202 922 q 197 945 202 940 q 173 950 192 950 "},"Ŋ":{"ha":1160,"x_min":51,"x_max":1051,"o":"m 184 950 l 68 950 q 54 954 57 950 q 51 969 51 958 l 51 1023 q 55 1038 51 1033 q 69 1042 59 1042 l 334 1042 q 352 1034 347 1042 q 358 1016 358 1027 l 358 871 q 363 845 358 844 q 375 858 367 847 q 426 919 394 885 q 502 985 458 953 q 601 1037 546 1017 q 726 1058 657 1058 q 903 1024 831 1058 q 1014 924 976 990 q 1051 765 1051 859 l 1051 7 q 1040 -139 1051 -72 q 1000 -256 1028 -206 q 924 -333 972 -306 q 801 -361 876 -361 q 689 -337 736 -361 q 616 -275 642 -314 q 590 -190 590 -236 q 616 -115 590 -147 q 683 -84 642 -84 q 749 -108 724 -84 q 775 -168 775 -131 q 767 -206 775 -194 q 752 -225 760 -217 q 744 -245 744 -232 q 755 -275 744 -258 q 801 -292 765 -292 q 869 -264 847 -292 q 899 -188 892 -235 q 904 -84 906 -141 q 897 32 902 -26 q 892 138 892 90 l 892 752 q 833 910 892 853 q 684 967 774 967 q 565 939 622 967 q 461 866 507 912 q 389 767 416 821 q 362 659 362 713 l 362 120 q 368 98 362 104 q 391 92 374 92 l 500 92 q 520 88 515 92 q 525 68 525 83 l 525 22 q 520 4 525 8 q 503 0 516 0 l 71 0 q 54 5 58 0 q 51 23 51 10 l 51 69 q 57 88 51 84 q 76 92 63 92 l 178 92 q 198 95 193 92 q 203 113 203 99 l 203 935 q 199 947 203 944 q 184 950 194 950 "},"Œ":{"ha":1703,"x_min":71,"x_max":1618,"o":"m 733 1042 l 733 950 l 587 950 q 395 895 467 950 q 292 744 324 841 q 260 521 260 647 q 294 298 260 394 q 402 146 329 201 q 587 92 474 92 l 733 92 l 733 0 l 581 0 q 364 39 459 0 q 203 149 269 78 q 105 315 138 220 q 71 521 71 410 q 106 727 71 632 q 209 892 142 822 q 370 1002 276 963 q 581 1042 464 1042 l 733 1042 m 804 950 l 711 950 q 689 956 693 950 q 685 979 685 963 l 685 1015 q 690 1036 685 1031 q 710 1042 694 1042 l 1567 1042 q 1598 1037 1592 1042 q 1604 1008 1604 1032 l 1604 731 q 1603 709 1604 714 q 1583 703 1602 703 l 1541 703 q 1523 710 1526 703 q 1519 730 1519 717 q 1498 861 1517 813 q 1434 930 1478 909 q 1313 950 1390 950 l 1028 950 q 1003 945 1010 950 q 997 919 997 940 l 997 603 q 1000 578 997 586 q 1021 571 1004 571 l 1103 571 q 1220 609 1182 571 q 1263 706 1258 647 q 1268 726 1265 721 q 1283 731 1272 731 l 1313 731 q 1331 726 1326 731 q 1336 708 1336 721 l 1336 365 q 1333 342 1336 348 q 1313 337 1329 337 l 1283 337 q 1269 341 1274 337 q 1263 362 1264 346 q 1240 433 1258 401 q 1189 484 1222 465 q 1103 503 1155 503 l 1024 503 q 1001 497 1006 503 q 997 471 997 490 l 997 122 q 1002 97 997 102 q 1028 92 1008 92 l 1299 92 q 1440 114 1390 92 q 1511 191 1490 137 q 1533 343 1531 246 q 1536 363 1533 358 q 1552 368 1540 368 l 1591 368 q 1612 364 1606 368 q 1618 345 1618 360 l 1618 24 q 1614 4 1618 8 q 1594 0 1610 0 l 714 0 q 691 4 697 0 q 685 25 685 8 l 685 72 q 690 89 685 87 q 710 92 695 92 l 801 92 q 832 98 826 92 q 838 129 838 104 l 838 921 q 831 946 838 942 q 804 950 825 950 "},"Ŧ":{"ha":1083,"x_min":64,"x_max":1019,"o":"m 274 572 l 809 572 q 828 568 825 572 q 832 551 832 564 l 832 507 q 828 489 832 494 q 807 483 825 483 l 274 483 q 253 487 257 483 q 250 505 250 491 l 250 551 q 255 567 250 563 q 274 572 260 572 m 285 29 l 285 66 q 292 88 285 83 q 315 92 299 92 l 426 92 q 458 98 451 92 q 464 131 464 105 l 464 926 q 458 951 464 945 q 434 957 453 957 l 376 957 q 239 934 288 957 q 169 857 190 911 q 147 706 149 802 q 142 682 147 689 q 118 676 138 676 l 90 676 q 68 685 72 676 q 64 710 64 694 l 64 1004 q 69 1035 64 1028 q 97 1042 74 1042 l 990 1042 q 1015 1035 1010 1042 q 1019 1009 1019 1029 l 1019 700 q 1014 680 1019 683 q 990 676 1008 676 l 965 676 q 940 683 944 676 q 935 709 936 691 q 913 858 933 804 q 844 934 892 912 q 708 957 795 957 l 646 957 q 624 951 628 957 q 619 927 619 945 l 619 134 q 625 99 619 106 q 658 92 631 92 l 767 92 q 793 85 789 92 q 798 58 798 79 l 798 31 q 788 5 798 9 q 758 0 777 0 l 318 0 q 292 5 298 0 q 285 29 285 10 "},"ẞ":{"ha":1341,"x_min":34,"x_max":1287,"o":"m 662 203 q 684 148 662 172 q 744 108 707 124 q 823 84 781 92 q 903 76 865 76 q 1062 125 1002 76 q 1122 267 1122 174 q 1112 347 1122 306 q 1072 424 1103 388 q 975 484 1040 460 q 799 510 910 508 l 799 589 q 1046 560 950 589 q 1194 484 1142 531 q 1267 379 1247 436 q 1287 264 1287 322 q 1259 144 1287 197 q 1182 57 1231 92 q 1068 3 1133 22 q 930 -15 1003 -15 q 790 2 856 -15 q 672 47 723 18 q 591 111 621 75 q 562 188 562 148 q 590 264 562 234 q 662 294 617 294 q 727 268 701 294 q 753 201 753 242 q 740 156 753 176 q 708 126 728 137 q 665 115 688 115 q 631 121 649 115 q 598 138 613 127 q 573 161 583 148 q 563 188 563 174 l 662 203 m 34 86 l 443 86 l 443 0 l 34 0 l 34 86 m 957 565 q 927 571 947 568 q 884 577 908 574 q 839 583 861 581 q 799 589 816 586 l 1058 892 q 983 932 1031 915 q 882 958 936 949 q 777 967 827 967 q 572 943 658 967 q 428 871 485 918 q 345 756 372 824 q 318 598 318 687 l 318 0 l 160 0 l 160 613 q 204 800 160 718 q 330 940 248 883 q 527 1026 413 997 q 781 1056 641 1056 q 941 1040 864 1056 q 1081 1002 1018 1025 q 1187 955 1144 979 q 1246 914 1230 931 l 957 565 "},"Δ":{"ha":1212,"x_min":107,"x_max":1086,"o":"m 850 92 q 869 99 869 92 q 865 118 869 107 l 592 849 q 580 871 584 871 q 568 853 576 871 l 259 125 q 255 100 252 108 q 280 92 258 92 l 850 92 m 1042 0 l 146 0 q 114 7 121 0 q 113 28 107 13 l 556 1053 q 563 1061 559 1060 q 575 1063 566 1063 l 652 1063 q 667 1060 663 1063 q 674 1051 671 1058 l 1079 32 q 1080 8 1086 15 q 1042 0 1073 0 "},"Ω":{"ha":1094,"x_min":93,"x_max":1001,"o":"m 888 218 l 976 218 l 976 0 l 646 0 l 646 292 q 778 410 733 328 q 822 625 822 492 q 754 878 822 785 q 547 972 686 972 q 340 878 408 972 q 272 625 272 785 q 316 407 272 492 q 448 285 360 322 l 448 0 l 119 0 l 119 218 l 206 218 q 216 162 206 185 q 247 126 225 138 q 303 113 268 113 l 362 113 l 362 234 q 264 294 311 257 q 177 381 216 331 q 116 492 138 431 q 93 625 93 553 q 149 855 93 758 q 307 1003 205 951 q 547 1056 410 1056 q 786 1003 684 1056 q 944 855 888 951 q 1001 625 1001 758 q 978 493 1001 553 q 916 383 955 432 q 830 298 878 334 q 732 240 783 262 l 732 113 l 790 113 q 848 126 826 113 q 878 162 869 138 q 888 218 888 185 "},"a":{"ha":799,"x_min":64,"x_max":820,"o":"m 64 171 q 106 293 64 238 q 230 382 148 349 q 431 415 311 415 l 496 415 q 511 417 508 415 q 514 433 514 420 l 514 510 q 503 590 514 555 q 463 645 492 625 q 382 665 434 665 q 317 658 348 665 q 268 640 287 651 q 249 616 249 628 q 258 598 249 604 q 276 581 267 592 q 285 543 285 570 q 261 482 285 506 q 199 458 238 458 q 135 477 163 458 q 108 543 108 496 q 135 626 108 590 q 207 686 162 662 q 307 724 252 711 q 418 736 363 736 q 568 706 515 736 q 642 624 622 675 q 663 512 663 572 l 663 111 q 673 81 663 90 q 699 71 684 71 q 729 79 713 71 q 763 115 745 88 q 778 120 769 127 l 811 100 q 815 83 820 94 q 775 31 799 53 q 722 -2 751 9 q 659 -14 692 -14 l 658 -14 q 580 3 607 -14 q 542 42 553 19 q 526 81 531 64 q 517 95 521 95 q 502 83 513 95 q 466 43 490 66 q 398 3 442 20 q 283 -14 355 -14 q 126 34 188 -14 q 64 171 64 83 m 232 192 q 270 102 232 129 q 358 74 308 74 q 469 124 425 74 q 514 265 514 174 l 514 340 q 500 354 514 354 l 437 354 q 318 334 363 354 q 252 278 273 315 q 232 192 232 242 "},"à":{"ha":799,"x_min":64,"x_max":820,"o":"m 421 835 l 247 935 q 217 973 226 947 q 227 1028 208 998 q 259 1052 239 1045 q 299 1056 278 1060 q 333 1038 320 1052 l 472 897 q 473 872 485 884 l 442 839 q 432 831 436 833 q 421 835 428 830 m 64 171 q 106 293 64 238 q 230 382 148 349 q 431 415 311 415 l 496 415 q 511 417 508 415 q 514 433 514 420 l 514 510 q 503 590 514 555 q 463 645 492 625 q 382 665 434 665 q 317 658 348 665 q 268 640 287 651 q 249 616 249 628 q 258 598 249 604 q 276 581 267 592 q 285 543 285 570 q 261 482 285 506 q 199 458 238 458 q 135 477 163 458 q 108 543 108 496 q 135 626 108 590 q 207 686 162 662 q 307 724 252 711 q 418 736 363 736 q 568 706 515 736 q 642 624 622 675 q 663 512 663 572 l 663 111 q 673 81 663 90 q 699 71 684 71 q 729 79 713 71 q 763 115 745 88 q 778 120 769 127 l 811 100 q 815 83 820 94 q 775 31 799 53 q 722 -2 751 9 q 659 -14 692 -14 l 658 -14 q 580 3 607 -14 q 542 42 553 19 q 526 81 531 64 q 517 95 521 95 q 502 83 513 95 q 466 43 490 66 q 398 3 442 20 q 283 -14 355 -14 q 126 34 188 -14 q 64 171 64 83 m 232 192 q 270 102 232 129 q 358 74 308 74 q 469 124 425 74 q 514 265 514 174 l 514 340 q 500 354 514 354 l 437 354 q 318 334 363 354 q 252 278 273 315 q 232 192 232 242 "},"á":{"ha":799,"x_min":64,"x_max":820,"o":"m 372 840 l 341 873 q 341 895 330 885 l 481 1038 q 516 1056 495 1052 q 556 1052 536 1060 q 587 1028 576 1045 q 598 973 606 998 q 567 935 590 947 l 399 838 q 385 832 390 832 q 372 840 380 832 m 64 171 q 106 293 64 238 q 230 382 148 349 q 431 415 311 415 l 496 415 q 511 417 508 415 q 514 433 514 420 l 514 510 q 503 590 514 555 q 463 645 492 625 q 382 665 434 665 q 317 658 348 665 q 268 640 287 651 q 249 616 249 628 q 258 598 249 604 q 276 581 267 592 q 285 543 285 570 q 261 482 285 506 q 199 458 238 458 q 135 477 163 458 q 108 543 108 496 q 135 626 108 590 q 207 686 162 662 q 307 724 252 711 q 418 736 363 736 q 568 706 515 736 q 642 624 622 675 q 663 512 663 572 l 663 111 q 673 81 663 90 q 699 71 684 71 q 729 79 713 71 q 763 115 745 88 q 778 120 769 127 l 811 100 q 815 83 820 94 q 775 31 799 53 q 722 -2 751 9 q 659 -14 692 -14 l 658 -14 q 580 3 607 -14 q 542 42 553 19 q 526 81 531 64 q 517 95 521 95 q 502 83 513 95 q 466 43 490 66 q 398 3 442 20 q 283 -14 355 -14 q 126 34 188 -14 q 64 171 64 83 m 232 192 q 270 102 232 129 q 358 74 308 74 q 469 124 425 74 q 514 265 514 174 l 514 340 q 500 354 514 354 l 437 354 q 318 334 363 354 q 252 278 273 315 q 232 192 232 242 "},"â":{"ha":799,"x_min":64,"x_max":820,"o":"m 228 849 l 208 870 q 201 881 201 878 q 208 892 201 884 l 339 1029 q 353 1039 347 1037 q 376 1041 360 1041 l 444 1041 q 464 1038 458 1041 q 476 1029 470 1035 l 610 889 q 615 882 615 884 q 610 874 615 879 l 583 847 q 572 839 575 839 q 560 846 569 840 l 425 947 q 390 947 407 960 l 253 845 q 228 849 242 836 m 64 171 q 106 293 64 238 q 230 382 148 349 q 431 415 311 415 l 496 415 q 511 417 508 415 q 514 433 514 420 l 514 510 q 503 590 514 555 q 463 645 492 625 q 382 665 434 665 q 317 658 348 665 q 268 640 287 651 q 249 616 249 628 q 258 598 249 604 q 276 581 267 592 q 285 543 285 570 q 261 482 285 506 q 199 458 238 458 q 135 477 163 458 q 108 543 108 496 q 135 626 108 590 q 207 686 162 662 q 307 724 252 711 q 418 736 363 736 q 568 706 515 736 q 642 624 622 675 q 663 512 663 572 l 663 111 q 673 81 663 90 q 699 71 684 71 q 729 79 713 71 q 763 115 745 88 q 778 120 769 127 l 811 100 q 815 83 820 94 q 775 31 799 53 q 722 -2 751 9 q 659 -14 692 -14 l 658 -14 q 580 3 607 -14 q 542 42 553 19 q 526 81 531 64 q 517 95 521 95 q 502 83 513 95 q 466 43 490 66 q 398 3 442 20 q 283 -14 355 -14 q 126 34 188 -14 q 64 171 64 83 m 232 192 q 270 102 232 129 q 358 74 308 74 q 469 124 425 74 q 514 265 514 174 l 514 340 q 500 354 514 354 l 437 354 q 318 334 363 354 q 252 278 273 315 q 232 192 232 242 "},"ã":{"ha":799,"x_min":64,"x_max":820,"o":"m 516 842 q 443 859 472 842 q 391 897 414 876 q 351 931 372 914 q 300 948 330 948 q 247 928 264 948 q 227 871 229 908 q 213 861 225 861 l 181 861 q 168 866 169 861 q 167 882 166 872 q 191 963 171 926 q 245 1021 212 999 q 322 1042 279 1042 q 394 1026 366 1042 q 444 988 423 1010 q 480 954 460 972 q 526 937 499 937 q 598 1008 591 937 q 602 1020 599 1017 q 614 1024 604 1024 l 646 1024 q 658 1020 656 1024 q 659 1008 660 1017 q 642 919 658 957 q 595 862 626 882 q 516 842 564 842 m 64 171 q 106 293 64 238 q 230 382 148 349 q 431 415 311 415 l 496 415 q 511 417 508 415 q 514 433 514 420 l 514 510 q 503 590 514 555 q 463 645 492 625 q 382 665 434 665 q 317 658 348 665 q 268 640 287 651 q 249 616 249 628 q 258 598 249 604 q 276 581 267 592 q 285 543 285 570 q 261 482 285 506 q 199 458 238 458 q 135 477 163 458 q 108 543 108 496 q 135 626 108 590 q 207 686 162 662 q 307 724 252 711 q 418 736 363 736 q 568 706 515 736 q 642 624 622 675 q 663 512 663 572 l 663 111 q 673 81 663 90 q 699 71 684 71 q 729 79 713 71 q 763 115 745 88 q 778 120 769 127 l 811 100 q 815 83 820 94 q 775 31 799 53 q 722 -2 751 9 q 659 -14 692 -14 l 658 -14 q 580 3 607 -14 q 542 42 553 19 q 526 81 531 64 q 517 95 521 95 q 502 83 513 95 q 466 43 490 66 q 398 3 442 20 q 283 -14 355 -14 q 126 34 188 -14 q 64 171 64 83 m 232 192 q 270 102 232 129 q 358 74 308 74 q 469 124 425 74 q 514 265 514 174 l 514 340 q 500 354 514 354 l 437 354 q 318 334 363 354 q 252 278 273 315 q 232 192 232 242 "},"ä":{"ha":799,"x_min":64,"x_max":820,"o":"m 529 854 q 475 876 497 854 q 453 931 453 899 q 475 984 453 962 q 529 1007 497 1007 q 583 984 560 1007 q 605 931 605 962 q 583 876 605 899 q 529 854 560 854 m 283 854 q 230 876 252 854 q 208 931 208 899 q 230 984 208 962 q 283 1007 252 1007 q 338 984 315 1007 q 360 931 360 962 q 338 876 360 899 q 283 854 315 854 m 64 171 q 106 293 64 238 q 230 382 148 349 q 431 415 311 415 l 496 415 q 511 417 508 415 q 514 433 514 420 l 514 510 q 503 590 514 555 q 463 645 492 625 q 382 665 434 665 q 317 658 348 665 q 268 640 287 651 q 249 616 249 628 q 258 598 249 604 q 276 581 267 592 q 285 543 285 570 q 261 482 285 506 q 199 458 238 458 q 135 477 163 458 q 108 543 108 496 q 135 626 108 590 q 207 686 162 662 q 307 724 252 711 q 418 736 363 736 q 568 706 515 736 q 642 624 622 675 q 663 512 663 572 l 663 111 q 673 81 663 90 q 699 71 684 71 q 729 79 713 71 q 763 115 745 88 q 778 120 769 127 l 811 100 q 815 83 820 94 q 775 31 799 53 q 722 -2 751 9 q 659 -14 692 -14 l 658 -14 q 580 3 607 -14 q 542 42 553 19 q 526 81 531 64 q 517 95 521 95 q 502 83 513 95 q 466 43 490 66 q 398 3 442 20 q 283 -14 355 -14 q 126 34 188 -14 q 64 171 64 83 m 232 192 q 270 102 232 129 q 358 74 308 74 q 469 124 425 74 q 514 265 514 174 l 514 340 q 500 354 514 354 l 437 354 q 318 334 363 354 q 252 278 273 315 q 232 192 232 242 "},"å":{"ha":799,"x_min":64,"x_max":820,"o":"m 407 843 q 340 861 369 843 q 293 908 310 878 q 276 974 276 938 q 293 1041 276 1011 q 340 1089 310 1072 q 407 1107 369 1107 q 475 1089 445 1107 q 522 1041 505 1072 q 539 974 539 1011 q 522 908 539 938 q 475 861 504 878 q 407 843 445 843 m 407 903 q 457 923 438 903 q 476 974 476 943 q 457 1028 476 1007 q 407 1049 438 1049 q 358 1028 376 1049 q 339 974 339 1007 q 358 923 339 943 q 407 903 376 903 m 64 171 q 106 293 64 238 q 230 382 148 349 q 431 415 311 415 l 496 415 q 511 417 508 415 q 514 433 514 420 l 514 510 q 503 590 514 555 q 463 645 492 625 q 382 665 434 665 q 317 658 348 665 q 268 640 287 651 q 249 616 249 628 q 258 598 249 604 q 276 581 267 592 q 285 543 285 570 q 261 482 285 506 q 199 458 238 458 q 135 477 163 458 q 108 543 108 496 q 135 626 108 590 q 207 686 162 662 q 307 724 252 711 q 418 736 363 736 q 568 706 515 736 q 642 624 622 675 q 663 512 663 572 l 663 111 q 673 81 663 90 q 699 71 684 71 q 729 79 713 71 q 763 115 745 88 q 778 120 769 127 l 811 100 q 815 83 820 94 q 775 31 799 53 q 722 -2 751 9 q 659 -14 692 -14 l 658 -14 q 580 3 607 -14 q 542 42 553 19 q 526 81 531 64 q 517 95 521 95 q 502 83 513 95 q 466 43 490 66 q 398 3 442 20 q 283 -14 355 -14 q 126 34 188 -14 q 64 171 64 83 m 232 192 q 270 102 232 129 q 358 74 308 74 q 469 124 425 74 q 514 265 514 174 l 514 340 q 500 354 514 354 l 437 354 q 318 334 363 354 q 252 278 273 315 q 232 192 232 242 "},"ā":{"ha":799,"x_min":64,"x_max":820,"o":"m 240 865 l 240 897 q 243 911 240 907 q 254 916 245 916 l 550 916 q 568 912 563 916 q 574 894 574 908 l 574 863 q 572 847 574 852 q 558 842 569 842 l 265 842 q 246 846 251 842 q 240 865 240 850 m 64 171 q 106 293 64 238 q 230 382 148 349 q 431 415 311 415 l 496 415 q 511 417 508 415 q 514 433 514 420 l 514 510 q 503 590 514 555 q 463 645 492 625 q 382 665 434 665 q 317 658 348 665 q 268 640 287 651 q 249 616 249 628 q 258 598 249 604 q 276 581 267 592 q 285 543 285 570 q 261 482 285 506 q 199 458 238 458 q 135 477 163 458 q 108 543 108 496 q 135 626 108 590 q 207 686 162 662 q 307 724 252 711 q 418 736 363 736 q 568 706 515 736 q 642 624 622 675 q 663 512 663 572 l 663 111 q 673 81 663 90 q 699 71 684 71 q 729 79 713 71 q 763 115 745 88 q 778 120 769 127 l 811 100 q 815 83 820 94 q 775 31 799 53 q 722 -2 751 9 q 659 -14 692 -14 l 658 -14 q 580 3 607 -14 q 542 42 553 19 q 526 81 531 64 q 517 95 521 95 q 502 83 513 95 q 466 43 490 66 q 398 3 442 20 q 283 -14 355 -14 q 126 34 188 -14 q 64 171 64 83 m 232 192 q 270 102 232 129 q 358 74 308 74 q 469 124 425 74 q 514 265 514 174 l 514 340 q 500 354 514 354 l 437 354 q 318 334 363 354 q 252 278 273 315 q 232 192 232 242 "},"ă":{"ha":799,"x_min":64,"x_max":820,"o":"m 407 842 q 280 889 315 842 q 244 1017 245 937 q 260 1031 244 1031 l 283 1031 q 295 1019 294 1031 q 327 955 299 976 q 407 933 356 933 q 484 952 455 933 q 519 1010 513 972 q 521 1025 521 1020 q 534 1031 522 1031 l 558 1031 q 571 1027 569 1031 q 572 1014 573 1024 q 533 889 569 935 q 407 842 497 842 m 64 171 q 106 293 64 238 q 230 382 148 349 q 431 415 311 415 l 496 415 q 511 417 508 415 q 514 433 514 420 l 514 510 q 503 590 514 555 q 463 645 492 625 q 382 665 434 665 q 317 658 348 665 q 268 640 287 651 q 249 616 249 628 q 258 598 249 604 q 276 581 267 592 q 285 543 285 570 q 261 482 285 506 q 199 458 238 458 q 135 477 163 458 q 108 543 108 496 q 135 626 108 590 q 207 686 162 662 q 307 724 252 711 q 418 736 363 736 q 568 706 515 736 q 642 624 622 675 q 663 512 663 572 l 663 111 q 673 81 663 90 q 699 71 684 71 q 729 79 713 71 q 763 115 745 88 q 778 120 769 127 l 811 100 q 815 83 820 94 q 775 31 799 53 q 722 -2 751 9 q 659 -14 692 -14 l 658 -14 q 580 3 607 -14 q 542 42 553 19 q 526 81 531 64 q 517 95 521 95 q 502 83 513 95 q 466 43 490 66 q 398 3 442 20 q 283 -14 355 -14 q 126 34 188 -14 q 64 171 64 83 m 232 192 q 270 102 232 129 q 358 74 308 74 q 469 124 425 74 q 514 265 514 174 l 514 340 q 500 354 514 354 l 437 354 q 318 334 363 354 q 252 278 273 315 q 232 192 232 242 "},"ą":{"ha":799,"x_min":64,"x_max":852,"o":"m 689 -281 q 580 -257 626 -281 q 534 -173 534 -233 q 552 -112 534 -142 q 598 -57 570 -83 q 658 -8 626 -31 q 718 33 690 15 q 740 42 730 41 q 754 38 750 43 q 758 23 761 31 q 747 6 756 16 q 714 -34 731 -12 q 685 -82 697 -57 q 673 -136 673 -108 q 688 -184 673 -162 q 738 -205 703 -205 q 782 -193 764 -205 q 810 -165 799 -181 q 831 -160 820 -151 l 845 -171 q 852 -179 852 -176 q 848 -190 852 -183 q 790 -255 827 -228 q 689 -281 753 -281 m 64 171 q 106 293 64 238 q 230 382 148 349 q 431 415 311 415 l 496 415 q 511 417 508 415 q 514 433 514 420 l 514 510 q 503 590 514 555 q 463 645 492 625 q 382 665 434 665 q 317 658 348 665 q 268 640 287 651 q 249 616 249 628 q 258 598 249 604 q 276 581 267 592 q 285 543 285 570 q 261 482 285 506 q 199 458 238 458 q 135 477 163 458 q 108 543 108 496 q 135 626 108 590 q 207 686 162 662 q 307 724 252 711 q 418 736 363 736 q 568 706 515 736 q 642 624 622 675 q 663 512 663 572 l 663 111 q 673 81 663 90 q 699 71 684 71 q 729 79 713 71 q 763 115 745 88 q 778 120 769 127 l 811 100 q 815 83 820 94 q 775 31 799 53 q 722 -2 751 9 q 659 -14 692 -14 l 658 -14 q 580 3 607 -14 q 542 42 553 19 q 526 81 531 64 q 517 95 521 95 q 502 83 513 95 q 466 43 490 66 q 398 3 442 20 q 283 -14 355 -14 q 126 34 188 -14 q 64 171 64 83 m 232 192 q 270 102 232 129 q 358 74 308 74 q 469 124 425 74 q 514 265 514 174 l 514 340 q 500 354 514 354 l 437 354 q 318 334 363 354 q 252 278 273 315 q 232 192 232 242 "},"b":{"ha":908,"x_min":34,"x_max":847,"o":"m 308 361 q 331 218 308 284 q 399 111 355 151 q 501 70 442 70 q 597 111 556 70 q 661 218 638 151 q 684 361 684 284 q 661 505 684 438 q 597 611 638 571 q 501 652 556 652 q 399 611 442 652 q 331 505 355 571 q 308 361 308 438 m 48 997 q 37 1001 40 997 q 34 1013 34 1004 l 34 1072 q 36 1081 34 1078 q 44 1083 38 1083 l 293 1083 q 304 1081 301 1083 q 308 1072 308 1079 l 308 610 q 309 591 308 593 q 315 597 310 588 q 406 699 351 662 q 538 737 462 737 q 692 693 622 737 q 804 564 762 649 q 847 361 847 480 q 804 158 847 242 q 691 28 761 73 q 536 -16 620 -16 q 408 18 463 -16 q 319 116 353 53 q 310 125 313 128 q 308 99 308 123 l 308 25 q 304 7 308 14 q 288 0 300 0 l 49 0 q 37 2 40 0 q 34 13 34 4 l 34 74 q 38 84 34 81 q 49 86 42 86 l 145 86 q 157 89 154 86 q 159 101 159 92 l 159 983 q 147 997 159 997 l 48 997 "},"c":{"ha":770,"x_min":58,"x_max":720,"o":"m 58 359 q 82 506 58 438 q 151 627 106 574 q 264 709 197 679 q 418 738 331 738 q 571 709 507 738 q 669 633 635 681 q 703 527 703 585 q 671 449 703 473 q 602 425 639 425 q 540 449 567 425 q 512 513 512 472 q 523 554 512 540 q 546 579 535 568 q 558 605 558 590 q 522 648 558 631 q 434 664 486 664 q 316 622 363 664 q 248 511 270 580 q 225 363 225 442 q 243 217 225 286 q 304 106 262 149 q 418 63 347 63 q 548 107 497 63 q 626 226 599 152 q 632 237 628 234 q 647 240 636 240 l 703 240 q 718 238 715 240 q 717 226 720 235 q 655 99 695 153 q 555 14 615 44 q 412 -16 494 -16 q 212 35 290 -16 q 96 171 134 85 q 58 359 58 256 "},"ç":{"ha":770,"x_min":58,"x_max":720,"o":"m 283 -350 l 283 -330 q 289 -315 283 -318 q 305 -311 294 -312 q 383 -293 347 -308 q 419 -246 419 -278 q 401 -204 419 -219 q 353 -183 382 -190 q 292 -174 324 -177 q 269 -168 272 -172 q 274 -154 267 -163 l 379 -11 q 385 -5 383 -6 q 396 -4 388 -4 l 435 -4 q 450 -7 451 -4 q 443 -18 449 -10 l 385 -96 q 378 -110 376 -108 q 399 -114 380 -112 q 492 -144 457 -119 q 528 -228 528 -169 q 508 -295 528 -268 q 455 -338 488 -322 q 382 -361 422 -354 q 301 -370 342 -369 q 283 -350 283 -371 m 58 359 q 82 506 58 438 q 151 627 106 574 q 264 709 197 679 q 418 738 331 738 q 571 709 507 738 q 669 633 635 681 q 703 527 703 585 q 671 449 703 473 q 602 425 639 425 q 540 449 567 425 q 512 513 512 472 q 523 554 512 540 q 546 579 535 568 q 558 605 558 590 q 522 648 558 631 q 434 664 486 664 q 316 622 363 664 q 248 511 270 580 q 225 363 225 442 q 243 217 225 286 q 304 106 262 149 q 418 63 347 63 q 548 107 497 63 q 626 226 599 152 q 632 237 628 234 q 647 240 636 240 l 703 240 q 718 238 715 240 q 717 226 720 235 q 655 99 695 153 q 555 14 615 44 q 412 -16 494 -16 q 212 35 290 -16 q 96 171 134 85 q 58 359 58 256 "},"ć":{"ha":770,"x_min":58,"x_max":720,"o":"m 385 840 l 353 873 q 353 895 342 885 l 493 1038 q 528 1056 508 1052 q 569 1052 549 1060 q 599 1028 589 1045 q 610 973 619 998 q 580 935 602 947 l 411 838 q 397 832 402 832 q 385 840 392 832 m 58 359 q 82 506 58 438 q 151 627 106 574 q 264 709 197 679 q 418 738 331 738 q 571 709 507 738 q 669 633 635 681 q 703 527 703 585 q 671 449 703 473 q 602 425 639 425 q 540 449 567 425 q 512 513 512 472 q 523 554 512 540 q 546 579 535 568 q 558 605 558 590 q 522 648 558 631 q 434 664 486 664 q 316 622 363 664 q 248 511 270 580 q 225 363 225 442 q 243 217 225 286 q 304 106 262 149 q 418 63 347 63 q 548 107 497 63 q 626 226 599 152 q 632 237 628 234 q 647 240 636 240 l 703 240 q 718 238 715 240 q 717 226 720 235 q 655 99 695 153 q 555 14 615 44 q 412 -16 494 -16 q 212 35 290 -16 q 96 171 134 85 q 58 359 58 256 "},"ĉ":{"ha":770,"x_min":58,"x_max":720,"o":"m 241 849 l 221 870 q 213 881 213 878 q 221 892 213 884 l 351 1029 q 366 1039 359 1037 q 388 1041 373 1041 l 457 1041 q 477 1038 471 1041 q 489 1029 483 1035 l 622 889 q 628 882 628 884 q 622 874 628 879 l 595 847 q 585 839 588 839 q 573 846 582 840 l 438 947 q 403 947 419 960 l 266 845 q 241 849 254 836 m 58 359 q 82 506 58 438 q 151 627 106 574 q 264 709 197 679 q 418 738 331 738 q 571 709 507 738 q 669 633 635 681 q 703 527 703 585 q 671 449 703 473 q 602 425 639 425 q 540 449 567 425 q 512 513 512 472 q 523 554 512 540 q 546 579 535 568 q 558 605 558 590 q 522 648 558 631 q 434 664 486 664 q 316 622 363 664 q 248 511 270 580 q 225 363 225 442 q 243 217 225 286 q 304 106 262 149 q 418 63 347 63 q 548 107 497 63 q 626 226 599 152 q 632 237 628 234 q 647 240 636 240 l 703 240 q 718 238 715 240 q 717 226 720 235 q 655 99 695 153 q 555 14 615 44 q 412 -16 494 -16 q 212 35 290 -16 q 96 171 134 85 q 58 359 58 256 "},"ċ":{"ha":770,"x_min":58,"x_max":720,"o":"m 422 881 q 359 908 385 881 q 332 972 332 935 q 359 1036 332 1010 q 422 1063 385 1063 q 486 1036 460 1063 q 513 972 513 1010 q 486 908 513 935 q 422 881 460 881 m 58 359 q 82 506 58 438 q 151 627 106 574 q 264 709 197 679 q 418 738 331 738 q 571 709 507 738 q 669 633 635 681 q 703 527 703 585 q 671 449 703 473 q 602 425 639 425 q 540 449 567 425 q 512 513 512 472 q 523 554 512 540 q 546 579 535 568 q 558 605 558 590 q 522 648 558 631 q 434 664 486 664 q 316 622 363 664 q 248 511 270 580 q 225 363 225 442 q 243 217 225 286 q 304 106 262 149 q 418 63 347 63 q 548 107 497 63 q 626 226 599 152 q 632 237 628 234 q 647 240 636 240 l 703 240 q 718 238 715 240 q 717 226 720 235 q 655 99 695 153 q 555 14 615 44 q 412 -16 494 -16 q 212 35 290 -16 q 96 171 134 85 q 58 359 58 256 "},"č":{"ha":770,"x_min":58,"x_max":720,"o":"m 341 869 l 224 994 q 215 1008 216 1003 q 223 1020 214 1013 l 241 1036 q 256 1043 251 1044 q 273 1035 261 1042 l 385 960 q 419 947 404 947 q 453 960 435 947 l 572 1043 q 587 1049 582 1051 q 601 1038 592 1047 l 614 1026 q 625 1011 623 1017 q 617 997 626 1006 l 493 865 q 480 853 485 858 q 458 849 474 849 l 392 849 q 361 855 372 849 q 341 869 351 860 m 58 359 q 82 506 58 438 q 151 627 106 574 q 264 709 197 679 q 418 738 331 738 q 571 709 507 738 q 669 633 635 681 q 703 527 703 585 q 671 449 703 473 q 602 425 639 425 q 540 449 567 425 q 512 513 512 472 q 523 554 512 540 q 546 579 535 568 q 558 605 558 590 q 522 648 558 631 q 434 664 486 664 q 316 622 363 664 q 248 511 270 580 q 225 363 225 442 q 243 217 225 286 q 304 106 262 149 q 418 63 347 63 q 548 107 497 63 q 626 226 599 152 q 632 237 628 234 q 647 240 636 240 l 703 240 q 718 238 715 240 q 717 226 720 235 q 655 99 695 153 q 555 14 615 44 q 412 -16 494 -16 q 212 35 290 -16 q 96 171 134 85 q 58 359 58 256 "},"d":{"ha":908,"x_min":65,"x_max":877,"o":"m 227 361 q 250 218 227 284 q 314 111 273 151 q 410 70 355 70 q 513 111 469 70 q 580 218 556 151 q 603 361 603 284 q 580 505 603 438 q 513 611 556 571 q 410 652 469 652 q 314 611 355 652 q 250 505 273 571 q 227 361 227 438 m 65 361 q 107 564 65 480 q 220 692 150 648 q 375 737 291 737 q 502 703 448 737 q 591 608 557 669 q 601 597 599 594 q 603 628 603 600 l 603 978 q 599 995 603 992 q 582 997 595 997 l 492 997 q 481 1001 483 997 q 478 1015 478 1006 l 478 1068 q 483 1081 478 1078 q 497 1083 488 1083 l 725 1083 q 745 1080 738 1083 q 752 1063 752 1076 l 752 110 q 757 90 752 94 q 777 86 761 86 l 856 86 q 873 83 869 86 q 877 67 877 81 l 877 21 q 874 3 877 7 q 858 0 871 0 l 627 0 q 608 5 612 0 q 603 25 603 10 l 603 102 q 599 123 603 119 q 585 113 595 127 q 497 18 547 51 q 373 -16 447 -16 q 219 28 290 -16 q 107 157 149 73 q 65 361 65 242 "},"ď":{"ha":953,"x_min":65,"x_max":1199,"o":"m 982 1011 q 996 1059 982 1038 q 1034 1093 1010 1081 q 1088 1105 1058 1105 q 1167 1067 1135 1105 q 1199 949 1199 1030 q 1184 868 1199 908 q 1143 793 1170 828 q 1081 736 1117 759 q 1001 710 1044 714 q 988 710 992 709 q 983 722 983 712 l 983 759 q 988 772 983 769 q 1001 776 993 775 q 1062 801 1034 781 q 1107 855 1090 822 q 1122 925 1124 888 q 1118 931 1122 933 q 1108 926 1114 930 q 1090 919 1099 921 q 1067 917 1081 917 q 1005 944 1028 917 q 982 1011 982 972 m 227 361 q 250 218 227 284 q 314 111 273 151 q 410 70 355 70 q 513 111 469 70 q 580 218 556 151 q 603 361 603 284 q 580 505 603 438 q 513 611 556 571 q 410 652 469 652 q 314 611 355 652 q 250 505 273 571 q 227 361 227 438 m 65 361 q 107 564 65 480 q 220 692 150 648 q 375 737 291 737 q 502 703 448 737 q 591 608 557 669 q 601 597 599 594 q 603 628 603 600 l 603 978 q 599 995 603 992 q 582 997 595 997 l 492 997 q 481 1001 483 997 q 478 1015 478 1006 l 478 1068 q 483 1081 478 1078 q 497 1083 488 1083 l 725 1083 q 745 1080 738 1083 q 752 1063 752 1076 l 752 110 q 757 90 752 94 q 777 86 761 86 l 856 86 q 873 83 869 86 q 877 67 877 81 l 877 21 q 874 3 877 7 q 858 0 871 0 l 627 0 q 608 5 612 0 q 603 25 603 10 l 603 102 q 599 123 603 119 q 585 113 595 127 q 497 18 547 51 q 373 -16 447 -16 q 219 28 290 -16 q 107 157 149 73 q 65 361 65 242 "},"e":{"ha":776,"x_min":58,"x_max":716,"o":"m 58 347 q 97 547 58 458 q 212 686 135 635 q 405 738 289 738 q 530 717 477 738 q 618 658 583 695 q 676 574 654 621 q 707 476 697 527 q 716 376 716 426 q 711 359 716 363 q 691 356 706 356 l 244 356 q 227 351 233 356 q 222 335 222 347 q 242 201 223 263 q 303 100 261 138 q 413 63 345 63 q 543 106 492 63 q 622 224 594 150 q 628 236 625 231 q 642 240 631 240 l 697 240 q 711 237 708 240 q 712 225 714 233 q 651 98 692 152 q 547 14 610 44 q 395 -16 483 -16 q 210 34 285 -16 q 97 167 135 85 q 58 347 58 250 m 244 427 l 537 427 q 553 429 551 427 q 556 440 556 431 q 547 512 556 473 q 519 586 538 551 q 472 644 500 622 q 403 666 443 666 q 305 633 344 666 q 246 549 265 599 q 226 446 226 498 q 228 431 225 435 q 244 427 231 427 "},"è":{"ha":776,"x_min":58,"x_max":716,"o":"m 415 835 l 242 935 q 211 973 220 947 q 222 1028 203 998 q 253 1052 233 1045 q 294 1056 273 1060 q 328 1038 315 1052 l 467 897 q 467 872 479 884 l 436 839 q 427 831 431 833 q 415 835 423 830 m 58 347 q 97 547 58 458 q 212 686 135 635 q 405 738 289 738 q 530 717 477 738 q 618 658 583 695 q 676 574 654 621 q 707 476 697 527 q 716 376 716 426 q 711 359 716 363 q 691 356 706 356 l 244 356 q 227 351 233 356 q 222 335 222 347 q 242 201 223 263 q 303 100 261 138 q 413 63 345 63 q 543 106 492 63 q 622 224 594 150 q 628 236 625 231 q 642 240 631 240 l 697 240 q 711 237 708 240 q 712 225 714 233 q 651 98 692 152 q 547 14 610 44 q 395 -16 483 -16 q 210 34 285 -16 q 97 167 135 85 q 58 347 58 250 m 244 427 l 537 427 q 553 429 551 427 q 556 440 556 431 q 547 512 556 473 q 519 586 538 551 q 472 644 500 622 q 403 666 443 666 q 305 633 344 666 q 246 549 265 599 q 226 446 226 498 q 228 431 225 435 q 244 427 231 427 "},"é":{"ha":776,"x_min":58,"x_max":716,"o":"m 367 840 l 335 873 q 335 895 324 885 l 475 1038 q 510 1056 490 1052 q 551 1052 531 1060 q 581 1028 571 1045 q 592 973 601 998 q 562 935 584 947 l 393 838 q 379 832 384 832 q 367 840 374 832 m 58 347 q 97 547 58 458 q 212 686 135 635 q 405 738 289 738 q 530 717 477 738 q 618 658 583 695 q 676 574 654 621 q 707 476 697 527 q 716 376 716 426 q 711 359 716 363 q 691 356 706 356 l 244 356 q 227 351 233 356 q 222 335 222 347 q 242 201 223 263 q 303 100 261 138 q 413 63 345 63 q 543 106 492 63 q 622 224 594 150 q 628 236 625 231 q 642 240 631 240 l 697 240 q 711 237 708 240 q 712 225 714 233 q 651 98 692 152 q 547 14 610 44 q 395 -16 483 -16 q 210 34 285 -16 q 97 167 135 85 q 58 347 58 250 m 244 427 l 537 427 q 553 429 551 427 q 556 440 556 431 q 547 512 556 473 q 519 586 538 551 q 472 644 500 622 q 403 666 443 666 q 305 633 344 666 q 246 549 265 599 q 226 446 226 498 q 228 431 225 435 q 244 427 231 427 "},"ê":{"ha":776,"x_min":58,"x_max":716,"o":"m 223 849 l 203 870 q 195 881 195 878 q 203 892 195 884 l 333 1029 q 348 1039 341 1037 q 370 1041 355 1041 l 439 1041 q 459 1038 453 1041 q 471 1029 465 1035 l 604 889 q 610 882 610 884 q 604 874 610 879 l 577 847 q 567 839 569 839 q 555 846 564 840 l 419 947 q 385 947 401 960 l 248 845 q 223 849 236 836 m 58 347 q 97 547 58 458 q 212 686 135 635 q 405 738 289 738 q 530 717 477 738 q 618 658 583 695 q 676 574 654 621 q 707 476 697 527 q 716 376 716 426 q 711 359 716 363 q 691 356 706 356 l 244 356 q 227 351 233 356 q 222 335 222 347 q 242 201 223 263 q 303 100 261 138 q 413 63 345 63 q 543 106 492 63 q 622 224 594 150 q 628 236 625 231 q 642 240 631 240 l 697 240 q 711 237 708 240 q 712 225 714 233 q 651 98 692 152 q 547 14 610 44 q 395 -16 483 -16 q 210 34 285 -16 q 97 167 135 85 q 58 347 58 250 m 244 427 l 537 427 q 553 429 551 427 q 556 440 556 431 q 547 512 556 473 q 519 586 538 551 q 472 644 500 622 q 403 666 443 666 q 305 633 344 666 q 246 549 265 599 q 226 446 226 498 q 228 431 225 435 q 244 427 231 427 "},"ë":{"ha":776,"x_min":58,"x_max":716,"o":"m 524 854 q 469 876 492 854 q 447 931 447 899 q 469 984 447 962 q 524 1007 492 1007 q 577 984 555 1007 q 599 931 599 962 q 577 876 599 899 q 524 854 555 854 m 278 854 q 224 876 247 854 q 202 931 202 899 q 224 984 202 962 q 278 1007 247 1007 q 332 984 310 1007 q 354 931 354 962 q 332 876 354 899 q 278 854 310 854 m 58 347 q 97 547 58 458 q 212 686 135 635 q 405 738 289 738 q 530 717 477 738 q 618 658 583 695 q 676 574 654 621 q 707 476 697 527 q 716 376 716 426 q 711 359 716 363 q 691 356 706 356 l 244 356 q 227 351 233 356 q 222 335 222 347 q 242 201 223 263 q 303 100 261 138 q 413 63 345 63 q 543 106 492 63 q 622 224 594 150 q 628 236 625 231 q 642 240 631 240 l 697 240 q 711 237 708 240 q 712 225 714 233 q 651 98 692 152 q 547 14 610 44 q 395 -16 483 -16 q 210 34 285 -16 q 97 167 135 85 q 58 347 58 250 m 244 427 l 537 427 q 553 429 551 427 q 556 440 556 431 q 547 512 556 473 q 519 586 538 551 q 472 644 500 622 q 403 666 443 666 q 305 633 344 666 q 246 549 265 599 q 226 446 226 498 q 228 431 225 435 q 244 427 231 427 "},"ē":{"ha":776,"x_min":58,"x_max":716,"o":"m 235 865 l 235 897 q 237 911 235 907 q 249 916 240 916 l 544 916 q 563 912 558 916 q 568 894 568 908 l 568 863 q 566 847 568 852 q 553 842 564 842 l 259 842 q 240 846 246 842 q 235 865 235 850 m 58 347 q 97 547 58 458 q 212 686 135 635 q 405 738 289 738 q 530 717 477 738 q 618 658 583 695 q 676 574 654 621 q 707 476 697 527 q 716 376 716 426 q 711 359 716 363 q 691 356 706 356 l 244 356 q 227 351 233 356 q 222 335 222 347 q 242 201 223 263 q 303 100 261 138 q 413 63 345 63 q 543 106 492 63 q 622 224 594 150 q 628 236 625 231 q 642 240 631 240 l 697 240 q 711 237 708 240 q 712 225 714 233 q 651 98 692 152 q 547 14 610 44 q 395 -16 483 -16 q 210 34 285 -16 q 97 167 135 85 q 58 347 58 250 m 244 427 l 537 427 q 553 429 551 427 q 556 440 556 431 q 547 512 556 473 q 519 586 538 551 q 472 644 500 622 q 403 666 443 666 q 305 633 344 666 q 246 549 265 599 q 226 446 226 498 q 228 431 225 435 q 244 427 231 427 "},"ĕ":{"ha":776,"x_min":58,"x_max":716,"o":"m 401 842 q 275 889 310 842 q 238 1017 240 937 q 254 1031 238 1031 l 277 1031 q 290 1019 289 1031 q 322 955 293 976 q 401 933 351 933 q 478 952 449 933 q 514 1010 508 972 q 516 1025 515 1020 q 528 1031 516 1031 l 553 1031 q 566 1027 564 1031 q 567 1014 567 1024 q 528 889 564 935 q 401 842 492 842 m 58 347 q 97 547 58 458 q 212 686 135 635 q 405 738 289 738 q 530 717 477 738 q 618 658 583 695 q 676 574 654 621 q 707 476 697 527 q 716 376 716 426 q 711 359 716 363 q 691 356 706 356 l 244 356 q 227 351 233 356 q 222 335 222 347 q 242 201 223 263 q 303 100 261 138 q 413 63 345 63 q 543 106 492 63 q 622 224 594 150 q 628 236 625 231 q 642 240 631 240 l 697 240 q 711 237 708 240 q 712 225 714 233 q 651 98 692 152 q 547 14 610 44 q 395 -16 483 -16 q 210 34 285 -16 q 97 167 135 85 q 58 347 58 250 m 244 427 l 537 427 q 553 429 551 427 q 556 440 556 431 q 547 512 556 473 q 519 586 538 551 q 472 644 500 622 q 403 666 443 666 q 305 633 344 666 q 246 549 265 599 q 226 446 226 498 q 228 431 225 435 q 244 427 231 427 "},"ė":{"ha":776,"x_min":58,"x_max":716,"o":"m 404 881 q 341 908 367 881 q 314 972 314 935 q 341 1036 314 1010 q 404 1063 367 1063 q 468 1036 442 1063 q 494 972 494 1010 q 468 908 494 935 q 404 881 442 881 m 58 347 q 97 547 58 458 q 212 686 135 635 q 405 738 289 738 q 530 717 477 738 q 618 658 583 695 q 676 574 654 621 q 707 476 697 527 q 716 376 716 426 q 711 359 716 363 q 691 356 706 356 l 244 356 q 227 351 233 356 q 222 335 222 347 q 242 201 223 263 q 303 100 261 138 q 413 63 345 63 q 543 106 492 63 q 622 224 594 150 q 628 236 625 231 q 642 240 631 240 l 697 240 q 711 237 708 240 q 712 225 714 233 q 651 98 692 152 q 547 14 610 44 q 395 -16 483 -16 q 210 34 285 -16 q 97 167 135 85 q 58 347 58 250 m 244 427 l 537 427 q 553 429 551 427 q 556 440 556 431 q 547 512 556 473 q 519 586 538 551 q 472 644 500 622 q 403 666 443 666 q 305 633 344 666 q 246 549 265 599 q 226 446 226 498 q 228 431 225 435 q 244 427 231 427 "},"ę":{"ha":776,"x_min":58,"x_max":724,"o":"m 561 -225 q 452 -201 499 -225 q 406 -117 406 -176 q 424 -56 406 -85 q 470 -1 442 -27 q 531 48 499 25 q 590 90 563 71 q 612 98 602 97 q 626 94 622 99 q 631 80 633 87 q 619 63 628 72 q 586 22 603 44 q 557 -26 569 -1 q 545 -80 545 -51 q 560 -127 545 -106 q 610 -149 576 -149 q 654 -136 636 -149 q 683 -108 672 -124 q 703 -103 692 -95 l 717 -115 q 724 -123 724 -119 q 720 -134 724 -126 q 663 -199 699 -172 q 561 -225 626 -225 m 58 347 q 97 547 58 458 q 212 686 135 635 q 405 738 289 738 q 530 717 477 738 q 618 658 583 695 q 676 574 654 621 q 707 476 697 527 q 716 376 716 426 q 711 359 716 363 q 691 356 706 356 l 244 356 q 227 351 233 356 q 222 335 222 347 q 242 201 223 263 q 303 100 261 138 q 413 63 345 63 q 543 106 492 63 q 622 224 594 150 q 628 236 625 231 q 642 240 631 240 l 697 240 q 711 237 708 240 q 712 225 714 233 q 651 98 692 152 q 547 14 610 44 q 395 -16 483 -16 q 210 34 285 -16 q 97 167 135 85 q 58 347 58 250 m 244 427 l 537 427 q 553 429 551 427 q 556 440 556 431 q 547 512 556 473 q 519 586 538 551 q 472 644 500 622 q 403 666 443 666 q 305 633 344 666 q 246 549 265 599 q 226 446 226 498 q 228 431 225 435 q 244 427 231 427 "},"ě":{"ha":776,"x_min":58,"x_max":716,"o":"m 323 869 l 206 994 q 197 1008 198 1003 q 205 1020 196 1013 l 223 1036 q 238 1043 233 1044 q 255 1035 243 1042 l 367 960 q 401 947 386 947 q 435 960 417 947 l 553 1043 q 569 1049 564 1051 q 583 1038 574 1047 l 596 1026 q 607 1011 605 1017 q 599 997 608 1006 l 475 865 q 462 853 467 858 q 440 849 456 849 l 374 849 q 343 855 354 849 q 323 869 333 860 m 58 347 q 97 547 58 458 q 212 686 135 635 q 405 738 289 738 q 530 717 477 738 q 618 658 583 695 q 676 574 654 621 q 707 476 697 527 q 716 376 716 426 q 711 359 716 363 q 691 356 706 356 l 244 356 q 227 351 233 356 q 222 335 222 347 q 242 201 223 263 q 303 100 261 138 q 413 63 345 63 q 543 106 492 63 q 622 224 594 150 q 628 236 625 231 q 642 240 631 240 l 697 240 q 711 237 708 240 q 712 225 714 233 q 651 98 692 152 q 547 14 610 44 q 395 -16 483 -16 q 210 34 285 -16 q 97 167 135 85 q 58 347 58 250 m 244 427 l 537 427 q 553 429 551 427 q 556 440 556 431 q 547 512 556 473 q 519 586 538 551 q 472 644 500 622 q 403 666 443 666 q 305 633 344 666 q 246 549 265 599 q 226 446 226 498 q 228 431 225 435 q 244 427 231 427 "},"f":{"ha":556,"x_min":28,"x_max":692,"o":"m 301 614 l 301 111 q 305 90 301 94 q 325 86 308 86 l 439 86 q 459 84 451 86 q 468 69 468 81 l 468 22 q 463 4 468 8 q 444 0 458 0 l 47 0 q 31 4 35 0 q 28 21 28 8 l 28 67 q 33 83 28 80 q 49 86 38 86 l 135 86 q 150 90 147 86 q 153 106 153 94 l 153 613 q 150 631 153 626 q 135 636 148 636 l 47 636 q 32 639 35 636 q 28 653 28 642 l 28 704 q 32 719 28 716 q 48 722 36 722 l 133 722 q 150 726 147 722 q 153 742 153 729 l 153 794 q 186 952 153 883 q 284 1060 219 1021 q 446 1099 349 1099 q 577 1076 522 1099 q 662 1017 632 1053 q 692 938 692 980 q 666 863 692 888 q 599 838 640 838 q 532 859 557 838 q 506 913 506 880 q 514 949 506 935 q 530 972 522 962 q 538 994 538 982 q 518 1017 538 1006 q 450 1028 498 1028 q 366 999 399 1028 q 317 911 333 970 q 301 764 301 852 l 301 741 q 305 726 301 731 q 319 722 308 722 l 467 722 q 486 719 481 722 q 492 701 492 716 l 492 657 q 488 639 492 642 q 470 636 485 636 l 321 636 q 305 632 308 636 q 301 614 301 627 "},"g":{"ha":850,"x_min":26,"x_max":855,"o":"m 220 481 q 232 388 220 432 q 274 317 244 344 q 353 290 303 290 q 433 317 403 290 q 474 388 462 344 q 486 481 486 432 q 474 574 486 531 q 433 645 462 618 q 353 673 403 673 q 274 645 303 673 q 232 574 244 618 q 220 481 220 531 m 67 481 q 103 616 67 558 q 203 706 139 674 q 353 738 268 738 q 467 720 416 738 q 556 671 519 703 q 565 665 563 665 q 574 672 567 665 q 642 723 606 707 q 708 738 679 738 q 789 722 756 738 q 838 676 822 705 q 855 610 855 648 q 831 548 855 570 q 773 526 807 526 q 719 545 740 526 q 699 590 699 564 q 706 625 699 614 q 720 643 713 636 q 727 661 727 651 q 703 681 727 681 q 656 668 681 681 q 610 626 632 656 q 605 617 606 620 q 608 606 603 613 q 638 481 638 549 q 602 346 638 403 q 502 256 566 288 q 353 224 438 224 q 324 225 338 224 q 295 229 310 226 q 275 230 283 231 q 258 224 268 229 q 209 192 230 210 q 188 155 188 174 q 223 113 188 120 q 312 106 258 106 q 347 106 325 106 q 393 106 368 106 q 441 107 418 106 q 478 107 463 107 q 575 99 528 107 q 658 68 622 90 q 716 2 694 45 q 738 -110 738 -40 q 691 -246 738 -190 q 561 -332 645 -302 q 365 -362 478 -362 q 118 -319 210 -362 q 26 -187 26 -276 q 63 -80 26 -125 q 145 -11 100 -35 q 157 -2 159 -4 q 142 6 156 -1 q 93 47 111 20 q 75 117 75 73 q 103 192 75 158 q 181 247 132 225 q 197 257 199 255 q 181 268 195 260 q 97 356 126 301 q 67 481 67 411 m 619 -147 q 585 -58 619 -94 q 484 -22 552 -22 q 438 -22 469 -22 q 376 -22 407 -22 q 329 -22 344 -22 q 282 -22 306 -22 q 236 -19 259 -22 q 224 -19 228 -18 q 215 -26 220 -20 q 182 -87 188 -55 q 176 -142 176 -119 q 228 -248 176 -210 q 387 -286 281 -286 q 498 -271 445 -286 q 585 -225 551 -256 q 619 -147 619 -194 "},"ĝ":{"ha":850,"x_min":26,"x_max":855,"o":"m 267 849 l 247 870 q 240 881 240 878 q 247 892 240 884 l 378 1029 q 392 1039 385 1037 q 415 1041 399 1041 l 483 1041 q 503 1038 497 1041 q 515 1029 509 1035 l 649 889 q 654 882 654 884 q 649 874 654 879 l 622 847 q 611 839 614 839 q 599 846 608 840 l 464 947 q 429 947 446 960 l 292 845 q 267 849 281 836 m 220 481 q 232 388 220 432 q 274 317 244 344 q 353 290 303 290 q 433 317 403 290 q 474 388 462 344 q 486 481 486 432 q 474 574 486 531 q 433 645 462 618 q 353 673 403 673 q 274 645 303 673 q 232 574 244 618 q 220 481 220 531 m 67 481 q 103 616 67 558 q 203 706 139 674 q 353 738 268 738 q 467 720 416 738 q 556 671 519 703 q 565 665 563 665 q 574 672 567 665 q 642 723 606 707 q 708 738 679 738 q 789 722 756 738 q 838 676 822 705 q 855 610 855 648 q 831 548 855 570 q 773 526 807 526 q 719 545 740 526 q 699 590 699 564 q 706 625 699 614 q 720 643 713 636 q 727 661 727 651 q 703 681 727 681 q 656 668 681 681 q 610 626 632 656 q 605 617 606 620 q 608 606 603 613 q 638 481 638 549 q 602 346 638 403 q 502 256 566 288 q 353 224 438 224 q 324 225 338 224 q 295 229 310 226 q 275 230 283 231 q 258 224 268 229 q 209 192 230 210 q 188 155 188 174 q 223 113 188 120 q 312 106 258 106 q 347 106 325 106 q 393 106 368 106 q 441 107 418 106 q 478 107 463 107 q 575 99 528 107 q 658 68 622 90 q 716 2 694 45 q 738 -110 738 -40 q 691 -246 738 -190 q 561 -332 645 -302 q 365 -362 478 -362 q 118 -319 210 -362 q 26 -187 26 -276 q 63 -80 26 -125 q 145 -11 100 -35 q 157 -2 159 -4 q 142 6 156 -1 q 93 47 111 20 q 75 117 75 73 q 103 192 75 158 q 181 247 132 225 q 197 257 199 255 q 181 268 195 260 q 97 356 126 301 q 67 481 67 411 m 619 -147 q 585 -58 619 -94 q 484 -22 552 -22 q 438 -22 469 -22 q 376 -22 407 -22 q 329 -22 344 -22 q 282 -22 306 -22 q 236 -19 259 -22 q 224 -19 228 -18 q 215 -26 220 -20 q 182 -87 188 -55 q 176 -142 176 -119 q 228 -248 176 -210 q 387 -286 281 -286 q 498 -271 445 -286 q 585 -225 551 -256 q 619 -147 619 -194 "}}}
